<ttFont>
    <TTGlyph name="A" xMin="4" yMin="-5" xMax="616" yMax="608">
      <contour>
        <pt x="616" y="3" on="1"/>
        <pt x="616" y="-5" on="0"/>
        <pt x="607" y="-5" on="1"/>
        <pt x="602" y="-5" on="0"/>
        <pt x="600" y="0" on="1"/>
        <pt x="500" y="201" on="1"/>
        <pt x="119" y="201" on="1"/>
        <pt x="20" y="0" on="1"/>
        <pt x="18" y="-5" on="0"/>
        <pt x="13" y="-5" on="1"/>
        <pt x="4" y="-5" on="0"/>
        <pt x="4" y="3" on="1"/>
        <pt x="4" y="5" on="0"/>
        <pt x="5" y="7" on="1"/>
        <pt x="294" y="591" on="1"/>
        <pt x="229" y="591" on="1"/>
        <pt x="221" y="591" on="0"/>
        <pt x="221" y="608" on="0"/>
        <pt x="229" y="608" on="1"/>
        <pt x="312" y="608" on="1"/>
        <pt x="317" y="608" on="0"/>
        <pt x="319" y="604" on="1"/>
        <pt x="615" y="7" on="1"/>
        <pt x="616" y="5" on="0"/>
      </contour>
      <contour>
        <pt x="310" y="585" on="1"/>
        <pt x="128" y="218" on="1"/>
        <pt x="492" y="218" on="1"/>
      </contour>
    </TTGlyph>
    <TTGlyph name="AE" xMin="-14" yMin="-6" xMax="874" yMax="608">
      <contour>
        <pt x="2" y="-2" on="1"/>
        <pt x="-1" y="-6" on="0"/>
        <pt x="-14" y="-6" on="0"/>
        <pt x="-14" y="2" on="1"/>
        <pt x="-14" y="5" on="0"/>
        <pt x="-12" y="7" on="1"/>
        <pt x="399" y="591" on="1"/>
        <pt x="338" y="591" on="1"/>
        <pt x="330" y="591" on="0"/>
        <pt x="330" y="608" on="0"/>
        <pt x="338" y="608" on="1"/>
        <pt x="866" y="608" on="1"/>
        <pt x="874" y="608" on="0"/>
        <pt x="874" y="599" on="1"/>
        <pt x="874" y="512" on="1"/>
        <pt x="874" y="504" on="0"/>
        <pt x="857" y="504" on="0"/>
        <pt x="857" y="512" on="1"/>
        <pt x="857" y="591" on="1"/>
        <pt x="472" y="591" on="1"/>
        <pt x="472" y="314" on="1"/>
        <pt x="807" y="314" on="1"/>
        <pt x="807" y="368" on="1"/>
        <pt x="807" y="377" on="0"/>
        <pt x="824" y="377" on="0"/>
        <pt x="824" y="368" on="1"/>
        <pt x="824" y="242" on="1"/>
        <pt x="824" y="233" on="0"/>
        <pt x="807" y="233" on="0"/>
        <pt x="807" y="242" on="1"/>
        <pt x="807" y="297" on="1"/>
        <pt x="472" y="297" on="1"/>
        <pt x="472" y="17" on="1"/>
        <pt x="866" y="17" on="1"/>
        <pt x="874" y="17" on="0"/>
        <pt x="874" y="0" on="0"/>
        <pt x="866" y="0" on="1"/>
        <pt x="463" y="0" on="1"/>
        <pt x="455" y="0" on="0"/>
        <pt x="455" y="8" on="1"/>
        <pt x="455" y="297" on="1"/>
        <pt x="213" y="297" on="1"/>
      </contour>
      <contour>
        <pt x="455" y="591" on="1"/>
        <pt x="420" y="591" on="1"/>
        <pt x="225" y="314" on="1"/>
        <pt x="455" y="314" on="1"/>
      </contour>
    </TTGlyph>
    <TTGlyph name="Aacute" xMin="4" yMin="-5" xMax="616" yMax="789">
      <contour>
        <pt x="616" y="3" on="1"/>
        <pt x="616" y="-5" on="0"/>
        <pt x="607" y="-5" on="1"/>
        <pt x="602" y="-5" on="0"/>
        <pt x="600" y="0" on="1"/>
        <pt x="500" y="201" on="1"/>
        <pt x="119" y="201" on="1"/>
        <pt x="20" y="0" on="1"/>
        <pt x="18" y="-5" on="0"/>
        <pt x="13" y="-5" on="1"/>
        <pt x="4" y="-5" on="0"/>
        <pt x="4" y="3" on="1"/>
        <pt x="4" y="5" on="0"/>
        <pt x="5" y="7" on="1"/>
        <pt x="294" y="591" on="1"/>
        <pt x="229" y="591" on="1"/>
        <pt x="221" y="591" on="0"/>
        <pt x="221" y="608" on="0"/>
        <pt x="229" y="608" on="1"/>
        <pt x="312" y="608" on="1"/>
        <pt x="317" y="608" on="0"/>
        <pt x="319" y="604" on="1"/>
        <pt x="615" y="7" on="1"/>
        <pt x="616" y="5" on="0"/>
      </contour>
      <contour>
        <pt x="310" y="585" on="1"/>
        <pt x="128" y="218" on="1"/>
        <pt x="492" y="218" on="1"/>
      </contour>
      <contour>
        <pt x="306" y="688" on="1"/>
        <pt x="300" y="688" on="0"/>
        <pt x="300" y="694" on="1"/>
        <pt x="300" y="696" on="0"/>
        <pt x="303" y="699" on="1"/>
        <pt x="386" y="786" on="1"/>
        <pt x="388" y="789" on="0"/>
        <pt x="392" y="789" on="1"/>
        <pt x="402" y="789" on="0"/>
        <pt x="402" y="781" on="1"/>
        <pt x="402" y="778" on="0"/>
        <pt x="399" y="775" on="1"/>
        <pt x="311" y="691" on="1"/>
        <pt x="308" y="688" on="0"/>
      </contour>
    </TTGlyph>
    <TTGlyph name="Acircumflex" xMin="4" yMin="-5" xMax="616" yMax="779">
      <contour>
        <pt x="616" y="3" on="1"/>
        <pt x="616" y="-5" on="0"/>
        <pt x="607" y="-5" on="1"/>
        <pt x="602" y="-5" on="0"/>
        <pt x="600" y="0" on="1"/>
        <pt x="500" y="201" on="1"/>
        <pt x="119" y="201" on="1"/>
        <pt x="20" y="0" on="1"/>
        <pt x="18" y="-5" on="0"/>
        <pt x="13" y="-5" on="1"/>
        <pt x="4" y="-5" on="0"/>
        <pt x="4" y="3" on="1"/>
        <pt x="4" y="5" on="0"/>
        <pt x="5" y="7" on="1"/>
        <pt x="294" y="591" on="1"/>
        <pt x="229" y="591" on="1"/>
        <pt x="221" y="591" on="0"/>
        <pt x="221" y="608" on="0"/>
        <pt x="229" y="608" on="1"/>
        <pt x="312" y="608" on="1"/>
        <pt x="317" y="608" on="0"/>
        <pt x="319" y="604" on="1"/>
        <pt x="615" y="7" on="1"/>
        <pt x="616" y="5" on="0"/>
      </contour>
      <contour>
        <pt x="310" y="585" on="1"/>
        <pt x="128" y="218" on="1"/>
        <pt x="492" y="218" on="1"/>
      </contour>
      <contour>
        <pt x="247" y="689" on="1"/>
        <pt x="244" y="686" on="0"/>
        <pt x="236" y="686" on="0"/>
        <pt x="236" y="692" on="1"/>
        <pt x="236" y="694" on="0"/>
        <pt x="238" y="696" on="1"/>
        <pt x="303" y="775" on="1"/>
        <pt x="307" y="779" on="0"/>
        <pt x="315" y="779" on="0"/>
        <pt x="319" y="775" on="1"/>
        <pt x="384" y="696" on="1"/>
        <pt x="386" y="694" on="0"/>
        <pt x="386" y="692" on="1"/>
        <pt x="386" y="686" on="0"/>
        <pt x="378" y="686" on="0"/>
        <pt x="375" y="689" on="1"/>
        <pt x="311" y="758" on="1"/>
      </contour>
    </TTGlyph>
    <TTGlyph name="Adieresis" xMin="4" yMin="-5" xMax="616" yMax="746">
      <contour>
        <pt x="4" y="3" on="1"/>
        <pt x="4" y="5" on="0"/>
        <pt x="5" y="7" on="1"/>
        <pt x="294" y="591" on="1"/>
        <pt x="229" y="591" on="1"/>
        <pt x="221" y="591" on="0"/>
        <pt x="221" y="608" on="0"/>
        <pt x="229" y="608" on="1"/>
        <pt x="229" y="608" on="0"/>
        <pt x="312" y="608" on="1"/>
        <pt x="317" y="608" on="0"/>
        <pt x="319" y="604" on="1"/>
        <pt x="615" y="7" on="1"/>
        <pt x="616" y="5" on="0"/>
        <pt x="616" y="3" on="1"/>
        <pt x="616" y="-5" on="0"/>
        <pt x="607" y="-5" on="1"/>
        <pt x="602" y="-5" on="0"/>
        <pt x="600" y="0" on="1"/>
        <pt x="500" y="201" on="1"/>
        <pt x="119" y="201" on="1"/>
        <pt x="20" y="0" on="1"/>
        <pt x="18" y="-5" on="0"/>
        <pt x="13" y="-5" on="1"/>
        <pt x="4" y="-5" on="0"/>
      </contour>
      <contour>
        <pt x="128" y="218" on="1"/>
        <pt x="492" y="218" on="1"/>
        <pt x="310" y="585" on="1"/>
      </contour>
      <contour>
        <pt x="243" y="725" on="0"/>
        <pt x="243" y="737" on="0"/>
        <pt x="252" y="746" on="0"/>
        <pt x="264" y="746" on="0"/>
        <pt x="273" y="737" on="0"/>
        <pt x="273" y="725" on="0"/>
        <pt x="264" y="716" on="0"/>
        <pt x="252" y="716" on="0"/>
      </contour>
      <contour>
        <pt x="348" y="725" on="0"/>
        <pt x="348" y="737" on="0"/>
        <pt x="357" y="746" on="0"/>
        <pt x="369" y="746" on="0"/>
        <pt x="378" y="737" on="0"/>
        <pt x="378" y="725" on="0"/>
        <pt x="369" y="716" on="0"/>
        <pt x="357" y="716" on="0"/>
      </contour>
    </TTGlyph>
    <TTGlyph name="Agrave" xMin="4" yMin="-5" xMax="616" yMax="791">
      <contour>
        <pt x="4" y="3" on="1"/>
        <pt x="4" y="5" on="0"/>
        <pt x="5" y="7" on="1"/>
        <pt x="294" y="591" on="1"/>
        <pt x="229" y="591" on="1"/>
        <pt x="221" y="591" on="0"/>
        <pt x="221" y="608" on="0"/>
        <pt x="229" y="608" on="1"/>
        <pt x="229" y="608" on="0"/>
        <pt x="312" y="608" on="1"/>
        <pt x="317" y="608" on="0"/>
        <pt x="319" y="604" on="1"/>
        <pt x="615" y="7" on="1"/>
        <pt x="616" y="5" on="0"/>
        <pt x="616" y="3" on="1"/>
        <pt x="616" y="-5" on="0"/>
        <pt x="607" y="-5" on="1"/>
        <pt x="602" y="-5" on="0"/>
        <pt x="600" y="0" on="1"/>
        <pt x="500" y="201" on="1"/>
        <pt x="119" y="201" on="1"/>
        <pt x="20" y="0" on="1"/>
        <pt x="18" y="-5" on="0"/>
        <pt x="13" y="-5" on="1"/>
        <pt x="4" y="-5" on="0"/>
      </contour>
      <contour>
        <pt x="128" y="218" on="1"/>
        <pt x="492" y="218" on="1"/>
        <pt x="310" y="585" on="1"/>
      </contour>
      <contour>
        <pt x="315" y="694" on="1"/>
        <pt x="315" y="688" on="0"/>
        <pt x="309" y="688" on="1"/>
        <pt x="307" y="688" on="0"/>
        <pt x="304" y="691" on="1"/>
        <pt x="216" y="775" on="1"/>
        <pt x="213" y="778" on="0"/>
        <pt x="213" y="784" on="0"/>
        <pt x="219" y="791" on="0"/>
        <pt x="225" y="791" on="0"/>
        <pt x="229" y="786" on="1"/>
        <pt x="312" y="699" on="1"/>
        <pt x="315" y="696" on="0"/>
      </contour>
    </TTGlyph>
    <TTGlyph name="Aring" xMin="4" yMin="-5" xMax="616" yMax="778">
      <contour>
        <pt x="4" y="3" on="1"/>
        <pt x="4" y="5" on="0"/>
        <pt x="5" y="7" on="1"/>
        <pt x="294" y="591" on="1"/>
        <pt x="229" y="591" on="1"/>
        <pt x="221" y="591" on="0"/>
        <pt x="221" y="608" on="0"/>
        <pt x="229" y="608" on="1"/>
        <pt x="229" y="608" on="0"/>
        <pt x="312" y="608" on="1"/>
        <pt x="317" y="608" on="0"/>
        <pt x="319" y="604" on="1"/>
        <pt x="615" y="7" on="1"/>
        <pt x="616" y="5" on="0"/>
        <pt x="616" y="3" on="1"/>
        <pt x="616" y="-5" on="0"/>
        <pt x="607" y="-5" on="1"/>
        <pt x="602" y="-5" on="0"/>
        <pt x="600" y="0" on="1"/>
        <pt x="500" y="201" on="1"/>
        <pt x="119" y="201" on="1"/>
        <pt x="20" y="0" on="1"/>
        <pt x="18" y="-5" on="0"/>
        <pt x="13" y="-5" on="1"/>
        <pt x="4" y="-5" on="0"/>
      </contour>
      <contour>
        <pt x="128" y="218" on="1"/>
        <pt x="492" y="218" on="1"/>
        <pt x="310" y="585" on="1"/>
      </contour>
      <contour>
        <pt x="256" y="699" on="0"/>
        <pt x="256" y="747" on="0"/>
        <pt x="287" y="778" on="0"/>
        <pt x="335" y="778" on="0"/>
        <pt x="366" y="747" on="0"/>
        <pt x="366" y="699" on="0"/>
        <pt x="335" y="668" on="0"/>
        <pt x="287" y="668" on="0"/>
      </contour>
      <contour>
        <pt x="270" y="741" on="0"/>
        <pt x="270" y="705" on="0"/>
        <pt x="293" y="682" on="0"/>
        <pt x="329" y="682" on="0"/>
        <pt x="352" y="705" on="0"/>
        <pt x="352" y="741" on="0"/>
        <pt x="329" y="764" on="0"/>
        <pt x="293" y="764" on="0"/>
      </contour>
    </TTGlyph>
    <TTGlyph name="Atilde" xMin="4" yMin="-5" xMax="616" yMax="752">
      <contour>
        <pt x="616" y="3" on="1"/>
        <pt x="616" y="-5" on="0"/>
        <pt x="607" y="-5" on="1"/>
        <pt x="602" y="-5" on="0"/>
        <pt x="600" y="0" on="1"/>
        <pt x="500" y="201" on="1"/>
        <pt x="119" y="201" on="1"/>
        <pt x="20" y="0" on="1"/>
        <pt x="18" y="-5" on="0"/>
        <pt x="13" y="-5" on="1"/>
        <pt x="4" y="-5" on="0"/>
        <pt x="4" y="3" on="1"/>
        <pt x="4" y="5" on="0"/>
        <pt x="5" y="7" on="1"/>
        <pt x="294" y="591" on="1"/>
        <pt x="229" y="591" on="1"/>
        <pt x="221" y="591" on="0"/>
        <pt x="221" y="608" on="0"/>
        <pt x="229" y="608" on="1"/>
        <pt x="312" y="608" on="1"/>
        <pt x="317" y="608" on="0"/>
        <pt x="319" y="604" on="1"/>
        <pt x="615" y="7" on="1"/>
        <pt x="616" y="5" on="0"/>
      </contour>
      <contour>
        <pt x="310" y="585" on="1"/>
        <pt x="128" y="218" on="1"/>
        <pt x="492" y="218" on="1"/>
      </contour>
      <contour>
        <pt x="227" y="736" on="0"/>
        <pt x="208" y="712" on="0"/>
        <pt x="208" y="689" on="0"/>
        <pt x="193" y="689" on="0"/>
        <pt x="193" y="696" on="1"/>
        <pt x="193" y="721" on="0"/>
        <pt x="223" y="752" on="0"/>
        <pt x="278" y="752" on="0"/>
        <pt x="352" y="704" on="0"/>
        <pt x="395" y="704" on="0"/>
        <pt x="414" y="728" on="0"/>
        <pt x="414" y="752" on="0"/>
        <pt x="429" y="752" on="0"/>
        <pt x="429" y="744" on="1"/>
        <pt x="429" y="720" on="0"/>
        <pt x="399" y="689" on="0"/>
        <pt x="348" y="689" on="0"/>
        <pt x="272" y="736" on="0"/>
      </contour>
    </TTGlyph>
    <TTGlyph name="B" xMin="25" yMin="0" xMax="555" yMax="608">
      <contour>
        <pt x="342" y="0" on="1"/>
        <pt x="114" y="0" on="1"/>
        <pt x="105" y="0" on="0"/>
        <pt x="105" y="8" on="1"/>
        <pt x="105" y="591" on="1"/>
        <pt x="33" y="591" on="1"/>
        <pt x="25" y="591" on="0"/>
        <pt x="25" y="608" on="0"/>
        <pt x="33" y="608" on="1"/>
        <pt x="322" y="608" on="1"/>
        <pt x="519" y="608" on="0"/>
        <pt x="519" y="462" on="1"/>
        <pt x="519" y="351" on="0"/>
        <pt x="410" y="324" on="1"/>
        <pt x="555" y="302" on="0"/>
        <pt x="555" y="165" on="1"/>
        <pt x="555" y="0" on="0"/>
      </contour>
      <contour>
        <pt x="122" y="313" on="1"/>
        <pt x="122" y="17" on="1"/>
        <pt x="342" y="17" on="1"/>
        <pt x="442" y="17" on="0"/>
        <pt x="538" y="89" on="0"/>
        <pt x="538" y="165" on="1"/>
        <pt x="538" y="313" on="0"/>
        <pt x="359" y="313" on="1"/>
      </contour>
      <contour>
        <pt x="122" y="591" on="1"/>
        <pt x="122" y="330" on="1"/>
        <pt x="346" y="330" on="1"/>
        <pt x="418" y="330" on="0"/>
        <pt x="502" y="397" on="0"/>
        <pt x="502" y="528" on="0"/>
        <pt x="413" y="591" on="0"/>
        <pt x="322" y="591" on="1"/>
      </contour>
    </TTGlyph>
    <TTGlyph name="C" xMin="53" yMin="-5" xMax="573" yMax="613">
      <contour>
        <pt x="570" y="94" on="1"/>
        <pt x="487" y="-5" on="0"/>
        <pt x="215" y="-5" on="0"/>
        <pt x="53" y="164" on="0"/>
        <pt x="53" y="442" on="0"/>
        <pt x="215" y="613" on="0"/>
        <pt x="462" y="613" on="0"/>
        <pt x="545" y="565" on="1"/>
        <pt x="551" y="562" on="0"/>
        <pt x="551" y="557" on="1"/>
        <pt x="551" y="467" on="1"/>
        <pt x="551" y="458" on="0"/>
        <pt x="534" y="458" on="0"/>
        <pt x="534" y="467" on="1"/>
        <pt x="534" y="552" on="1"/>
        <pt x="452" y="596" on="0"/>
        <pt x="221" y="596" on="0"/>
        <pt x="70" y="435" on="0"/>
        <pt x="70" y="173" on="0"/>
        <pt x="221" y="12" on="0"/>
        <pt x="480" y="12" on="0"/>
        <pt x="557" y="105" on="1"/>
        <pt x="563" y="112" on="0"/>
        <pt x="572" y="103" on="0"/>
        <pt x="572" y="97" on="0"/>
      </contour>
    </TTGlyph>
    <TTGlyph name="Ccedilla" xMin="53" yMin="-176" xMax="573" yMax="613">
      <contour>
        <pt x="422" y="-138" on="0"/>
        <pt x="370" y="-176" on="0"/>
        <pt x="308" y="-176" on="0"/>
        <pt x="253" y="-157" on="0"/>
        <pt x="253" y="-143" on="1"/>
        <pt x="253" y="-135" on="0"/>
        <pt x="261" y="-135" on="1"/>
        <pt x="265" y="-135" on="0"/>
        <pt x="269" y="-139" on="1"/>
        <pt x="289" y="-159" on="0"/>
        <pt x="360" y="-159" on="0"/>
        <pt x="402" y="-133" on="0"/>
        <pt x="402" y="-94" on="0"/>
        <pt x="382" y="-71" on="0"/>
        <pt x="368" y="-66" on="1"/>
        <pt x="344" y="-57" on="0"/>
        <pt x="320" y="-57" on="0"/>
        <pt x="320" y="-49" on="1"/>
        <pt x="320" y="-45" on="0"/>
        <pt x="322" y="-43" on="1"/>
        <pt x="341" y="-5" on="1"/>
        <pt x="214" y="-4" on="0"/>
        <pt x="53" y="165" on="0"/>
        <pt x="53" y="442" on="0"/>
        <pt x="215" y="613" on="0"/>
        <pt x="462" y="613" on="0"/>
        <pt x="545" y="565" on="1"/>
        <pt x="551" y="562" on="0"/>
        <pt x="551" y="557" on="1"/>
        <pt x="551" y="467" on="1"/>
        <pt x="551" y="458" on="0"/>
        <pt x="534" y="458" on="0"/>
        <pt x="534" y="467" on="1"/>
        <pt x="534" y="552" on="1"/>
        <pt x="452" y="596" on="0"/>
        <pt x="221" y="596" on="0"/>
        <pt x="70" y="435" on="0"/>
        <pt x="70" y="173" on="0"/>
        <pt x="221" y="12" on="0"/>
        <pt x="480" y="12" on="0"/>
        <pt x="557" y="105" on="1"/>
        <pt x="563" y="112" on="0"/>
        <pt x="572" y="103" on="0"/>
        <pt x="572" y="97" on="0"/>
        <pt x="570" y="94" on="1"/>
        <pt x="493" y="3" on="0"/>
        <pt x="361" y="-4" on="1"/>
        <pt x="343" y="-42" on="1"/>
        <pt x="379" y="-46" on="0"/>
        <pt x="422" y="-84" on="0"/>
      </contour>
    </TTGlyph>
    <TTGlyph name="D" xMin="20" yMin="0" xMax="602" yMax="608">
      <contour>
        <pt x="305" y="0" on="1"/>
        <pt x="115" y="0" on="1"/>
        <pt x="107" y="0" on="0"/>
        <pt x="107" y="8" on="1"/>
        <pt x="107" y="591" on="1"/>
        <pt x="29" y="591" on="1"/>
        <pt x="20" y="591" on="0"/>
        <pt x="20" y="608" on="0"/>
        <pt x="29" y="608" on="1"/>
        <pt x="305" y="608" on="1"/>
        <pt x="440" y="608" on="0"/>
        <pt x="602" y="443" on="0"/>
        <pt x="602" y="163" on="0"/>
        <pt x="443" y="0" on="0"/>
      </contour>
      <contour>
        <pt x="124" y="591" on="1"/>
        <pt x="124" y="17" on="1"/>
        <pt x="305" y="17" on="1"/>
        <pt x="437" y="17" on="0"/>
        <pt x="585" y="168" on="0"/>
        <pt x="585" y="437" on="0"/>
        <pt x="433" y="591" on="0"/>
        <pt x="305" y="591" on="1"/>
      </contour>
    </TTGlyph>
    <TTGlyph name="E" xMin="20" yMin="0" xMax="526" yMax="608">
      <contour>
        <pt x="526" y="512" on="1"/>
        <pt x="526" y="504" on="0"/>
        <pt x="509" y="504" on="0"/>
        <pt x="509" y="512" on="1"/>
        <pt x="509" y="591" on="1"/>
        <pt x="124" y="591" on="1"/>
        <pt x="124" y="314" on="1"/>
        <pt x="459" y="314" on="1"/>
        <pt x="459" y="368" on="1"/>
        <pt x="459" y="377" on="0"/>
        <pt x="476" y="377" on="0"/>
        <pt x="476" y="368" on="1"/>
        <pt x="476" y="242" on="1"/>
        <pt x="476" y="233" on="0"/>
        <pt x="459" y="233" on="0"/>
        <pt x="459" y="242" on="1"/>
        <pt x="459" y="297" on="1"/>
        <pt x="124" y="297" on="1"/>
        <pt x="124" y="17" on="1"/>
        <pt x="518" y="17" on="1"/>
        <pt x="526" y="17" on="0"/>
        <pt x="526" y="0" on="0"/>
        <pt x="518" y="0" on="1"/>
        <pt x="115" y="0" on="1"/>
        <pt x="107" y="0" on="0"/>
        <pt x="107" y="8" on="1"/>
        <pt x="107" y="591" on="1"/>
        <pt x="29" y="591" on="1"/>
        <pt x="20" y="591" on="0"/>
        <pt x="20" y="608" on="0"/>
        <pt x="29" y="608" on="1"/>
        <pt x="518" y="608" on="1"/>
        <pt x="526" y="608" on="0"/>
        <pt x="526" y="599" on="1"/>
      </contour>
    </TTGlyph>
    <TTGlyph name="Eacute" xMin="20" yMin="0" xMax="526" yMax="789">
      <contour>
        <pt x="526" y="512" on="1"/>
        <pt x="526" y="504" on="0"/>
        <pt x="509" y="504" on="0"/>
        <pt x="509" y="512" on="1"/>
        <pt x="509" y="591" on="1"/>
        <pt x="124" y="591" on="1"/>
        <pt x="124" y="314" on="1"/>
        <pt x="459" y="314" on="1"/>
        <pt x="459" y="368" on="1"/>
        <pt x="459" y="377" on="0"/>
        <pt x="476" y="377" on="0"/>
        <pt x="476" y="368" on="1"/>
        <pt x="476" y="242" on="1"/>
        <pt x="476" y="233" on="0"/>
        <pt x="459" y="233" on="0"/>
        <pt x="459" y="242" on="1"/>
        <pt x="459" y="297" on="1"/>
        <pt x="124" y="297" on="1"/>
        <pt x="124" y="17" on="1"/>
        <pt x="518" y="17" on="1"/>
        <pt x="526" y="17" on="0"/>
        <pt x="526" y="0" on="0"/>
        <pt x="518" y="0" on="1"/>
        <pt x="115" y="0" on="1"/>
        <pt x="107" y="0" on="0"/>
        <pt x="107" y="8" on="1"/>
        <pt x="107" y="591" on="1"/>
        <pt x="29" y="591" on="1"/>
        <pt x="20" y="591" on="0"/>
        <pt x="20" y="608" on="0"/>
        <pt x="29" y="608" on="1"/>
        <pt x="518" y="608" on="1"/>
        <pt x="526" y="608" on="0"/>
        <pt x="526" y="599" on="1"/>
      </contour>
      <contour>
        <pt x="285" y="688" on="1"/>
        <pt x="279" y="688" on="0"/>
        <pt x="279" y="694" on="1"/>
        <pt x="279" y="696" on="0"/>
        <pt x="282" y="699" on="1"/>
        <pt x="365" y="786" on="1"/>
        <pt x="367" y="789" on="0"/>
        <pt x="372" y="789" on="1"/>
        <pt x="381" y="789" on="0"/>
        <pt x="381" y="781" on="1"/>
        <pt x="381" y="778" on="0"/>
        <pt x="378" y="775" on="1"/>
        <pt x="290" y="691" on="1"/>
        <pt x="287" y="688" on="0"/>
      </contour>
    </TTGlyph>
    <TTGlyph name="Ecircumflex" xMin="20" yMin="0" xMax="526" yMax="779">
      <contour>
        <pt x="526" y="512" on="1"/>
        <pt x="526" y="504" on="0"/>
        <pt x="509" y="504" on="0"/>
        <pt x="509" y="512" on="1"/>
        <pt x="509" y="591" on="1"/>
        <pt x="124" y="591" on="1"/>
        <pt x="124" y="314" on="1"/>
        <pt x="459" y="314" on="1"/>
        <pt x="459" y="368" on="1"/>
        <pt x="459" y="377" on="0"/>
        <pt x="476" y="377" on="0"/>
        <pt x="476" y="368" on="1"/>
        <pt x="476" y="242" on="1"/>
        <pt x="476" y="233" on="0"/>
        <pt x="459" y="233" on="0"/>
        <pt x="459" y="242" on="1"/>
        <pt x="459" y="297" on="1"/>
        <pt x="124" y="297" on="1"/>
        <pt x="124" y="17" on="1"/>
        <pt x="518" y="17" on="1"/>
        <pt x="526" y="17" on="0"/>
        <pt x="526" y="0" on="0"/>
        <pt x="518" y="0" on="1"/>
        <pt x="115" y="0" on="1"/>
        <pt x="107" y="0" on="0"/>
        <pt x="107" y="8" on="1"/>
        <pt x="107" y="591" on="1"/>
        <pt x="29" y="591" on="1"/>
        <pt x="20" y="591" on="0"/>
        <pt x="20" y="608" on="0"/>
        <pt x="29" y="608" on="1"/>
        <pt x="518" y="608" on="1"/>
        <pt x="526" y="608" on="0"/>
        <pt x="526" y="599" on="1"/>
      </contour>
      <contour>
        <pt x="246" y="689" on="1"/>
        <pt x="243" y="686" on="0"/>
        <pt x="235" y="686" on="0"/>
        <pt x="235" y="692" on="1"/>
        <pt x="235" y="694" on="0"/>
        <pt x="237" y="696" on="1"/>
        <pt x="302" y="775" on="1"/>
        <pt x="306" y="779" on="0"/>
        <pt x="314" y="779" on="0"/>
        <pt x="318" y="775" on="1"/>
        <pt x="383" y="696" on="1"/>
        <pt x="385" y="694" on="0"/>
        <pt x="385" y="692" on="1"/>
        <pt x="385" y="686" on="0"/>
        <pt x="377" y="686" on="0"/>
        <pt x="374" y="689" on="1"/>
        <pt x="310" y="758" on="1"/>
      </contour>
    </TTGlyph>
    <TTGlyph name="Edieresis" xMin="20" yMin="0" xMax="526" yMax="746">
      <contour>
        <pt x="509" y="512" on="1"/>
        <pt x="509" y="591" on="1"/>
        <pt x="124" y="591" on="1"/>
        <pt x="124" y="314" on="1"/>
        <pt x="459" y="314" on="1"/>
        <pt x="459" y="368" on="1"/>
        <pt x="459" y="377" on="0"/>
        <pt x="476" y="377" on="0"/>
        <pt x="476" y="368" on="1"/>
        <pt x="476" y="242" on="1"/>
        <pt x="476" y="233" on="0"/>
        <pt x="459" y="233" on="0"/>
        <pt x="459" y="242" on="1"/>
        <pt x="459" y="297" on="1"/>
        <pt x="124" y="297" on="1"/>
        <pt x="124" y="17" on="1"/>
        <pt x="518" y="17" on="1"/>
        <pt x="526" y="17" on="0"/>
        <pt x="526" y="0" on="0"/>
        <pt x="518" y="0" on="1"/>
        <pt x="115" y="0" on="1"/>
        <pt x="107" y="0" on="0"/>
        <pt x="107" y="8" on="1"/>
        <pt x="107" y="591" on="1"/>
        <pt x="29" y="591" on="1"/>
        <pt x="20" y="591" on="0"/>
        <pt x="20" y="608" on="0"/>
        <pt x="29" y="608" on="1"/>
        <pt x="518" y="608" on="1"/>
        <pt x="526" y="608" on="0"/>
        <pt x="526" y="599" on="1"/>
        <pt x="526" y="512" on="1"/>
        <pt x="526" y="504" on="0"/>
        <pt x="509" y="504" on="0"/>
      </contour>
      <contour>
        <pt x="242" y="725" on="0"/>
        <pt x="242" y="737" on="0"/>
        <pt x="251" y="746" on="0"/>
        <pt x="263" y="746" on="0"/>
        <pt x="272" y="737" on="0"/>
        <pt x="272" y="725" on="0"/>
        <pt x="263" y="716" on="0"/>
        <pt x="251" y="716" on="0"/>
      </contour>
      <contour>
        <pt x="347" y="725" on="0"/>
        <pt x="347" y="737" on="0"/>
        <pt x="356" y="746" on="0"/>
        <pt x="368" y="746" on="0"/>
        <pt x="377" y="737" on="0"/>
        <pt x="377" y="725" on="0"/>
        <pt x="368" y="716" on="0"/>
        <pt x="356" y="716" on="0"/>
      </contour>
    </TTGlyph>
    <TTGlyph name="Egrave" xMin="20" yMin="0" xMax="526" yMax="791">
      <contour>
        <pt x="509" y="512" on="1"/>
        <pt x="509" y="591" on="1"/>
        <pt x="124" y="591" on="1"/>
        <pt x="124" y="314" on="1"/>
        <pt x="459" y="314" on="1"/>
        <pt x="459" y="368" on="1"/>
        <pt x="459" y="377" on="0"/>
        <pt x="476" y="377" on="0"/>
        <pt x="476" y="368" on="1"/>
        <pt x="476" y="242" on="1"/>
        <pt x="476" y="233" on="0"/>
        <pt x="459" y="233" on="0"/>
        <pt x="459" y="242" on="1"/>
        <pt x="459" y="297" on="1"/>
        <pt x="124" y="297" on="1"/>
        <pt x="124" y="17" on="1"/>
        <pt x="518" y="17" on="1"/>
        <pt x="526" y="17" on="0"/>
        <pt x="526" y="0" on="0"/>
        <pt x="518" y="0" on="1"/>
        <pt x="115" y="0" on="1"/>
        <pt x="107" y="0" on="0"/>
        <pt x="107" y="8" on="1"/>
        <pt x="107" y="591" on="1"/>
        <pt x="29" y="591" on="1"/>
        <pt x="20" y="591" on="0"/>
        <pt x="20" y="608" on="0"/>
        <pt x="29" y="608" on="1"/>
        <pt x="518" y="608" on="1"/>
        <pt x="526" y="608" on="0"/>
        <pt x="526" y="599" on="1"/>
        <pt x="526" y="512" on="1"/>
        <pt x="526" y="504" on="0"/>
        <pt x="509" y="504" on="0"/>
      </contour>
      <contour>
        <pt x="341" y="694" on="1"/>
        <pt x="341" y="688" on="0"/>
        <pt x="335" y="688" on="1"/>
        <pt x="333" y="688" on="0"/>
        <pt x="330" y="691" on="1"/>
        <pt x="242" y="775" on="1"/>
        <pt x="239" y="778" on="0"/>
        <pt x="239" y="784" on="0"/>
        <pt x="245" y="791" on="0"/>
        <pt x="251" y="791" on="0"/>
        <pt x="255" y="786" on="1"/>
        <pt x="338" y="699" on="1"/>
        <pt x="341" y="696" on="0"/>
      </contour>
    </TTGlyph>
    <TTGlyph name="Eth" xMin="19" yMin="0" xMax="601" yMax="608">
      <contour>
        <pt x="304" y="0" on="1"/>
        <pt x="114" y="0" on="1"/>
        <pt x="106" y="0" on="0"/>
        <pt x="106" y="8" on="1"/>
        <pt x="106" y="307" on="1"/>
        <pt x="27" y="307" on="1"/>
        <pt x="19" y="307" on="0"/>
        <pt x="19" y="324" on="0"/>
        <pt x="27" y="324" on="1"/>
        <pt x="106" y="324" on="1"/>
        <pt x="106" y="591" on="1"/>
        <pt x="28" y="591" on="1"/>
        <pt x="19" y="591" on="0"/>
        <pt x="19" y="608" on="0"/>
        <pt x="28" y="608" on="1"/>
        <pt x="304" y="608" on="1"/>
        <pt x="439" y="608" on="0"/>
        <pt x="601" y="443" on="0"/>
        <pt x="601" y="163" on="0"/>
        <pt x="442" y="0" on="0"/>
      </contour>
      <contour>
        <pt x="123" y="324" on="1"/>
        <pt x="258" y="324" on="1"/>
        <pt x="266" y="324" on="0"/>
        <pt x="266" y="307" on="0"/>
        <pt x="258" y="307" on="1"/>
        <pt x="123" y="307" on="1"/>
        <pt x="123" y="17" on="1"/>
        <pt x="304" y="17" on="1"/>
        <pt x="436" y="17" on="0"/>
        <pt x="584" y="168" on="0"/>
        <pt x="584" y="437" on="0"/>
        <pt x="432" y="591" on="0"/>
        <pt x="304" y="591" on="1"/>
        <pt x="123" y="591" on="1"/>
      </contour>
    </TTGlyph>
    <TTGlyph name="Euro" xMin="42" yMin="-5" xMax="360" yMax="613">
      <contour>
        <pt x="333" y="243" on="1"/>
        <pt x="341" y="243" on="0"/>
        <pt x="341" y="226" on="0"/>
        <pt x="333" y="226" on="1"/>
        <pt x="117" y="226" on="1"/>
        <pt x="133" y="125" on="0"/>
        <pt x="250" y="12" on="0"/>
        <pt x="352" y="12" on="1"/>
        <pt x="360" y="12" on="0"/>
        <pt x="360" y="-5" on="0"/>
        <pt x="352" y="-5" on="1"/>
        <pt x="243" y="-5" on="0"/>
        <pt x="116" y="118" on="0"/>
        <pt x="99" y="226" on="1"/>
        <pt x="50" y="226" on="1"/>
        <pt x="42" y="226" on="0"/>
        <pt x="42" y="243" on="0"/>
        <pt x="50" y="243" on="1"/>
        <pt x="97" y="243" on="1"/>
        <pt x="94" y="272" on="0"/>
        <pt x="94" y="334" on="0"/>
        <pt x="97" y="364" on="1"/>
        <pt x="50" y="364" on="1"/>
        <pt x="42" y="364" on="0"/>
        <pt x="42" y="381" on="0"/>
        <pt x="50" y="381" on="1"/>
        <pt x="99" y="381" on="1"/>
        <pt x="115" y="489" on="0"/>
        <pt x="243" y="613" on="0"/>
        <pt x="352" y="613" on="1"/>
        <pt x="360" y="613" on="0"/>
        <pt x="360" y="596" on="0"/>
        <pt x="352" y="596" on="1"/>
        <pt x="250" y="596" on="0"/>
        <pt x="132" y="482" on="0"/>
        <pt x="116" y="381" on="1"/>
        <pt x="333" y="381" on="1"/>
        <pt x="341" y="381" on="0"/>
        <pt x="341" y="364" on="0"/>
        <pt x="333" y="364" on="1"/>
        <pt x="114" y="364" on="1"/>
        <pt x="111" y="336" on="0"/>
        <pt x="111" y="272" on="0"/>
        <pt x="114" y="243" on="1"/>
      </contour>
    </TTGlyph>
    <TTGlyph name="F" xMin="19" yMin="-5" xMax="497" yMax="608">
      <contour>
        <pt x="497" y="512" on="1"/>
        <pt x="497" y="504" on="0"/>
        <pt x="480" y="504" on="0"/>
        <pt x="480" y="512" on="1"/>
        <pt x="480" y="591" on="1"/>
        <pt x="123" y="591" on="1"/>
        <pt x="123" y="314" on="1"/>
        <pt x="429" y="314" on="1"/>
        <pt x="429" y="368" on="1"/>
        <pt x="429" y="377" on="0"/>
        <pt x="446" y="377" on="0"/>
        <pt x="446" y="368" on="1"/>
        <pt x="446" y="242" on="1"/>
        <pt x="446" y="233" on="0"/>
        <pt x="429" y="233" on="0"/>
        <pt x="429" y="242" on="1"/>
        <pt x="429" y="297" on="1"/>
        <pt x="123" y="297" on="1"/>
        <pt x="123" y="3" on="1"/>
        <pt x="123" y="-5" on="0"/>
        <pt x="106" y="-5" on="0"/>
        <pt x="106" y="3" on="1"/>
        <pt x="106" y="591" on="1"/>
        <pt x="28" y="591" on="1"/>
        <pt x="19" y="591" on="0"/>
        <pt x="19" y="608" on="0"/>
        <pt x="28" y="608" on="1"/>
        <pt x="489" y="608" on="1"/>
        <pt x="497" y="608" on="0"/>
        <pt x="497" y="599" on="1"/>
      </contour>
    </TTGlyph>
    <TTGlyph name="G" xMin="53" yMin="-5" xMax="565" yMax="613">
      <contour>
        <pt x="548" y="73" on="1"/>
        <pt x="465" y="-5" on="0"/>
        <pt x="212" y="-5" on="0"/>
        <pt x="53" y="169" on="0"/>
        <pt x="53" y="444" on="0"/>
        <pt x="217" y="613" on="0"/>
        <pt x="460" y="613" on="0"/>
        <pt x="545" y="565" on="1"/>
        <pt x="552" y="562" on="0"/>
        <pt x="552" y="557" on="1"/>
        <pt x="552" y="467" on="1"/>
        <pt x="552" y="458" on="0"/>
        <pt x="535" y="458" on="0"/>
        <pt x="535" y="467" on="1"/>
        <pt x="535" y="552" on="1"/>
        <pt x="453" y="596" on="0"/>
        <pt x="221" y="596" on="0"/>
        <pt x="70" y="435" on="0"/>
        <pt x="70" y="173" on="0"/>
        <pt x="221" y="12" on="0"/>
        <pt x="468" y="12" on="0"/>
        <pt x="548" y="94" on="1"/>
        <pt x="548" y="266" on="1"/>
        <pt x="375" y="266" on="1"/>
        <pt x="366" y="266" on="0"/>
        <pt x="366" y="283" on="0"/>
        <pt x="375" y="283" on="1"/>
        <pt x="557" y="283" on="1"/>
        <pt x="565" y="283" on="0"/>
        <pt x="565" y="275" on="1"/>
        <pt x="565" y="3" on="1"/>
        <pt x="565" y="-5" on="0"/>
        <pt x="548" y="-5" on="0"/>
        <pt x="548" y="3" on="1"/>
      </contour>
    </TTGlyph>
    <TTGlyph name="H" xMin="20" yMin="-5" xMax="653" yMax="608">
      <contour>
        <pt x="644" y="0" on="1"/>
        <pt x="610" y="0" on="1"/>
        <pt x="549" y="0" on="0"/>
        <pt x="549" y="49" on="1"/>
        <pt x="549" y="297" on="1"/>
        <pt x="123" y="297" on="1"/>
        <pt x="123" y="3" on="1"/>
        <pt x="123" y="-5" on="0"/>
        <pt x="106" y="-5" on="0"/>
        <pt x="106" y="3" on="1"/>
        <pt x="106" y="591" on="1"/>
        <pt x="28" y="591" on="1"/>
        <pt x="20" y="591" on="0"/>
        <pt x="20" y="608" on="0"/>
        <pt x="28" y="608" on="1"/>
        <pt x="115" y="608" on="1"/>
        <pt x="123" y="608" on="0"/>
        <pt x="123" y="599" on="1"/>
        <pt x="123" y="314" on="1"/>
        <pt x="549" y="314" on="1"/>
        <pt x="549" y="591" on="1"/>
        <pt x="471" y="591" on="1"/>
        <pt x="463" y="591" on="0"/>
        <pt x="463" y="608" on="0"/>
        <pt x="471" y="608" on="1"/>
        <pt x="558" y="608" on="1"/>
        <pt x="566" y="608" on="0"/>
        <pt x="566" y="599" on="1"/>
        <pt x="566" y="49" on="1"/>
        <pt x="566" y="17" on="0"/>
        <pt x="610" y="17" on="1"/>
        <pt x="644" y="17" on="1"/>
        <pt x="653" y="17" on="0"/>
        <pt x="653" y="0" on="0"/>
      </contour>
    </TTGlyph>
    <TTGlyph name="I" xMin="27" yMin="0" xMax="217" yMax="608">
      <contour>
        <pt x="209" y="0" on="1"/>
        <pt x="36" y="0" on="1"/>
        <pt x="27" y="0" on="0"/>
        <pt x="27" y="17" on="0"/>
        <pt x="36" y="17" on="1"/>
        <pt x="114" y="17" on="1"/>
        <pt x="114" y="591" on="1"/>
        <pt x="36" y="591" on="1"/>
        <pt x="27" y="591" on="0"/>
        <pt x="27" y="608" on="0"/>
        <pt x="36" y="608" on="1"/>
        <pt x="209" y="608" on="1"/>
        <pt x="217" y="608" on="0"/>
        <pt x="217" y="591" on="0"/>
        <pt x="209" y="591" on="1"/>
        <pt x="131" y="591" on="1"/>
        <pt x="131" y="17" on="1"/>
        <pt x="209" y="17" on="1"/>
        <pt x="217" y="17" on="0"/>
        <pt x="217" y="0" on="0"/>
      </contour>
    </TTGlyph>
    <TTGlyph name="Iacute" xMin="27" yMin="0" xMax="217" yMax="789">
      <contour>
        <pt x="209" y="0" on="1"/>
        <pt x="36" y="0" on="1"/>
        <pt x="27" y="0" on="0"/>
        <pt x="27" y="17" on="0"/>
        <pt x="36" y="17" on="1"/>
        <pt x="114" y="17" on="1"/>
        <pt x="114" y="591" on="1"/>
        <pt x="36" y="591" on="1"/>
        <pt x="27" y="591" on="0"/>
        <pt x="27" y="608" on="0"/>
        <pt x="36" y="608" on="1"/>
        <pt x="209" y="608" on="1"/>
        <pt x="217" y="608" on="0"/>
        <pt x="217" y="591" on="0"/>
        <pt x="209" y="591" on="1"/>
        <pt x="131" y="591" on="1"/>
        <pt x="131" y="17" on="1"/>
        <pt x="209" y="17" on="1"/>
        <pt x="217" y="17" on="0"/>
        <pt x="217" y="0" on="0"/>
      </contour>
      <contour>
        <pt x="86" y="688" on="1"/>
        <pt x="80" y="688" on="0"/>
        <pt x="80" y="694" on="1"/>
        <pt x="80" y="696" on="0"/>
        <pt x="83" y="699" on="1"/>
        <pt x="166" y="786" on="1"/>
        <pt x="168" y="789" on="0"/>
        <pt x="172" y="789" on="1"/>
        <pt x="182" y="789" on="0"/>
        <pt x="182" y="781" on="1"/>
        <pt x="182" y="778" on="0"/>
        <pt x="179" y="775" on="1"/>
        <pt x="91" y="691" on="1"/>
        <pt x="88" y="688" on="0"/>
      </contour>
    </TTGlyph>
    <TTGlyph name="Icircumflex" xMin="27" yMin="0" xMax="217" yMax="779">
      <contour>
        <pt x="209" y="0" on="1"/>
        <pt x="36" y="0" on="1"/>
        <pt x="27" y="0" on="0"/>
        <pt x="27" y="17" on="0"/>
        <pt x="36" y="17" on="1"/>
        <pt x="114" y="17" on="1"/>
        <pt x="114" y="591" on="1"/>
        <pt x="36" y="591" on="1"/>
        <pt x="27" y="591" on="0"/>
        <pt x="27" y="608" on="0"/>
        <pt x="36" y="608" on="1"/>
        <pt x="209" y="608" on="1"/>
        <pt x="217" y="608" on="0"/>
        <pt x="217" y="591" on="0"/>
        <pt x="209" y="591" on="1"/>
        <pt x="131" y="591" on="1"/>
        <pt x="131" y="17" on="1"/>
        <pt x="209" y="17" on="1"/>
        <pt x="217" y="17" on="0"/>
        <pt x="217" y="0" on="0"/>
      </contour>
      <contour>
        <pt x="57" y="689" on="1"/>
        <pt x="54" y="686" on="0"/>
        <pt x="46" y="686" on="0"/>
        <pt x="46" y="692" on="1"/>
        <pt x="46" y="694" on="0"/>
        <pt x="48" y="696" on="1"/>
        <pt x="113" y="775" on="1"/>
        <pt x="117" y="779" on="0"/>
        <pt x="125" y="779" on="0"/>
        <pt x="129" y="775" on="1"/>
        <pt x="194" y="696" on="1"/>
        <pt x="196" y="694" on="0"/>
        <pt x="196" y="692" on="1"/>
        <pt x="196" y="686" on="0"/>
        <pt x="188" y="686" on="0"/>
        <pt x="185" y="689" on="1"/>
        <pt x="121" y="758" on="1"/>
      </contour>
    </TTGlyph>
    <TTGlyph name="Idieresis" xMin="27" yMin="0" xMax="217" yMax="746">
      <contour>
        <pt x="209" y="0" on="1"/>
        <pt x="209" y="0" on="0"/>
        <pt x="36" y="0" on="1"/>
        <pt x="27" y="0" on="0"/>
        <pt x="27" y="17" on="0"/>
        <pt x="36" y="17" on="1"/>
        <pt x="114" y="17" on="1"/>
        <pt x="114" y="591" on="1"/>
        <pt x="36" y="591" on="1"/>
        <pt x="27" y="591" on="0"/>
        <pt x="27" y="608" on="0"/>
        <pt x="36" y="608" on="1"/>
        <pt x="209" y="608" on="1"/>
        <pt x="217" y="608" on="0"/>
        <pt x="217" y="591" on="0"/>
        <pt x="209" y="591" on="1"/>
        <pt x="131" y="591" on="1"/>
        <pt x="131" y="17" on="1"/>
        <pt x="209" y="17" on="1"/>
        <pt x="217" y="17" on="0"/>
        <pt x="217" y="0" on="0"/>
      </contour>
      <contour>
        <pt x="54" y="725" on="0"/>
        <pt x="54" y="737" on="0"/>
        <pt x="63" y="746" on="0"/>
        <pt x="75" y="746" on="0"/>
        <pt x="84" y="737" on="0"/>
        <pt x="84" y="725" on="0"/>
        <pt x="75" y="716" on="0"/>
        <pt x="63" y="716" on="0"/>
      </contour>
      <contour>
        <pt x="159" y="725" on="0"/>
        <pt x="159" y="737" on="0"/>
        <pt x="168" y="746" on="0"/>
        <pt x="180" y="746" on="0"/>
        <pt x="189" y="737" on="0"/>
        <pt x="189" y="725" on="0"/>
        <pt x="180" y="716" on="0"/>
        <pt x="168" y="716" on="0"/>
      </contour>
    </TTGlyph>
    <TTGlyph name="Igrave" xMin="27" yMin="0" xMax="217" yMax="791">
      <contour>
        <pt x="209" y="0" on="1"/>
        <pt x="209" y="0" on="0"/>
        <pt x="36" y="0" on="1"/>
        <pt x="27" y="0" on="0"/>
        <pt x="27" y="17" on="0"/>
        <pt x="36" y="17" on="1"/>
        <pt x="114" y="17" on="1"/>
        <pt x="114" y="591" on="1"/>
        <pt x="36" y="591" on="1"/>
        <pt x="27" y="591" on="0"/>
        <pt x="27" y="608" on="0"/>
        <pt x="36" y="608" on="1"/>
        <pt x="209" y="608" on="1"/>
        <pt x="217" y="608" on="0"/>
        <pt x="217" y="591" on="0"/>
        <pt x="209" y="591" on="1"/>
        <pt x="131" y="591" on="1"/>
        <pt x="131" y="17" on="1"/>
        <pt x="209" y="17" on="1"/>
        <pt x="217" y="17" on="0"/>
        <pt x="217" y="0" on="0"/>
      </contour>
      <contour>
        <pt x="165" y="694" on="1"/>
        <pt x="165" y="688" on="0"/>
        <pt x="159" y="688" on="1"/>
        <pt x="157" y="688" on="0"/>
        <pt x="154" y="691" on="1"/>
        <pt x="66" y="775" on="1"/>
        <pt x="63" y="778" on="0"/>
        <pt x="63" y="784" on="0"/>
        <pt x="69" y="791" on="0"/>
        <pt x="75" y="791" on="0"/>
        <pt x="79" y="786" on="1"/>
        <pt x="162" y="699" on="1"/>
        <pt x="165" y="696" on="0"/>
      </contour>
    </TTGlyph>
    <TTGlyph name="J" xMin="-5" yMin="-210" xMax="210" yMax="608">
      <contour>
        <pt x="-5" y="-210" on="0"/>
        <pt x="-5" y="-196" on="0"/>
        <pt x="1" y="-194" on="1"/>
        <pt x="63" y="-174" on="0"/>
        <pt x="106" y="-86" on="0"/>
        <pt x="106" y="-8" on="1"/>
        <pt x="106" y="591" on="1"/>
        <pt x="28" y="591" on="1"/>
        <pt x="20" y="591" on="0"/>
        <pt x="20" y="608" on="0"/>
        <pt x="28" y="608" on="1"/>
        <pt x="201" y="608" on="1"/>
        <pt x="210" y="608" on="0"/>
        <pt x="210" y="591" on="0"/>
        <pt x="201" y="591" on="1"/>
        <pt x="123" y="591" on="1"/>
        <pt x="123" y="-8" on="1"/>
        <pt x="123" y="-94" on="0"/>
        <pt x="75" y="-182" on="0"/>
        <pt x="18" y="-206" on="1"/>
        <pt x="10" y="-210" on="0"/>
      </contour>
    </TTGlyph>
    <TTGlyph name="K" xMin="20" yMin="-5" xMax="572" yMax="608">
      <contour>
        <pt x="564" y="591" on="1"/>
        <pt x="503" y="591" on="1"/>
        <pt x="284" y="335" on="1"/>
        <pt x="541" y="9" on="1"/>
        <pt x="546" y="2" on="0"/>
        <pt x="537" y="-5" on="0"/>
        <pt x="530" y="-5" on="0"/>
        <pt x="527" y="-2" on="1"/>
        <pt x="272" y="321" on="1"/>
        <pt x="123" y="147" on="1"/>
        <pt x="123" y="3" on="1"/>
        <pt x="123" y="-5" on="0"/>
        <pt x="106" y="-5" on="0"/>
        <pt x="106" y="3" on="1"/>
        <pt x="106" y="591" on="1"/>
        <pt x="28" y="591" on="1"/>
        <pt x="20" y="591" on="0"/>
        <pt x="20" y="608" on="0"/>
        <pt x="28" y="608" on="1"/>
        <pt x="115" y="608" on="1"/>
        <pt x="123" y="608" on="0"/>
        <pt x="123" y="599" on="1"/>
        <pt x="123" y="172" on="1"/>
        <pt x="481" y="591" on="1"/>
        <pt x="421" y="591" on="1"/>
        <pt x="412" y="591" on="0"/>
        <pt x="412" y="608" on="0"/>
        <pt x="421" y="608" on="1"/>
        <pt x="564" y="608" on="1"/>
        <pt x="572" y="608" on="0"/>
        <pt x="572" y="591" on="0"/>
      </contour>
    </TTGlyph>
    <TTGlyph name="L" xMin="20" yMin="0" xMax="519" yMax="608">
      <contour>
        <pt x="510" y="0" on="1"/>
        <pt x="116" y="0" on="1"/>
        <pt x="107" y="0" on="0"/>
        <pt x="107" y="9" on="1"/>
        <pt x="107" y="591" on="1"/>
        <pt x="29" y="591" on="1"/>
        <pt x="20" y="591" on="0"/>
        <pt x="20" y="608" on="0"/>
        <pt x="29" y="608" on="1"/>
        <pt x="202" y="608" on="1"/>
        <pt x="210" y="608" on="0"/>
        <pt x="210" y="591" on="0"/>
        <pt x="202" y="591" on="1"/>
        <pt x="124" y="591" on="1"/>
        <pt x="124" y="17" on="1"/>
        <pt x="502" y="17" on="1"/>
        <pt x="502" y="95" on="1"/>
        <pt x="502" y="104" on="0"/>
        <pt x="519" y="104" on="0"/>
        <pt x="519" y="95" on="1"/>
        <pt x="519" y="8" on="1"/>
        <pt x="519" y="0" on="0"/>
      </contour>
    </TTGlyph>
    <TTGlyph name="Lslash" xMin="13" yMin="0" xMax="519" yMax="608">
      <contour>
        <pt x="510" y="0" on="1"/>
        <pt x="116" y="0" on="1"/>
        <pt x="107" y="0" on="0"/>
        <pt x="107" y="9" on="1"/>
        <pt x="107" y="252" on="1"/>
        <pt x="26" y="206" on="1"/>
        <pt x="19" y="203" on="0"/>
        <pt x="14" y="212" on="0"/>
        <pt x="14" y="218" on="0"/>
        <pt x="18" y="221" on="1"/>
        <pt x="107" y="272" on="1"/>
        <pt x="107" y="591" on="1"/>
        <pt x="29" y="591" on="1"/>
        <pt x="20" y="591" on="0"/>
        <pt x="20" y="608" on="0"/>
        <pt x="29" y="608" on="1"/>
        <pt x="202" y="608" on="1"/>
        <pt x="210" y="608" on="0"/>
        <pt x="210" y="591" on="0"/>
        <pt x="202" y="591" on="1"/>
        <pt x="124" y="591" on="1"/>
        <pt x="124" y="282" on="1"/>
        <pt x="226" y="341" on="1"/>
        <pt x="233" y="345" on="0"/>
        <pt x="241" y="330" on="0"/>
        <pt x="234" y="326" on="1"/>
        <pt x="124" y="262" on="1"/>
        <pt x="124" y="17" on="1"/>
        <pt x="502" y="17" on="1"/>
        <pt x="502" y="95" on="1"/>
        <pt x="502" y="104" on="0"/>
        <pt x="519" y="104" on="0"/>
        <pt x="519" y="95" on="1"/>
        <pt x="519" y="8" on="1"/>
        <pt x="519" y="0" on="0"/>
      </contour>
    </TTGlyph>
    <TTGlyph name="M" xMin="19" yMin="-5" xMax="785" yMax="608">
      <contour>
        <pt x="776" y="0" on="1"/>
        <pt x="742" y="0" on="1"/>
        <pt x="681" y="0" on="0"/>
        <pt x="681" y="49" on="1"/>
        <pt x="681" y="572" on="1"/>
        <pt x="409" y="200" on="1"/>
        <pt x="406" y="197" on="0"/>
        <pt x="398" y="197" on="0"/>
        <pt x="395" y="200" on="1"/>
        <pt x="123" y="572" on="1"/>
        <pt x="123" y="3" on="1"/>
        <pt x="123" y="-5" on="0"/>
        <pt x="106" y="-5" on="0"/>
        <pt x="106" y="3" on="1"/>
        <pt x="106" y="591" on="1"/>
        <pt x="28" y="591" on="1"/>
        <pt x="19" y="591" on="0"/>
        <pt x="19" y="608" on="0"/>
        <pt x="28" y="608" on="1"/>
        <pt x="111" y="608" on="1"/>
        <pt x="118" y="608" on="0"/>
        <pt x="122" y="602" on="1"/>
        <pt x="402" y="219" on="1"/>
        <pt x="681" y="601" on="1"/>
        <pt x="686" y="608" on="0"/>
        <pt x="692" y="608" on="1"/>
        <pt x="776" y="608" on="1"/>
        <pt x="785" y="608" on="0"/>
        <pt x="785" y="591" on="0"/>
        <pt x="776" y="591" on="1"/>
        <pt x="698" y="591" on="1"/>
        <pt x="698" y="49" on="1"/>
        <pt x="698" y="17" on="0"/>
        <pt x="742" y="17" on="1"/>
        <pt x="776" y="17" on="1"/>
        <pt x="785" y="17" on="0"/>
        <pt x="785" y="0" on="0"/>
      </contour>
    </TTGlyph>
    <TTGlyph name="N" xMin="19" yMin="-5" xMax="673" yMax="608">
      <contour>
        <pt x="665" y="591" on="1"/>
        <pt x="587" y="591" on="1"/>
        <pt x="587" y="3" on="1"/>
        <pt x="587" y="-5" on="0"/>
        <pt x="579" y="-5" on="1"/>
        <pt x="574" y="-5" on="0"/>
        <pt x="570" y="0" on="1"/>
        <pt x="123" y="573" on="1"/>
        <pt x="123" y="3" on="1"/>
        <pt x="123" y="-5" on="0"/>
        <pt x="106" y="-5" on="0"/>
        <pt x="106" y="3" on="1"/>
        <pt x="106" y="591" on="1"/>
        <pt x="28" y="591" on="1"/>
        <pt x="19" y="591" on="0"/>
        <pt x="19" y="608" on="0"/>
        <pt x="28" y="608" on="1"/>
        <pt x="111" y="608" on="1"/>
        <pt x="117" y="608" on="0"/>
        <pt x="121" y="603" on="1"/>
        <pt x="570" y="28" on="1"/>
        <pt x="570" y="591" on="1"/>
        <pt x="492" y="591" on="1"/>
        <pt x="483" y="591" on="0"/>
        <pt x="483" y="608" on="0"/>
        <pt x="492" y="608" on="1"/>
        <pt x="665" y="608" on="1"/>
        <pt x="673" y="608" on="0"/>
        <pt x="673" y="591" on="0"/>
      </contour>
    </TTGlyph>
    <TTGlyph name="Ntilde" xMin="19" yMin="-5" xMax="673" yMax="752">
      <contour>
        <pt x="665" y="591" on="1"/>
        <pt x="587" y="591" on="1"/>
        <pt x="587" y="3" on="1"/>
        <pt x="587" y="-5" on="0"/>
        <pt x="579" y="-5" on="1"/>
        <pt x="574" y="-5" on="0"/>
        <pt x="570" y="0" on="1"/>
        <pt x="123" y="573" on="1"/>
        <pt x="123" y="3" on="1"/>
        <pt x="123" y="-5" on="0"/>
        <pt x="106" y="-5" on="0"/>
        <pt x="106" y="3" on="1"/>
        <pt x="106" y="591" on="1"/>
        <pt x="28" y="591" on="1"/>
        <pt x="19" y="591" on="0"/>
        <pt x="19" y="608" on="0"/>
        <pt x="28" y="608" on="1"/>
        <pt x="111" y="608" on="1"/>
        <pt x="117" y="608" on="0"/>
        <pt x="121" y="603" on="1"/>
        <pt x="570" y="28" on="1"/>
        <pt x="570" y="591" on="1"/>
        <pt x="492" y="591" on="1"/>
        <pt x="483" y="591" on="0"/>
        <pt x="483" y="608" on="0"/>
        <pt x="492" y="608" on="1"/>
        <pt x="665" y="608" on="1"/>
        <pt x="673" y="608" on="0"/>
        <pt x="673" y="591" on="0"/>
      </contour>
      <contour>
        <pt x="265" y="736" on="0"/>
        <pt x="246" y="712" on="0"/>
        <pt x="246" y="689" on="0"/>
        <pt x="231" y="689" on="0"/>
        <pt x="231" y="696" on="1"/>
        <pt x="231" y="721" on="0"/>
        <pt x="261" y="752" on="0"/>
        <pt x="316" y="752" on="0"/>
        <pt x="390" y="704" on="0"/>
        <pt x="433" y="704" on="0"/>
        <pt x="452" y="728" on="0"/>
        <pt x="452" y="752" on="0"/>
        <pt x="467" y="752" on="0"/>
        <pt x="467" y="744" on="1"/>
        <pt x="467" y="720" on="0"/>
        <pt x="437" y="689" on="0"/>
        <pt x="386" y="689" on="0"/>
        <pt x="310" y="736" on="0"/>
      </contour>
    </TTGlyph>
    <TTGlyph name="O" xMin="52" yMin="-5" xMax="648" yMax="613">
      <contour>
        <pt x="52" y="168" on="0"/>
        <pt x="52" y="440" on="0"/>
        <pt x="218" y="613" on="0"/>
        <pt x="482" y="613" on="0"/>
        <pt x="648" y="440" on="0"/>
        <pt x="648" y="168" on="0"/>
        <pt x="482" y="-5" on="0"/>
        <pt x="218" y="-5" on="0"/>
      </contour>
      <contour>
        <pt x="69" y="433" on="0"/>
        <pt x="69" y="175" on="0"/>
        <pt x="225" y="12" on="0"/>
        <pt x="475" y="12" on="0"/>
        <pt x="631" y="175" on="0"/>
        <pt x="631" y="433" on="0"/>
        <pt x="475" y="596" on="0"/>
        <pt x="225" y="596" on="0"/>
      </contour>
    </TTGlyph>
    <TTGlyph name="OE" xMin="54" yMin="0" xMax="909" yMax="608">
      <contour>
        <pt x="213" y="0" on="0"/>
        <pt x="54" y="163" on="0"/>
        <pt x="54" y="443" on="0"/>
        <pt x="216" y="608" on="0"/>
        <pt x="351" y="608" on="1"/>
        <pt x="901" y="608" on="1"/>
        <pt x="909" y="608" on="0"/>
        <pt x="909" y="599" on="1"/>
        <pt x="909" y="512" on="1"/>
        <pt x="909" y="504" on="0"/>
        <pt x="892" y="504" on="0"/>
        <pt x="892" y="512" on="1"/>
        <pt x="892" y="591" on="1"/>
        <pt x="507" y="591" on="1"/>
        <pt x="507" y="314" on="1"/>
        <pt x="842" y="314" on="1"/>
        <pt x="842" y="368" on="1"/>
        <pt x="842" y="377" on="0"/>
        <pt x="859" y="377" on="0"/>
        <pt x="859" y="368" on="1"/>
        <pt x="859" y="242" on="1"/>
        <pt x="859" y="233" on="0"/>
        <pt x="842" y="233" on="0"/>
        <pt x="842" y="242" on="1"/>
        <pt x="842" y="297" on="1"/>
        <pt x="507" y="297" on="1"/>
        <pt x="507" y="17" on="1"/>
        <pt x="901" y="17" on="1"/>
        <pt x="909" y="17" on="0"/>
        <pt x="909" y="0" on="0"/>
        <pt x="901" y="0" on="1"/>
        <pt x="351" y="0" on="1"/>
      </contour>
      <contour>
        <pt x="490" y="17" on="1"/>
        <pt x="490" y="591" on="1"/>
        <pt x="351" y="591" on="1"/>
        <pt x="223" y="591" on="0"/>
        <pt x="71" y="437" on="0"/>
        <pt x="71" y="168" on="0"/>
        <pt x="219" y="17" on="0"/>
        <pt x="351" y="17" on="1"/>
      </contour>
    </TTGlyph>
    <TTGlyph name="Oacute" xMin="52" yMin="-5" xMax="648" yMax="789">
      <contour>
        <pt x="52" y="168" on="0"/>
        <pt x="52" y="440" on="0"/>
        <pt x="218" y="613" on="0"/>
        <pt x="482" y="613" on="0"/>
        <pt x="648" y="440" on="0"/>
        <pt x="648" y="168" on="0"/>
        <pt x="482" y="-5" on="0"/>
        <pt x="218" y="-5" on="0"/>
      </contour>
      <contour>
        <pt x="69" y="433" on="0"/>
        <pt x="69" y="175" on="0"/>
        <pt x="225" y="12" on="0"/>
        <pt x="475" y="12" on="0"/>
        <pt x="631" y="175" on="0"/>
        <pt x="631" y="433" on="0"/>
        <pt x="475" y="596" on="0"/>
        <pt x="225" y="596" on="0"/>
      </contour>
      <contour>
        <pt x="311" y="688" on="1"/>
        <pt x="305" y="688" on="0"/>
        <pt x="305" y="694" on="1"/>
        <pt x="305" y="696" on="0"/>
        <pt x="308" y="699" on="1"/>
        <pt x="391" y="786" on="1"/>
        <pt x="393" y="789" on="0"/>
        <pt x="398" y="789" on="1"/>
        <pt x="407" y="789" on="0"/>
        <pt x="407" y="781" on="1"/>
        <pt x="407" y="778" on="0"/>
        <pt x="404" y="775" on="1"/>
        <pt x="316" y="691" on="1"/>
        <pt x="313" y="688" on="0"/>
      </contour>
    </TTGlyph>
    <TTGlyph name="Ocircumflex" xMin="52" yMin="-5" xMax="648" yMax="779">
      <contour>
        <pt x="52" y="168" on="0"/>
        <pt x="52" y="440" on="0"/>
        <pt x="218" y="613" on="0"/>
        <pt x="482" y="613" on="0"/>
        <pt x="648" y="440" on="0"/>
        <pt x="648" y="168" on="0"/>
        <pt x="482" y="-5" on="0"/>
        <pt x="218" y="-5" on="0"/>
      </contour>
      <contour>
        <pt x="69" y="433" on="0"/>
        <pt x="69" y="175" on="0"/>
        <pt x="225" y="12" on="0"/>
        <pt x="475" y="12" on="0"/>
        <pt x="631" y="175" on="0"/>
        <pt x="631" y="433" on="0"/>
        <pt x="475" y="596" on="0"/>
        <pt x="225" y="596" on="0"/>
      </contour>
      <contour>
        <pt x="289" y="689" on="1"/>
        <pt x="286" y="686" on="0"/>
        <pt x="278" y="686" on="0"/>
        <pt x="278" y="692" on="1"/>
        <pt x="278" y="694" on="0"/>
        <pt x="280" y="696" on="1"/>
        <pt x="345" y="775" on="1"/>
        <pt x="349" y="779" on="0"/>
        <pt x="357" y="779" on="0"/>
        <pt x="361" y="775" on="1"/>
        <pt x="426" y="696" on="1"/>
        <pt x="428" y="694" on="0"/>
        <pt x="428" y="692" on="1"/>
        <pt x="428" y="686" on="0"/>
        <pt x="420" y="686" on="0"/>
        <pt x="417" y="689" on="1"/>
        <pt x="353" y="758" on="1"/>
      </contour>
    </TTGlyph>
    <TTGlyph name="Odieresis" xMin="52" yMin="-5" xMax="648" yMax="746">
      <contour>
        <pt x="52" y="168" on="0"/>
        <pt x="52" y="440" on="0"/>
        <pt x="218" y="613" on="0"/>
        <pt x="482" y="613" on="0"/>
        <pt x="648" y="440" on="0"/>
        <pt x="648" y="168" on="0"/>
        <pt x="482" y="-5" on="0"/>
        <pt x="218" y="-5" on="0"/>
      </contour>
      <contour>
        <pt x="69" y="433" on="0"/>
        <pt x="69" y="175" on="0"/>
        <pt x="225" y="12" on="0"/>
        <pt x="475" y="12" on="0"/>
        <pt x="631" y="175" on="0"/>
        <pt x="631" y="433" on="0"/>
        <pt x="475" y="596" on="0"/>
        <pt x="225" y="596" on="0"/>
      </contour>
      <contour>
        <pt x="286" y="725" on="0"/>
        <pt x="286" y="737" on="0"/>
        <pt x="295" y="746" on="0"/>
        <pt x="307" y="746" on="0"/>
        <pt x="316" y="737" on="0"/>
        <pt x="316" y="725" on="0"/>
        <pt x="307" y="716" on="0"/>
        <pt x="295" y="716" on="0"/>
      </contour>
      <contour>
        <pt x="391" y="725" on="0"/>
        <pt x="391" y="737" on="0"/>
        <pt x="400" y="746" on="0"/>
        <pt x="412" y="746" on="0"/>
        <pt x="421" y="737" on="0"/>
        <pt x="421" y="725" on="0"/>
        <pt x="412" y="716" on="0"/>
        <pt x="400" y="716" on="0"/>
      </contour>
    </TTGlyph>
    <TTGlyph name="Ograve" xMin="52" yMin="-5" xMax="648" yMax="791">
      <contour>
        <pt x="52" y="168" on="0"/>
        <pt x="52" y="440" on="0"/>
        <pt x="218" y="613" on="0"/>
        <pt x="482" y="613" on="0"/>
        <pt x="648" y="440" on="0"/>
        <pt x="648" y="168" on="0"/>
        <pt x="482" y="-5" on="0"/>
        <pt x="218" y="-5" on="0"/>
      </contour>
      <contour>
        <pt x="69" y="433" on="0"/>
        <pt x="69" y="175" on="0"/>
        <pt x="225" y="12" on="0"/>
        <pt x="475" y="12" on="0"/>
        <pt x="631" y="175" on="0"/>
        <pt x="631" y="433" on="0"/>
        <pt x="475" y="596" on="0"/>
        <pt x="225" y="596" on="0"/>
      </contour>
      <contour>
        <pt x="393" y="694" on="1"/>
        <pt x="393" y="688" on="0"/>
        <pt x="387" y="688" on="1"/>
        <pt x="385" y="688" on="0"/>
        <pt x="382" y="691" on="1"/>
        <pt x="294" y="775" on="1"/>
        <pt x="291" y="778" on="0"/>
        <pt x="291" y="784" on="0"/>
        <pt x="297" y="791" on="0"/>
        <pt x="303" y="791" on="0"/>
        <pt x="307" y="786" on="1"/>
        <pt x="390" y="699" on="1"/>
        <pt x="393" y="696" on="0"/>
      </contour>
    </TTGlyph>
    <TTGlyph name="Oslash" xMin="52" yMin="-5" xMax="648" yMax="613">
      <contour>
        <pt x="52" y="304" on="1"/>
        <pt x="52" y="440" on="0"/>
        <pt x="218" y="613" on="0"/>
        <pt x="350" y="613" on="1"/>
        <pt x="446" y="613" on="0"/>
        <pt x="520" y="564" on="1"/>
        <pt x="550" y="607" on="1"/>
        <pt x="556" y="614" on="0"/>
        <pt x="570" y="605" on="0"/>
        <pt x="565" y="598" on="1"/>
        <pt x="534" y="554" on="1"/>
        <pt x="648" y="466" on="0"/>
        <pt x="648" y="304" on="1"/>
        <pt x="648" y="168" on="0"/>
        <pt x="482" y="-5" on="0"/>
        <pt x="350" y="-5" on="1"/>
        <pt x="251" y="-5" on="0"/>
        <pt x="179" y="44" on="1"/>
        <pt x="151" y="3" on="1"/>
        <pt x="144" y="-6" on="0"/>
        <pt x="130" y="4" on="0"/>
        <pt x="136" y="12" on="1"/>
        <pt x="165" y="54" on="1"/>
        <pt x="52" y="142" on="0"/>
      </contour>
      <contour>
        <pt x="631" y="304" on="1"/>
        <pt x="631" y="457" on="0"/>
        <pt x="524" y="540" on="1"/>
        <pt x="189" y="58" on="1"/>
        <pt x="256" y="12" on="0"/>
        <pt x="350" y="12" on="1"/>
        <pt x="475" y="12" on="0"/>
        <pt x="631" y="175" on="0"/>
      </contour>
      <contour>
        <pt x="69" y="304" on="1"/>
        <pt x="69" y="150" on="0"/>
        <pt x="175" y="68" on="1"/>
        <pt x="510" y="550" on="1"/>
        <pt x="440" y="596" on="0"/>
        <pt x="350" y="596" on="1"/>
        <pt x="225" y="596" on="0"/>
        <pt x="69" y="433" on="0"/>
      </contour>
    </TTGlyph>
    <TTGlyph name="Otilde" xMin="52" yMin="-5" xMax="648" yMax="613">
      <contour>
        <pt x="52" y="168" on="0"/>
        <pt x="52" y="440" on="0"/>
        <pt x="218" y="613" on="0"/>
        <pt x="482" y="613" on="0"/>
        <pt x="648" y="440" on="0"/>
        <pt x="648" y="168" on="0"/>
        <pt x="482" y="-5" on="0"/>
        <pt x="218" y="-5" on="0"/>
      </contour>
      <contour>
        <pt x="69" y="433" on="0"/>
        <pt x="69" y="175" on="0"/>
        <pt x="225" y="12" on="0"/>
        <pt x="475" y="12" on="0"/>
        <pt x="631" y="175" on="0"/>
        <pt x="631" y="433" on="0"/>
        <pt x="475" y="596" on="0"/>
        <pt x="225" y="596" on="0"/>
      </contour>
    </TTGlyph>
    <TTGlyph name="P" xMin="20" yMin="-5" xMax="564" yMax="608">
      <contour>
        <pt x="123" y="3" on="1"/>
        <pt x="123" y="-5" on="0"/>
        <pt x="106" y="-5" on="0"/>
        <pt x="106" y="3" on="1"/>
        <pt x="106" y="591" on="1"/>
        <pt x="28" y="591" on="1"/>
        <pt x="20" y="591" on="0"/>
        <pt x="20" y="608" on="0"/>
        <pt x="28" y="608" on="1"/>
        <pt x="354" y="608" on="1"/>
        <pt x="564" y="608" on="0"/>
        <pt x="564" y="226" on="0"/>
        <pt x="354" y="226" on="1"/>
        <pt x="123" y="226" on="1"/>
      </contour>
      <contour>
        <pt x="123" y="591" on="1"/>
        <pt x="123" y="243" on="1"/>
        <pt x="354" y="243" on="1"/>
        <pt x="547" y="243" on="0"/>
        <pt x="547" y="591" on="0"/>
        <pt x="354" y="591" on="1"/>
      </contour>
    </TTGlyph>
    <TTGlyph name="Q" xMin="52" yMin="-109" xMax="648" yMax="613">
      <contour>
        <pt x="52" y="168" on="0"/>
        <pt x="52" y="440" on="0"/>
        <pt x="218" y="613" on="0"/>
        <pt x="482" y="613" on="0"/>
        <pt x="648" y="440" on="0"/>
        <pt x="648" y="304" on="1"/>
        <pt x="648" y="215" on="0"/>
        <pt x="573" y="75" on="0"/>
        <pt x="507" y="36" on="1"/>
        <pt x="620" y="-94" on="1"/>
        <pt x="625" y="-101" on="0"/>
        <pt x="617" y="-109" on="0"/>
        <pt x="614" y="-109" on="1"/>
        <pt x="608" y="-106" on="1"/>
        <pt x="491" y="27" on="1"/>
        <pt x="429" y="-5" on="0"/>
        <pt x="350" y="-5" on="1"/>
        <pt x="218" y="-5" on="0"/>
      </contour>
      <contour>
        <pt x="69" y="433" on="0"/>
        <pt x="69" y="175" on="0"/>
        <pt x="225" y="12" on="0"/>
        <pt x="350" y="12" on="1"/>
        <pt x="421" y="12" on="0"/>
        <pt x="480" y="40" on="1"/>
        <pt x="345" y="195" on="1"/>
        <pt x="339" y="201" on="0"/>
        <pt x="352" y="212" on="0"/>
        <pt x="358" y="206" on="1"/>
        <pt x="495" y="49" on="1"/>
        <pt x="559" y="85" on="0"/>
        <pt x="631" y="219" on="0"/>
        <pt x="631" y="304" on="1"/>
        <pt x="631" y="433" on="0"/>
        <pt x="475" y="596" on="0"/>
        <pt x="225" y="596" on="0"/>
      </contour>
    </TTGlyph>
    <TTGlyph name="R" xMin="19" yMin="-5" xMax="577" yMax="608">
      <contour>
        <pt x="576" y="3" on="1"/>
        <pt x="576" y="-5" on="0"/>
        <pt x="568" y="-5" on="1"/>
        <pt x="563" y="-5" on="0"/>
        <pt x="560" y="-1" on="1"/>
        <pt x="413" y="249" on="1"/>
        <pt x="388" y="245" on="0"/>
        <pt x="353" y="245" on="1"/>
        <pt x="123" y="245" on="1"/>
        <pt x="123" y="3" on="1"/>
        <pt x="123" y="-5" on="0"/>
        <pt x="106" y="-5" on="0"/>
        <pt x="106" y="3" on="1"/>
        <pt x="106" y="591" on="1"/>
        <pt x="28" y="591" on="1"/>
        <pt x="19" y="591" on="0"/>
        <pt x="19" y="608" on="0"/>
        <pt x="28" y="608" on="1"/>
        <pt x="353" y="608" on="1"/>
        <pt x="564" y="608" on="0"/>
        <pt x="564" y="427" on="1"/>
        <pt x="564" y="283" on="0"/>
        <pt x="431" y="253" on="1"/>
        <pt x="575" y="8" on="1"/>
        <pt x="576" y="5" on="0"/>
      </contour>
      <contour>
        <pt x="353" y="262" on="1"/>
        <pt x="547" y="262" on="0"/>
        <pt x="547" y="591" on="0"/>
        <pt x="353" y="591" on="1"/>
        <pt x="123" y="591" on="1"/>
        <pt x="123" y="262" on="1"/>
      </contour>
    </TTGlyph>
    <TTGlyph name="S" xMin="53" yMin="-5" xMax="524" yMax="613">
      <contour>
        <pt x="277" y="-5" on="1"/>
        <pt x="221" y="-5" on="0"/>
        <pt x="91" y="20" on="0"/>
        <pt x="57" y="41" on="1"/>
        <pt x="53" y="43" on="0"/>
        <pt x="53" y="48" on="1"/>
        <pt x="53" y="134" on="1"/>
        <pt x="53" y="143" on="0"/>
        <pt x="70" y="143" on="0"/>
        <pt x="70" y="134" on="1"/>
        <pt x="70" y="53" on="1"/>
        <pt x="104" y="34" on="0"/>
        <pt x="224" y="12" on="0"/>
        <pt x="277" y="12" on="1"/>
        <pt x="387" y="12" on="0"/>
        <pt x="507" y="86" on="0"/>
        <pt x="507" y="155" on="1"/>
        <pt x="507" y="215" on="0"/>
        <pt x="466" y="250" on="1"/>
        <pt x="419" y="289" on="0"/>
        <pt x="283" y="314" on="1"/>
        <pt x="178" y="335" on="0"/>
        <pt x="95" y="379" on="0"/>
        <pt x="66" y="430" on="0"/>
        <pt x="66" y="466" on="1"/>
        <pt x="66" y="541" on="0"/>
        <pt x="177" y="613" on="0"/>
        <pt x="415" y="613" on="0"/>
        <pt x="497" y="568" on="1"/>
        <pt x="503" y="565" on="0"/>
        <pt x="503" y="560" on="1"/>
        <pt x="503" y="474" on="1"/>
        <pt x="503" y="465" on="0"/>
        <pt x="486" y="465" on="0"/>
        <pt x="486" y="474" on="1"/>
        <pt x="486" y="555" on="1"/>
        <pt x="454" y="573" on="0"/>
        <pt x="344" y="596" on="0"/>
        <pt x="291" y="596" on="1"/>
        <pt x="184" y="596" on="0"/>
        <pt x="83" y="533" on="0"/>
        <pt x="83" y="466" on="1"/>
        <pt x="83" y="417" on="0"/>
        <pt x="123" y="386" on="1"/>
        <pt x="155" y="361" on="0"/>
        <pt x="224" y="345" on="1"/>
        <pt x="246" y="340" on="0"/>
        <pt x="324" y="323" on="0"/>
        <pt x="366" y="313" on="0"/>
        <pt x="431" y="293" on="0"/>
        <pt x="468" y="269" on="0"/>
        <pt x="488" y="252" on="1"/>
        <pt x="524" y="219" on="0"/>
        <pt x="524" y="80" on="0"/>
        <pt x="397" y="-5" on="0"/>
      </contour>
    </TTGlyph>
    <TTGlyph name="Scaron" xMin="53" yMin="-5" xMax="524" yMax="780">
      <contour>
        <pt x="277" y="-5" on="1"/>
        <pt x="221" y="-5" on="0"/>
        <pt x="91" y="20" on="0"/>
        <pt x="57" y="41" on="1"/>
        <pt x="53" y="43" on="0"/>
        <pt x="53" y="48" on="1"/>
        <pt x="53" y="134" on="1"/>
        <pt x="53" y="143" on="0"/>
        <pt x="70" y="143" on="0"/>
        <pt x="70" y="134" on="1"/>
        <pt x="70" y="53" on="1"/>
        <pt x="104" y="34" on="0"/>
        <pt x="224" y="12" on="0"/>
        <pt x="277" y="12" on="1"/>
        <pt x="387" y="12" on="0"/>
        <pt x="507" y="86" on="0"/>
        <pt x="507" y="215" on="0"/>
        <pt x="466" y="250" on="1"/>
        <pt x="447" y="265" on="0"/>
        <pt x="385" y="291" on="0"/>
        <pt x="326" y="306" on="0"/>
        <pt x="178" y="335" on="0"/>
        <pt x="127" y="362" on="1"/>
        <pt x="66" y="394" on="0"/>
        <pt x="66" y="466" on="1"/>
        <pt x="66" y="541" on="0"/>
        <pt x="177" y="613" on="0"/>
        <pt x="415" y="613" on="0"/>
        <pt x="497" y="568" on="1"/>
        <pt x="503" y="565" on="0"/>
        <pt x="503" y="560" on="1"/>
        <pt x="503" y="474" on="1"/>
        <pt x="503" y="465" on="0"/>
        <pt x="486" y="465" on="0"/>
        <pt x="486" y="474" on="1"/>
        <pt x="486" y="555" on="1"/>
        <pt x="454" y="573" on="0"/>
        <pt x="344" y="596" on="0"/>
        <pt x="291" y="596" on="1"/>
        <pt x="184" y="596" on="0"/>
        <pt x="83" y="533" on="0"/>
        <pt x="83" y="466" on="1"/>
        <pt x="83" y="417" on="0"/>
        <pt x="123" y="386" on="1"/>
        <pt x="139" y="373" on="0"/>
        <pt x="202" y="350" on="0"/>
        <pt x="246" y="340" on="0"/>
        <pt x="356" y="316" on="0"/>
        <pt x="398" y="303" on="1"/>
        <pt x="431" y="293" on="0"/>
        <pt x="468" y="269" on="0"/>
        <pt x="488" y="252" on="1"/>
        <pt x="524" y="219" on="0"/>
        <pt x="524" y="155" on="1"/>
        <pt x="524" y="80" on="0"/>
        <pt x="397" y="-5" on="0"/>
      </contour>
      <contour>
        <pt x="363" y="776" on="1"/>
        <pt x="366" y="779" on="0"/>
        <pt x="374" y="779" on="0"/>
        <pt x="374" y="774" on="1"/>
        <pt x="374" y="771" on="0"/>
        <pt x="372" y="769" on="1"/>
        <pt x="307" y="690" on="1"/>
        <pt x="303" y="686" on="0"/>
        <pt x="295" y="686" on="0"/>
        <pt x="291" y="690" on="1"/>
        <pt x="226" y="769" on="1"/>
        <pt x="224" y="771" on="0"/>
        <pt x="224" y="774" on="1"/>
        <pt x="224" y="779" on="0"/>
        <pt x="232" y="779" on="0"/>
        <pt x="235" y="776" on="1"/>
        <pt x="299" y="707" on="1"/>
      </contour>
    </TTGlyph>
    <TTGlyph name="T" xMin="18" yMin="-5" xMax="587" yMax="608">
      <contour>
        <pt x="587" y="512" on="1"/>
        <pt x="587" y="504" on="0"/>
        <pt x="570" y="504" on="0"/>
        <pt x="570" y="512" on="1"/>
        <pt x="570" y="591" on="1"/>
        <pt x="311" y="591" on="1"/>
        <pt x="311" y="3" on="1"/>
        <pt x="311" y="-5" on="0"/>
        <pt x="294" y="-5" on="0"/>
        <pt x="294" y="3" on="1"/>
        <pt x="294" y="591" on="1"/>
        <pt x="35" y="591" on="1"/>
        <pt x="35" y="512" on="1"/>
        <pt x="35" y="504" on="0"/>
        <pt x="18" y="504" on="0"/>
        <pt x="18" y="512" on="1"/>
        <pt x="18" y="599" on="1"/>
        <pt x="18" y="608" on="0"/>
        <pt x="26" y="608" on="1"/>
        <pt x="578" y="608" on="1"/>
        <pt x="587" y="608" on="0"/>
        <pt x="587" y="599" on="1"/>
      </contour>
    </TTGlyph>
    <TTGlyph name="Thorn" xMin="98" yMin="-5" xMax="556" yMax="613">
      <contour>
        <pt x="115" y="473" on="1"/>
        <pt x="115" y="145" on="1"/>
        <pt x="346" y="145" on="1"/>
        <pt x="445" y="145" on="0"/>
        <pt x="539" y="222" on="0"/>
        <pt x="539" y="399" on="0"/>
        <pt x="441" y="473" on="0"/>
        <pt x="346" y="473" on="1"/>
      </contour>
      <contour>
        <pt x="98" y="3" on="1"/>
        <pt x="98" y="605" on="1"/>
        <pt x="98" y="613" on="0"/>
        <pt x="115" y="613" on="0"/>
        <pt x="115" y="605" on="1"/>
        <pt x="115" y="490" on="1"/>
        <pt x="346" y="490" on="1"/>
        <pt x="452" y="490" on="0"/>
        <pt x="556" y="403" on="0"/>
        <pt x="556" y="215" on="0"/>
        <pt x="452" y="128" on="0"/>
        <pt x="346" y="128" on="1"/>
        <pt x="115" y="128" on="1"/>
        <pt x="115" y="3" on="1"/>
        <pt x="115" y="-5" on="0"/>
        <pt x="98" y="-5" on="0"/>
      </contour>
    </TTGlyph>
    <TTGlyph name="U" xMin="11" yMin="-5" xMax="557" yMax="608">
      <contour>
        <pt x="557" y="100" on="0"/>
        <pt x="422" y="-5" on="0"/>
        <pt x="225" y="-5" on="0"/>
        <pt x="97" y="103" on="0"/>
        <pt x="97" y="189" on="1"/>
        <pt x="97" y="591" on="1"/>
        <pt x="19" y="591" on="1"/>
        <pt x="11" y="591" on="0"/>
        <pt x="11" y="608" on="0"/>
        <pt x="19" y="608" on="1"/>
        <pt x="106" y="608" on="1"/>
        <pt x="114" y="608" on="0"/>
        <pt x="114" y="599" on="1"/>
        <pt x="114" y="189" on="1"/>
        <pt x="114" y="111" on="0"/>
        <pt x="232" y="12" on="0"/>
        <pt x="420" y="12" on="0"/>
        <pt x="540" y="111" on="0"/>
        <pt x="540" y="189" on="1"/>
        <pt x="540" y="591" on="1"/>
        <pt x="462" y="591" on="1"/>
        <pt x="454" y="591" on="0"/>
        <pt x="454" y="608" on="0"/>
        <pt x="462" y="608" on="1"/>
        <pt x="549" y="608" on="1"/>
        <pt x="557" y="608" on="0"/>
        <pt x="557" y="599" on="1"/>
        <pt x="557" y="189" on="1"/>
      </contour>
    </TTGlyph>
    <TTGlyph name="Uacute" xMin="11" yMin="-5" xMax="557" yMax="789">
      <contour>
        <pt x="557" y="100" on="0"/>
        <pt x="422" y="-5" on="0"/>
        <pt x="225" y="-5" on="0"/>
        <pt x="97" y="103" on="0"/>
        <pt x="97" y="189" on="1"/>
        <pt x="97" y="591" on="1"/>
        <pt x="19" y="591" on="1"/>
        <pt x="11" y="591" on="0"/>
        <pt x="11" y="608" on="0"/>
        <pt x="19" y="608" on="1"/>
        <pt x="106" y="608" on="1"/>
        <pt x="114" y="608" on="0"/>
        <pt x="114" y="599" on="1"/>
        <pt x="114" y="189" on="1"/>
        <pt x="114" y="111" on="0"/>
        <pt x="232" y="12" on="0"/>
        <pt x="420" y="12" on="0"/>
        <pt x="540" y="111" on="0"/>
        <pt x="540" y="189" on="1"/>
        <pt x="540" y="591" on="1"/>
        <pt x="462" y="591" on="1"/>
        <pt x="454" y="591" on="0"/>
        <pt x="454" y="608" on="0"/>
        <pt x="462" y="608" on="1"/>
        <pt x="549" y="608" on="1"/>
        <pt x="557" y="608" on="0"/>
        <pt x="557" y="599" on="1"/>
        <pt x="557" y="189" on="1"/>
      </contour>
      <contour>
        <pt x="286" y="688" on="1"/>
        <pt x="280" y="688" on="0"/>
        <pt x="280" y="694" on="1"/>
        <pt x="280" y="696" on="0"/>
        <pt x="283" y="699" on="1"/>
        <pt x="366" y="786" on="1"/>
        <pt x="368" y="789" on="0"/>
        <pt x="372" y="789" on="1"/>
        <pt x="382" y="789" on="0"/>
        <pt x="382" y="781" on="1"/>
        <pt x="382" y="778" on="0"/>
        <pt x="379" y="775" on="1"/>
        <pt x="291" y="691" on="1"/>
        <pt x="288" y="688" on="0"/>
      </contour>
    </TTGlyph>
    <TTGlyph name="Ucircumflex" xMin="11" yMin="-5" xMax="557" yMax="779">
      <contour>
        <pt x="557" y="100" on="0"/>
        <pt x="422" y="-5" on="0"/>
        <pt x="225" y="-5" on="0"/>
        <pt x="97" y="103" on="0"/>
        <pt x="97" y="189" on="1"/>
        <pt x="97" y="591" on="1"/>
        <pt x="19" y="591" on="1"/>
        <pt x="11" y="591" on="0"/>
        <pt x="11" y="608" on="0"/>
        <pt x="19" y="608" on="1"/>
        <pt x="106" y="608" on="1"/>
        <pt x="114" y="608" on="0"/>
        <pt x="114" y="599" on="1"/>
        <pt x="114" y="189" on="1"/>
        <pt x="114" y="111" on="0"/>
        <pt x="232" y="12" on="0"/>
        <pt x="420" y="12" on="0"/>
        <pt x="540" y="111" on="0"/>
        <pt x="540" y="189" on="1"/>
        <pt x="540" y="591" on="1"/>
        <pt x="462" y="591" on="1"/>
        <pt x="454" y="591" on="0"/>
        <pt x="454" y="608" on="0"/>
        <pt x="462" y="608" on="1"/>
        <pt x="549" y="608" on="1"/>
        <pt x="557" y="608" on="0"/>
        <pt x="557" y="599" on="1"/>
        <pt x="557" y="189" on="1"/>
      </contour>
      <contour>
        <pt x="252" y="689" on="1"/>
        <pt x="249" y="686" on="0"/>
        <pt x="241" y="686" on="0"/>
        <pt x="241" y="692" on="1"/>
        <pt x="241" y="694" on="0"/>
        <pt x="243" y="696" on="1"/>
        <pt x="308" y="775" on="1"/>
        <pt x="312" y="779" on="0"/>
        <pt x="320" y="779" on="0"/>
        <pt x="324" y="775" on="1"/>
        <pt x="389" y="696" on="1"/>
        <pt x="391" y="694" on="0"/>
        <pt x="391" y="692" on="1"/>
        <pt x="391" y="686" on="0"/>
        <pt x="383" y="686" on="0"/>
        <pt x="380" y="689" on="1"/>
        <pt x="316" y="758" on="1"/>
      </contour>
    </TTGlyph>
    <TTGlyph name="Udieresis" xMin="11" yMin="-5" xMax="557" yMax="746">
      <contour>
        <pt x="225" y="-5" on="0"/>
        <pt x="97" y="103" on="0"/>
        <pt x="97" y="189" on="1"/>
        <pt x="97" y="591" on="1"/>
        <pt x="19" y="591" on="1"/>
        <pt x="11" y="591" on="0"/>
        <pt x="11" y="608" on="0"/>
        <pt x="19" y="608" on="1"/>
        <pt x="106" y="608" on="1"/>
        <pt x="114" y="608" on="0"/>
        <pt x="114" y="599" on="1"/>
        <pt x="114" y="189" on="1"/>
        <pt x="114" y="111" on="0"/>
        <pt x="232" y="12" on="0"/>
        <pt x="420" y="12" on="0"/>
        <pt x="540" y="111" on="0"/>
        <pt x="540" y="189" on="1"/>
        <pt x="540" y="591" on="1"/>
        <pt x="462" y="591" on="1"/>
        <pt x="454" y="591" on="0"/>
        <pt x="454" y="608" on="0"/>
        <pt x="462" y="608" on="1"/>
        <pt x="549" y="608" on="1"/>
        <pt x="557" y="608" on="0"/>
        <pt x="557" y="599" on="1"/>
        <pt x="557" y="189" on="1"/>
        <pt x="557" y="100" on="0"/>
        <pt x="422" y="-5" on="0"/>
      </contour>
      <contour>
        <pt x="253" y="725" on="0"/>
        <pt x="253" y="737" on="0"/>
        <pt x="262" y="746" on="0"/>
        <pt x="274" y="746" on="0"/>
        <pt x="283" y="737" on="0"/>
        <pt x="283" y="725" on="0"/>
        <pt x="274" y="716" on="0"/>
        <pt x="262" y="716" on="0"/>
      </contour>
      <contour>
        <pt x="358" y="725" on="0"/>
        <pt x="358" y="737" on="0"/>
        <pt x="367" y="746" on="0"/>
        <pt x="379" y="746" on="0"/>
        <pt x="388" y="737" on="0"/>
        <pt x="388" y="725" on="0"/>
        <pt x="379" y="716" on="0"/>
        <pt x="367" y="716" on="0"/>
      </contour>
    </TTGlyph>
    <TTGlyph name="Ugrave" xMin="11" yMin="-5" xMax="557" yMax="791">
      <contour>
        <pt x="225" y="-5" on="0"/>
        <pt x="97" y="103" on="0"/>
        <pt x="97" y="189" on="1"/>
        <pt x="97" y="591" on="1"/>
        <pt x="19" y="591" on="1"/>
        <pt x="11" y="591" on="0"/>
        <pt x="11" y="608" on="0"/>
        <pt x="19" y="608" on="1"/>
        <pt x="106" y="608" on="1"/>
        <pt x="114" y="608" on="0"/>
        <pt x="114" y="599" on="1"/>
        <pt x="114" y="189" on="1"/>
        <pt x="114" y="111" on="0"/>
        <pt x="232" y="12" on="0"/>
        <pt x="420" y="12" on="0"/>
        <pt x="540" y="111" on="0"/>
        <pt x="540" y="189" on="1"/>
        <pt x="540" y="591" on="1"/>
        <pt x="462" y="591" on="1"/>
        <pt x="454" y="591" on="0"/>
        <pt x="454" y="608" on="0"/>
        <pt x="462" y="608" on="1"/>
        <pt x="549" y="608" on="1"/>
        <pt x="557" y="608" on="0"/>
        <pt x="557" y="599" on="1"/>
        <pt x="557" y="189" on="1"/>
        <pt x="557" y="100" on="0"/>
        <pt x="422" y="-5" on="0"/>
      </contour>
      <contour>
        <pt x="352" y="694" on="1"/>
        <pt x="352" y="688" on="0"/>
        <pt x="346" y="688" on="1"/>
        <pt x="344" y="688" on="0"/>
        <pt x="341" y="691" on="1"/>
        <pt x="253" y="775" on="1"/>
        <pt x="250" y="778" on="0"/>
        <pt x="250" y="784" on="0"/>
        <pt x="256" y="791" on="0"/>
        <pt x="262" y="791" on="0"/>
        <pt x="266" y="786" on="1"/>
        <pt x="349" y="699" on="1"/>
        <pt x="352" y="696" on="0"/>
      </contour>
    </TTGlyph>
    <TTGlyph name="V" xMin="0" yMin="-5" xMax="583" yMax="614">
      <contour>
        <pt x="1" y="606" on="1"/>
        <pt x="1" y="613" on="0"/>
        <pt x="10" y="613" on="1"/>
        <pt x="14" y="613" on="0"/>
        <pt x="17" y="608" on="1"/>
        <pt x="291" y="23" on="1"/>
        <pt x="566" y="608" on="1"/>
        <pt x="569" y="613" on="0"/>
        <pt x="572" y="613" on="1"/>
        <pt x="582" y="613" on="0"/>
        <pt x="582" y="605" on="1"/>
        <pt x="582" y="603" on="0"/>
        <pt x="581" y="601" on="1"/>
        <pt x="299" y="0" on="1"/>
        <pt x="297" y="-5" on="0"/>
        <pt x="286" y="-5" on="0"/>
        <pt x="284" y="0" on="1"/>
        <pt x="2" y="601" on="1"/>
        <pt x="1" y="604" on="0"/>
      </contour>
    </TTGlyph>
    <TTGlyph name="W" xMin="4" yMin="-5" xMax="827" yMax="614">
      <contour>
        <pt x="4" y="605" on="1"/>
        <pt x="4" y="613" on="0"/>
        <pt x="13" y="613" on="1"/>
        <pt x="17" y="613" on="0"/>
        <pt x="20" y="608" on="1"/>
        <pt x="268" y="25" on="1"/>
        <pt x="405" y="348" on="1"/>
        <pt x="298" y="601" on="1"/>
        <pt x="294" y="609" on="0"/>
        <pt x="305" y="613" on="0"/>
        <pt x="312" y="613" on="0"/>
        <pt x="314" y="608" on="1"/>
        <pt x="415" y="371" on="1"/>
        <pt x="516" y="608" on="1"/>
        <pt x="519" y="613" on="0"/>
        <pt x="525" y="613" on="0"/>
        <pt x="527" y="612" on="1"/>
        <pt x="536" y="608" on="0"/>
        <pt x="532" y="601" on="1"/>
        <pt x="424" y="348" on="1"/>
        <pt x="562" y="25" on="1"/>
        <pt x="810" y="608" on="1"/>
        <pt x="813" y="613" on="0"/>
        <pt x="816" y="613" on="1"/>
        <pt x="826" y="613" on="0"/>
        <pt x="826" y="605" on="1"/>
        <pt x="826" y="603" on="0"/>
        <pt x="825" y="601" on="1"/>
        <pt x="570" y="0" on="1"/>
        <pt x="568" y="-5" on="0"/>
        <pt x="556" y="-5" on="0"/>
        <pt x="554" y="0" on="1"/>
        <pt x="415" y="326" on="1"/>
        <pt x="276" y="0" on="1"/>
        <pt x="274" y="-5" on="0"/>
        <pt x="262" y="-5" on="0"/>
        <pt x="260" y="0" on="1"/>
        <pt x="5" y="601" on="1"/>
        <pt x="4" y="603" on="0"/>
      </contour>
    </TTGlyph>
    <TTGlyph name="X" xMin="9" yMin="-6" xMax="571" yMax="614">
      <contour>
        <pt x="25" y="-2" on="1"/>
        <pt x="22" y="-5" on="0"/>
        <pt x="15" y="-5" on="0"/>
        <pt x="9" y="0" on="0"/>
        <pt x="9" y="6" on="0"/>
        <pt x="12" y="9" on="1"/>
        <pt x="278" y="309" on="1"/>
        <pt x="20" y="599" on="1"/>
        <pt x="14" y="605" on="0"/>
        <pt x="23" y="613" on="0"/>
        <pt x="29" y="613" on="0"/>
        <pt x="33" y="610" on="1"/>
        <pt x="289" y="321" on="1"/>
        <pt x="546" y="610" on="1"/>
        <pt x="549" y="614" on="0"/>
        <pt x="552" y="614" on="1"/>
        <pt x="567" y="607" on="0"/>
        <pt x="559" y="599" on="1"/>
        <pt x="301" y="308" on="1"/>
        <pt x="567" y="9" on="1"/>
        <pt x="570" y="6" on="0"/>
        <pt x="570" y="0" on="0"/>
        <pt x="564" y="-5" on="0"/>
        <pt x="562" y="-5" on="1"/>
        <pt x="555" y="-2" on="1"/>
        <pt x="290" y="296" on="1"/>
      </contour>
    </TTGlyph>
    <TTGlyph name="Y" xMin="0" yMin="-5" xMax="547" yMax="614">
      <contour>
        <pt x="282" y="3" on="1"/>
        <pt x="282" y="-5" on="0"/>
        <pt x="265" y="-5" on="0"/>
        <pt x="265" y="3" on="1"/>
        <pt x="265" y="219" on="1"/>
        <pt x="2" y="599" on="1"/>
        <pt x="0" y="601" on="0"/>
        <pt x="0" y="607" on="0"/>
        <pt x="7" y="613" on="0"/>
        <pt x="13" y="613" on="0"/>
        <pt x="16" y="609" on="1"/>
        <pt x="273" y="237" on="1"/>
        <pt x="530" y="609" on="1"/>
        <pt x="533" y="614" on="0"/>
        <pt x="540" y="614" on="0"/>
        <pt x="546" y="608" on="0"/>
        <pt x="546" y="602" on="0"/>
        <pt x="544" y="599" on="1"/>
        <pt x="282" y="221" on="1"/>
      </contour>
    </TTGlyph>
    <TTGlyph name="Yacute" xMin="0" yMin="-5" xMax="547" yMax="789">
      <contour>
        <pt x="282" y="3" on="1"/>
        <pt x="282" y="-5" on="0"/>
        <pt x="265" y="-5" on="0"/>
        <pt x="265" y="3" on="1"/>
        <pt x="265" y="219" on="1"/>
        <pt x="2" y="599" on="1"/>
        <pt x="0" y="601" on="0"/>
        <pt x="0" y="607" on="0"/>
        <pt x="11" y="617" on="0"/>
        <pt x="16" y="609" on="1"/>
        <pt x="273" y="237" on="1"/>
        <pt x="530" y="609" on="1"/>
        <pt x="536" y="617" on="0"/>
        <pt x="546" y="608" on="0"/>
        <pt x="546" y="602" on="0"/>
        <pt x="544" y="599" on="1"/>
        <pt x="282" y="221" on="1"/>
      </contour>
      <contour>
        <pt x="229" y="688" on="1"/>
        <pt x="223" y="688" on="0"/>
        <pt x="223" y="694" on="1"/>
        <pt x="223" y="696" on="0"/>
        <pt x="226" y="699" on="1"/>
        <pt x="309" y="786" on="1"/>
        <pt x="311" y="789" on="0"/>
        <pt x="316" y="789" on="1"/>
        <pt x="325" y="789" on="0"/>
        <pt x="325" y="781" on="1"/>
        <pt x="325" y="778" on="0"/>
        <pt x="322" y="775" on="1"/>
        <pt x="234" y="691" on="1"/>
        <pt x="231" y="688" on="0"/>
      </contour>
    </TTGlyph>
    <TTGlyph name="Ydieresis" xMin="0" yMin="-5" xMax="547" yMax="746">
      <contour>
        <pt x="265" y="3" on="1"/>
        <pt x="265" y="219" on="1"/>
        <pt x="2" y="599" on="1"/>
        <pt x="0" y="601" on="0"/>
        <pt x="0" y="607" on="0"/>
        <pt x="11" y="617" on="0"/>
        <pt x="16" y="609" on="1"/>
        <pt x="273" y="237" on="1"/>
        <pt x="530" y="609" on="1"/>
        <pt x="536" y="617" on="0"/>
        <pt x="546" y="608" on="0"/>
        <pt x="546" y="602" on="0"/>
        <pt x="544" y="599" on="1"/>
        <pt x="282" y="221" on="1"/>
        <pt x="282" y="3" on="1"/>
        <pt x="282" y="-5" on="0"/>
        <pt x="265" y="-5" on="0"/>
      </contour>
      <contour>
        <pt x="207" y="725" on="0"/>
        <pt x="207" y="737" on="0"/>
        <pt x="216" y="746" on="0"/>
        <pt x="228" y="746" on="0"/>
        <pt x="237" y="737" on="0"/>
        <pt x="237" y="725" on="0"/>
        <pt x="228" y="716" on="0"/>
        <pt x="216" y="716" on="0"/>
      </contour>
      <contour>
        <pt x="312" y="725" on="0"/>
        <pt x="312" y="737" on="0"/>
        <pt x="321" y="746" on="0"/>
        <pt x="333" y="746" on="0"/>
        <pt x="342" y="737" on="0"/>
        <pt x="342" y="725" on="0"/>
        <pt x="333" y="716" on="0"/>
        <pt x="321" y="716" on="0"/>
      </contour>
    </TTGlyph>
    <TTGlyph name="Z" xMin="43" yMin="0" xMax="547" yMax="608">
      <contour>
        <pt x="538" y="0" on="1"/>
        <pt x="51" y="0" on="1"/>
        <pt x="43" y="0" on="0"/>
        <pt x="43" y="9" on="1"/>
        <pt x="43" y="75" on="0"/>
        <pt x="81" y="127" on="1"/>
        <pt x="102" y="156" on="0"/>
        <pt x="135" y="196" on="0"/>
        <pt x="172" y="227" on="1"/>
        <pt x="218" y="265" on="0"/>
        <pt x="296" y="324" on="0"/>
        <pt x="355" y="369" on="0"/>
        <pt x="376" y="385" on="0"/>
        <pt x="426" y="428" on="0"/>
        <pt x="448" y="452" on="0"/>
        <pt x="484" y="493" on="0"/>
        <pt x="492" y="510" on="1"/>
        <pt x="514" y="556" on="0"/>
        <pt x="517" y="591" on="1"/>
        <pt x="70" y="591" on="1"/>
        <pt x="70" y="492" on="1"/>
        <pt x="70" y="484" on="0"/>
        <pt x="53" y="484" on="0"/>
        <pt x="53" y="492" on="1"/>
        <pt x="53" y="600" on="1"/>
        <pt x="53" y="608" on="0"/>
        <pt x="62" y="608" on="1"/>
        <pt x="525" y="608" on="1"/>
        <pt x="534" y="608" on="0"/>
        <pt x="534" y="600" on="1"/>
        <pt x="534" y="553" on="0"/>
        <pt x="503" y="497" on="0"/>
        <pt x="484" y="465" on="0"/>
        <pt x="446" y="426" on="0"/>
        <pt x="422" y="401" on="0"/>
        <pt x="375" y="363" on="0"/>
        <pt x="354" y="347" on="0"/>
        <pt x="304" y="310" on="0"/>
        <pt x="292" y="301" on="0"/>
        <pt x="229" y="253" on="0"/>
        <pt x="210" y="237" on="0"/>
        <pt x="155" y="191" on="0"/>
        <pt x="133" y="167" on="0"/>
        <pt x="95" y="121" on="0"/>
        <pt x="86" y="104" on="1"/>
        <pt x="63" y="56" on="0"/>
        <pt x="60" y="17" on="1"/>
        <pt x="530" y="17" on="1"/>
        <pt x="530" y="116" on="1"/>
        <pt x="530" y="124" on="0"/>
        <pt x="547" y="124" on="0"/>
        <pt x="547" y="116" on="1"/>
        <pt x="547" y="9" on="1"/>
        <pt x="547" y="0" on="0"/>
      </contour>
    </TTGlyph>
    <TTGlyph name="Zcaron" xMin="43" yMin="0" xMax="547" yMax="780">
      <contour>
        <pt x="51" y="0" on="1"/>
        <pt x="43" y="0" on="0"/>
        <pt x="43" y="9" on="1"/>
        <pt x="43" y="75" on="0"/>
        <pt x="81" y="127" on="1"/>
        <pt x="102" y="156" on="0"/>
        <pt x="135" y="196" on="0"/>
        <pt x="209" y="258" on="0"/>
        <pt x="244" y="285" on="0"/>
        <pt x="296" y="324" on="0"/>
        <pt x="355" y="369" on="0"/>
        <pt x="376" y="385" on="0"/>
        <pt x="426" y="428" on="0"/>
        <pt x="448" y="452" on="0"/>
        <pt x="484" y="493" on="0"/>
        <pt x="514" y="556" on="0"/>
        <pt x="517" y="591" on="1"/>
        <pt x="70" y="591" on="1"/>
        <pt x="70" y="492" on="1"/>
        <pt x="70" y="484" on="0"/>
        <pt x="53" y="484" on="0"/>
        <pt x="53" y="492" on="1"/>
        <pt x="53" y="600" on="1"/>
        <pt x="53" y="608" on="0"/>
        <pt x="62" y="608" on="1"/>
        <pt x="525" y="608" on="1"/>
        <pt x="534" y="608" on="0"/>
        <pt x="534" y="600" on="1"/>
        <pt x="534" y="553" on="0"/>
        <pt x="514" y="517" on="1"/>
        <pt x="503" y="497" on="0"/>
        <pt x="484" y="465" on="0"/>
        <pt x="446" y="426" on="0"/>
        <pt x="422" y="401" on="0"/>
        <pt x="375" y="363" on="0"/>
        <pt x="354" y="347" on="0"/>
        <pt x="304" y="310" on="0"/>
        <pt x="292" y="301" on="0"/>
        <pt x="229" y="253" on="0"/>
        <pt x="210" y="237" on="0"/>
        <pt x="155" y="191" on="0"/>
        <pt x="133" y="167" on="0"/>
        <pt x="114" y="144" on="1"/>
        <pt x="66" y="86" on="0"/>
        <pt x="60" y="17" on="1"/>
        <pt x="530" y="17" on="1"/>
        <pt x="530" y="116" on="1"/>
        <pt x="530" y="124" on="0"/>
        <pt x="547" y="124" on="0"/>
        <pt x="547" y="116" on="1"/>
        <pt x="547" y="9" on="1"/>
        <pt x="547" y="0" on="0"/>
        <pt x="538" y="0" on="1"/>
      </contour>
      <contour>
        <pt x="367" y="776" on="1"/>
        <pt x="370" y="779" on="0"/>
        <pt x="378" y="779" on="0"/>
        <pt x="378" y="774" on="1"/>
        <pt x="378" y="771" on="0"/>
        <pt x="376" y="769" on="1"/>
        <pt x="311" y="690" on="1"/>
        <pt x="307" y="686" on="0"/>
        <pt x="299" y="686" on="0"/>
        <pt x="295" y="690" on="1"/>
        <pt x="230" y="769" on="1"/>
        <pt x="228" y="771" on="0"/>
        <pt x="228" y="774" on="1"/>
        <pt x="228" y="779" on="0"/>
        <pt x="236" y="779" on="0"/>
        <pt x="239" y="776" on="1"/>
        <pt x="303" y="707" on="1"/>
      </contour>
    </TTGlyph>
    <TTGlyph name="a" xMin="45" yMin="-5" xMax="446" yMax="379">
      <contour>
        <pt x="158" y="-5" on="1"/>
        <pt x="106" y="-5" on="0"/>
        <pt x="45" y="48" on="0"/>
        <pt x="45" y="146" on="0"/>
        <pt x="123" y="199" on="0"/>
        <pt x="248" y="199" on="0"/>
        <pt x="334" y="176" on="1"/>
        <pt x="334" y="268" on="1"/>
        <pt x="334" y="329" on="0"/>
        <pt x="291" y="347" on="1"/>
        <pt x="256" y="362" on="0"/>
        <pt x="130" y="362" on="0"/>
        <pt x="84" y="338" on="1"/>
        <pt x="84" y="253" on="1"/>
        <pt x="84" y="245" on="0"/>
        <pt x="67" y="245" on="0"/>
        <pt x="67" y="253" on="1"/>
        <pt x="67" y="343" on="1"/>
        <pt x="67" y="348" on="0"/>
        <pt x="71" y="350" on="1"/>
        <pt x="120" y="379" on="0"/>
        <pt x="276" y="379" on="0"/>
        <pt x="351" y="329" on="0"/>
        <pt x="351" y="268" on="1"/>
        <pt x="351" y="53" on="1"/>
        <pt x="351" y="17" on="0"/>
        <pt x="400" y="17" on="1"/>
        <pt x="438" y="17" on="1"/>
        <pt x="446" y="17" on="0"/>
        <pt x="446" y="0" on="0"/>
        <pt x="438" y="0" on="1"/>
        <pt x="400" y="0" on="1"/>
        <pt x="334" y="0" on="0"/>
        <pt x="334" y="53" on="1"/>
        <pt x="334" y="97" on="1"/>
        <pt x="269" y="-5" on="0"/>
      </contour>
      <contour>
        <pt x="334" y="160" on="1"/>
        <pt x="251" y="183" on="0"/>
        <pt x="136" y="183" on="0"/>
        <pt x="62" y="140" on="0"/>
        <pt x="62" y="56" on="0"/>
        <pt x="113" y="12" on="0"/>
        <pt x="158" y="12" on="1"/>
        <pt x="274" y="12" on="0"/>
        <pt x="334" y="127" on="1"/>
      </contour>
    </TTGlyph>
    <TTGlyph name="aacute" xMin="45" yMin="-5" xMax="446" yMax="555">
      <contour>
        <pt x="158" y="-5" on="1"/>
        <pt x="106" y="-5" on="0"/>
        <pt x="45" y="48" on="0"/>
        <pt x="45" y="146" on="0"/>
        <pt x="123" y="199" on="0"/>
        <pt x="248" y="199" on="0"/>
        <pt x="334" y="176" on="1"/>
        <pt x="334" y="268" on="1"/>
        <pt x="334" y="329" on="0"/>
        <pt x="291" y="347" on="1"/>
        <pt x="256" y="362" on="0"/>
        <pt x="130" y="362" on="0"/>
        <pt x="84" y="338" on="1"/>
        <pt x="84" y="253" on="1"/>
        <pt x="84" y="245" on="0"/>
        <pt x="67" y="245" on="0"/>
        <pt x="67" y="253" on="1"/>
        <pt x="67" y="343" on="1"/>
        <pt x="67" y="348" on="0"/>
        <pt x="71" y="350" on="1"/>
        <pt x="120" y="379" on="0"/>
        <pt x="276" y="379" on="0"/>
        <pt x="351" y="329" on="0"/>
        <pt x="351" y="268" on="1"/>
        <pt x="351" y="53" on="1"/>
        <pt x="351" y="17" on="0"/>
        <pt x="400" y="17" on="1"/>
        <pt x="438" y="17" on="1"/>
        <pt x="446" y="17" on="0"/>
        <pt x="446" y="0" on="0"/>
        <pt x="438" y="0" on="1"/>
        <pt x="400" y="0" on="1"/>
        <pt x="334" y="0" on="0"/>
        <pt x="334" y="53" on="1"/>
        <pt x="334" y="97" on="1"/>
        <pt x="269" y="-5" on="0"/>
      </contour>
      <contour>
        <pt x="334" y="160" on="1"/>
        <pt x="251" y="183" on="0"/>
        <pt x="136" y="183" on="0"/>
        <pt x="62" y="140" on="0"/>
        <pt x="62" y="56" on="0"/>
        <pt x="113" y="12" on="0"/>
        <pt x="158" y="12" on="1"/>
        <pt x="274" y="12" on="0"/>
        <pt x="334" y="127" on="1"/>
      </contour>
      <contour>
        <pt x="169" y="454" on="1"/>
        <pt x="163" y="454" on="0"/>
        <pt x="163" y="460" on="1"/>
        <pt x="163" y="462" on="0"/>
        <pt x="166" y="465" on="1"/>
        <pt x="249" y="552" on="1"/>
        <pt x="251" y="555" on="0"/>
        <pt x="256" y="555" on="1"/>
        <pt x="265" y="555" on="0"/>
        <pt x="265" y="547" on="1"/>
        <pt x="265" y="544" on="0"/>
        <pt x="262" y="541" on="1"/>
        <pt x="174" y="457" on="1"/>
        <pt x="171" y="454" on="0"/>
      </contour>
    </TTGlyph>
    <TTGlyph name="acircumflex" xMin="45" yMin="-5" xMax="446" yMax="545">
      <contour>
        <pt x="158" y="-5" on="1"/>
        <pt x="106" y="-5" on="0"/>
        <pt x="45" y="48" on="0"/>
        <pt x="45" y="146" on="0"/>
        <pt x="123" y="199" on="0"/>
        <pt x="248" y="199" on="0"/>
        <pt x="334" y="176" on="1"/>
        <pt x="334" y="268" on="1"/>
        <pt x="334" y="329" on="0"/>
        <pt x="291" y="347" on="1"/>
        <pt x="256" y="362" on="0"/>
        <pt x="130" y="362" on="0"/>
        <pt x="84" y="338" on="1"/>
        <pt x="84" y="253" on="1"/>
        <pt x="84" y="245" on="0"/>
        <pt x="67" y="245" on="0"/>
        <pt x="67" y="253" on="1"/>
        <pt x="67" y="343" on="1"/>
        <pt x="67" y="348" on="0"/>
        <pt x="71" y="350" on="1"/>
        <pt x="120" y="379" on="0"/>
        <pt x="276" y="379" on="0"/>
        <pt x="351" y="329" on="0"/>
        <pt x="351" y="268" on="1"/>
        <pt x="351" y="53" on="1"/>
        <pt x="351" y="17" on="0"/>
        <pt x="400" y="17" on="1"/>
        <pt x="438" y="17" on="1"/>
        <pt x="446" y="17" on="0"/>
        <pt x="446" y="0" on="0"/>
        <pt x="438" y="0" on="1"/>
        <pt x="400" y="0" on="1"/>
        <pt x="334" y="0" on="0"/>
        <pt x="334" y="53" on="1"/>
        <pt x="334" y="97" on="1"/>
        <pt x="269" y="-5" on="0"/>
      </contour>
      <contour>
        <pt x="334" y="160" on="1"/>
        <pt x="251" y="183" on="0"/>
        <pt x="136" y="183" on="0"/>
        <pt x="62" y="140" on="0"/>
        <pt x="62" y="56" on="0"/>
        <pt x="113" y="12" on="0"/>
        <pt x="158" y="12" on="1"/>
        <pt x="274" y="12" on="0"/>
        <pt x="334" y="127" on="1"/>
      </contour>
      <contour>
        <pt x="138" y="455" on="1"/>
        <pt x="135" y="452" on="0"/>
        <pt x="127" y="452" on="0"/>
        <pt x="127" y="458" on="1"/>
        <pt x="127" y="460" on="0"/>
        <pt x="129" y="462" on="1"/>
        <pt x="194" y="541" on="1"/>
        <pt x="198" y="545" on="0"/>
        <pt x="206" y="545" on="0"/>
        <pt x="210" y="541" on="1"/>
        <pt x="275" y="462" on="1"/>
        <pt x="277" y="460" on="0"/>
        <pt x="277" y="458" on="1"/>
        <pt x="277" y="452" on="0"/>
        <pt x="269" y="452" on="0"/>
        <pt x="266" y="455" on="1"/>
        <pt x="202" y="524" on="1"/>
      </contour>
    </TTGlyph>
    <TTGlyph name="acute" xMin="25" yMin="454" xMax="127" yMax="555">
      <contour>
        <pt x="31" y="454" on="1"/>
        <pt x="25" y="454" on="0"/>
        <pt x="25" y="460" on="1"/>
        <pt x="25" y="462" on="0"/>
        <pt x="28" y="465" on="1"/>
        <pt x="111" y="552" on="1"/>
        <pt x="113" y="555" on="0"/>
        <pt x="118" y="555" on="1"/>
        <pt x="127" y="555" on="0"/>
        <pt x="127" y="547" on="1"/>
        <pt x="127" y="544" on="0"/>
        <pt x="124" y="541" on="1"/>
        <pt x="36" y="457" on="1"/>
        <pt x="33" y="454" on="0"/>
      </contour>
    </TTGlyph>
    <TTGlyph name="adieresis" xMin="45" yMin="-5" xMax="446" yMax="512">
      <contour>
        <pt x="158" y="-5" on="1"/>
        <pt x="106" y="-5" on="0"/>
        <pt x="45" y="48" on="0"/>
        <pt x="45" y="146" on="0"/>
        <pt x="123" y="199" on="0"/>
        <pt x="248" y="199" on="0"/>
        <pt x="334" y="176" on="1"/>
        <pt x="334" y="268" on="1"/>
        <pt x="334" y="298" on="0"/>
        <pt x="323" y="318" on="1"/>
        <pt x="299" y="362" on="0"/>
        <pt x="203" y="362" on="1"/>
        <pt x="130" y="362" on="0"/>
        <pt x="84" y="338" on="1"/>
        <pt x="84" y="253" on="1"/>
        <pt x="84" y="245" on="0"/>
        <pt x="67" y="245" on="0"/>
        <pt x="67" y="253" on="1"/>
        <pt x="67" y="343" on="1"/>
        <pt x="67" y="348" on="0"/>
        <pt x="71" y="350" on="1"/>
        <pt x="120" y="379" on="0"/>
        <pt x="276" y="379" on="0"/>
        <pt x="351" y="329" on="0"/>
        <pt x="351" y="268" on="1"/>
        <pt x="351" y="53" on="1"/>
        <pt x="351" y="17" on="0"/>
        <pt x="400" y="17" on="1"/>
        <pt x="438" y="17" on="1"/>
        <pt x="446" y="17" on="0"/>
        <pt x="446" y="0" on="0"/>
        <pt x="438" y="0" on="1"/>
        <pt x="400" y="0" on="1"/>
        <pt x="334" y="0" on="0"/>
        <pt x="334" y="53" on="1"/>
        <pt x="334" y="97" on="1"/>
        <pt x="269" y="-5" on="0"/>
      </contour>
      <contour>
        <pt x="136" y="183" on="0"/>
        <pt x="62" y="140" on="0"/>
        <pt x="62" y="56" on="0"/>
        <pt x="113" y="12" on="0"/>
        <pt x="158" y="12" on="1"/>
        <pt x="274" y="12" on="0"/>
        <pt x="334" y="127" on="1"/>
        <pt x="334" y="160" on="1"/>
        <pt x="251" y="183" on="0"/>
      </contour>
      <contour>
        <pt x="138" y="491" on="0"/>
        <pt x="138" y="503" on="0"/>
        <pt x="147" y="512" on="0"/>
        <pt x="159" y="512" on="0"/>
        <pt x="168" y="503" on="0"/>
        <pt x="168" y="491" on="0"/>
        <pt x="159" y="482" on="0"/>
        <pt x="147" y="482" on="0"/>
      </contour>
      <contour>
        <pt x="243" y="491" on="0"/>
        <pt x="243" y="503" on="0"/>
        <pt x="252" y="512" on="0"/>
        <pt x="264" y="512" on="0"/>
        <pt x="273" y="503" on="0"/>
        <pt x="273" y="491" on="0"/>
        <pt x="264" y="482" on="0"/>
        <pt x="252" y="482" on="0"/>
      </contour>
    </TTGlyph>
    <TTGlyph name="ae" xMin="45" yMin="-5" xMax="674" yMax="379">
      <contour>
        <pt x="515" y="-5" on="1"/>
        <pt x="450" y="-5" on="0"/>
        <pt x="362" y="61" on="0"/>
        <pt x="344" y="116" on="1"/>
        <pt x="281" y="-5" on="0"/>
        <pt x="158" y="-5" on="1"/>
        <pt x="107" y="-5" on="0"/>
        <pt x="45" y="51" on="0"/>
        <pt x="45" y="149" on="0"/>
        <pt x="123" y="205" on="0"/>
        <pt x="177" y="205" on="1"/>
        <pt x="334" y="205" on="1"/>
        <pt x="334" y="268" on="1"/>
        <pt x="334" y="330" on="0"/>
        <pt x="290" y="348" on="1"/>
        <pt x="254" y="362" on="0"/>
        <pt x="130" y="362" on="0"/>
        <pt x="84" y="338" on="1"/>
        <pt x="84" y="253" on="1"/>
        <pt x="84" y="245" on="0"/>
        <pt x="67" y="245" on="0"/>
        <pt x="67" y="253" on="1"/>
        <pt x="67" y="343" on="1"/>
        <pt x="67" y="348" on="0"/>
        <pt x="71" y="350" on="1"/>
        <pt x="120" y="379" on="0"/>
        <pt x="273" y="379" on="0"/>
        <pt x="349" y="332" on="0"/>
        <pt x="351" y="275" on="1"/>
        <pt x="372" y="324" on="0"/>
        <pt x="457" y="379" on="0"/>
        <pt x="514" y="379" on="1"/>
        <pt x="596" y="379" on="0"/>
        <pt x="674" y="281" on="0"/>
        <pt x="674" y="197" on="1"/>
        <pt x="674" y="188" on="0"/>
        <pt x="666" y="188" on="1"/>
        <pt x="351" y="188" on="1"/>
        <pt x="351" y="179" on="1"/>
        <pt x="353" y="102" on="0"/>
        <pt x="442" y="12" on="0"/>
        <pt x="515" y="12" on="1"/>
        <pt x="611" y="12" on="0"/>
        <pt x="656" y="84" on="1"/>
        <pt x="661" y="91" on="0"/>
        <pt x="675" y="82" on="0"/>
        <pt x="671" y="75" on="1"/>
        <pt x="621" y="-5" on="0"/>
      </contour>
      <contour>
        <pt x="334" y="188" on="1"/>
        <pt x="185" y="188" on="1"/>
        <pt x="132" y="188" on="0"/>
        <pt x="62" y="143" on="0"/>
        <pt x="62" y="58" on="0"/>
        <pt x="113" y="12" on="0"/>
        <pt x="158" y="12" on="1"/>
        <pt x="279" y="12" on="0"/>
        <pt x="339" y="137" on="1"/>
        <pt x="334" y="164" on="0"/>
        <pt x="334" y="187" on="1"/>
      </contour>
      <contour>
        <pt x="657" y="205" on="1"/>
        <pt x="657" y="276" on="0"/>
        <pt x="587" y="362" on="0"/>
        <pt x="445" y="362" on="0"/>
        <pt x="357" y="276" on="0"/>
        <pt x="351" y="205" on="1"/>
      </contour>
    </TTGlyph>
    <TTGlyph name="agrave" xMin="45" yMin="-5" xMax="446" yMax="557">
      <contour>
        <pt x="158" y="-5" on="1"/>
        <pt x="106" y="-5" on="0"/>
        <pt x="45" y="48" on="0"/>
        <pt x="45" y="146" on="0"/>
        <pt x="123" y="199" on="0"/>
        <pt x="248" y="199" on="0"/>
        <pt x="334" y="176" on="1"/>
        <pt x="334" y="268" on="1"/>
        <pt x="334" y="298" on="0"/>
        <pt x="323" y="318" on="1"/>
        <pt x="299" y="362" on="0"/>
        <pt x="203" y="362" on="1"/>
        <pt x="130" y="362" on="0"/>
        <pt x="84" y="338" on="1"/>
        <pt x="84" y="253" on="1"/>
        <pt x="84" y="245" on="0"/>
        <pt x="67" y="245" on="0"/>
        <pt x="67" y="253" on="1"/>
        <pt x="67" y="343" on="1"/>
        <pt x="67" y="348" on="0"/>
        <pt x="71" y="350" on="1"/>
        <pt x="120" y="379" on="0"/>
        <pt x="276" y="379" on="0"/>
        <pt x="351" y="329" on="0"/>
        <pt x="351" y="268" on="1"/>
        <pt x="351" y="53" on="1"/>
        <pt x="351" y="17" on="0"/>
        <pt x="400" y="17" on="1"/>
        <pt x="438" y="17" on="1"/>
        <pt x="446" y="17" on="0"/>
        <pt x="446" y="0" on="0"/>
        <pt x="438" y="0" on="1"/>
        <pt x="400" y="0" on="1"/>
        <pt x="334" y="0" on="0"/>
        <pt x="334" y="53" on="1"/>
        <pt x="334" y="97" on="1"/>
        <pt x="269" y="-5" on="0"/>
      </contour>
      <contour>
        <pt x="136" y="183" on="0"/>
        <pt x="62" y="140" on="0"/>
        <pt x="62" y="56" on="0"/>
        <pt x="113" y="12" on="0"/>
        <pt x="158" y="12" on="1"/>
        <pt x="274" y="12" on="0"/>
        <pt x="334" y="127" on="1"/>
        <pt x="334" y="160" on="1"/>
        <pt x="251" y="183" on="0"/>
      </contour>
      <contour>
        <pt x="243" y="460" on="1"/>
        <pt x="243" y="454" on="0"/>
        <pt x="237" y="454" on="1"/>
        <pt x="235" y="454" on="0"/>
        <pt x="232" y="457" on="1"/>
        <pt x="144" y="541" on="1"/>
        <pt x="141" y="544" on="0"/>
        <pt x="141" y="550" on="0"/>
        <pt x="147" y="557" on="0"/>
        <pt x="153" y="557" on="0"/>
        <pt x="157" y="552" on="1"/>
        <pt x="240" y="465" on="1"/>
        <pt x="243" y="462" on="0"/>
      </contour>
    </TTGlyph>
    <TTGlyph name="ampersand" xMin="54" yMin="-6" xMax="497" yMax="615">
      <contour>
        <pt x="222" y="-5" on="1"/>
        <pt x="144" y="-5" on="0"/>
        <pt x="54" y="77" on="0"/>
        <pt x="54" y="204" on="0"/>
        <pt x="121" y="291" on="0"/>
        <pt x="180" y="334" on="1"/>
        <pt x="123" y="425" on="0"/>
        <pt x="123" y="499" on="1"/>
        <pt x="123" y="554" on="0"/>
        <pt x="186" y="615" on="0"/>
        <pt x="292" y="615" on="0"/>
        <pt x="346" y="551" on="0"/>
        <pt x="346" y="499" on="1"/>
        <pt x="346" y="467" on="0"/>
        <pt x="315" y="424" on="0"/>
        <pt x="297" y="402" on="0"/>
        <pt x="262" y="373" on="0"/>
        <pt x="245" y="360" on="0"/>
        <pt x="207" y="333" on="0"/>
        <pt x="203" y="330" on="1"/>
        <pt x="232" y="290" on="1"/>
        <pt x="290" y="216" on="0"/>
        <pt x="399" y="105" on="1"/>
        <pt x="458" y="170" on="0"/>
        <pt x="479" y="245" on="1"/>
        <pt x="483" y="253" on="0"/>
        <pt x="490" y="250" on="1"/>
        <pt x="496" y="248" on="0"/>
        <pt x="496" y="243" on="1"/>
        <pt x="496" y="186" on="0"/>
        <pt x="411" y="93" on="1"/>
        <pt x="432" y="71" on="0"/>
        <pt x="450" y="52" on="1"/>
        <pt x="472" y="31" on="0"/>
        <pt x="494" y="9" on="1"/>
        <pt x="496" y="6" on="0"/>
        <pt x="496" y="0" on="0"/>
        <pt x="491" y="-6" on="0"/>
        <pt x="488" y="-6" on="1"/>
        <pt x="482" y="-3" on="1"/>
        <pt x="400" y="80" on="1"/>
        <pt x="317" y="-5" on="0"/>
      </contour>
      <contour>
        <pt x="388" y="92" on="1"/>
        <pt x="237" y="246" on="0"/>
        <pt x="190" y="320" on="1"/>
        <pt x="133" y="279" on="0"/>
        <pt x="71" y="199" on="0"/>
        <pt x="71" y="84" on="0"/>
        <pt x="151" y="12" on="0"/>
        <pt x="306" y="12" on="0"/>
      </contour>
      <contour>
        <pt x="319" y="559" on="0"/>
        <pt x="276" y="598" on="0"/>
        <pt x="208" y="598" on="0"/>
        <pt x="163" y="575" on="0"/>
        <pt x="154" y="556" on="1"/>
        <pt x="140" y="528" on="0"/>
        <pt x="140" y="499" on="1"/>
        <pt x="140" y="429" on="0"/>
        <pt x="194" y="344" on="1"/>
        <pt x="199" y="348" on="0"/>
        <pt x="235" y="374" on="0"/>
        <pt x="253" y="388" on="0"/>
        <pt x="284" y="414" on="0"/>
        <pt x="301" y="434" on="0"/>
        <pt x="310" y="447" on="1"/>
        <pt x="329" y="472" on="0"/>
        <pt x="329" y="520" on="0"/>
      </contour>
    </TTGlyph>
    <TTGlyph name="apple" xMin="60" yMin="73" xMax="1287" yMax="760">
      <contour>
        <pt x="889" y="488" on="1"/>
        <pt x="894" y="394" on="1"/>
        <pt x="781" y="394" on="1"/>
        <pt x="781" y="554" on="0"/>
        <pt x="789" y="607" on="1"/>
        <pt x="792" y="627" on="1"/>
        <pt x="868" y="627" on="1"/>
        <pt x="874" y="585" on="0"/>
        <pt x="874" y="553" on="1"/>
        <pt x="876" y="563" on="1"/>
        <pt x="894" y="631" on="0"/>
        <pt x="955" y="631" on="1"/>
        <pt x="995" y="631" on="0"/>
        <pt x="1028" y="584" on="0"/>
        <pt x="1029" y="530" on="1"/>
        <pt x="1031" y="394" on="1"/>
        <pt x="919" y="394" on="1"/>
        <pt x="921" y="488" on="1"/>
        <pt x="921" y="513" on="0"/>
        <pt x="906" y="513" on="1"/>
        <pt x="889" y="513" on="0"/>
      </contour>
      <contour>
        <pt x="178" y="394" on="1"/>
        <pt x="62" y="394" on="1"/>
        <pt x="62" y="532" on="0"/>
        <pt x="70" y="662" on="1"/>
        <pt x="73" y="701" on="1"/>
        <pt x="168" y="701" on="1"/>
        <pt x="178" y="564" on="0"/>
      </contour>
      <contour>
        <pt x="1166" y="631" on="1"/>
        <pt x="1235" y="631" on="0"/>
        <pt x="1287" y="565" on="0"/>
        <pt x="1287" y="452" on="0"/>
        <pt x="1226" y="388" on="0"/>
        <pt x="1107" y="388" on="0"/>
        <pt x="1046" y="452" on="0"/>
        <pt x="1046" y="507" on="1"/>
        <pt x="1046" y="631" on="0"/>
      </contour>
      <contour>
        <pt x="1143" y="466" on="0"/>
        <pt x="1190" y="466" on="0"/>
        <pt x="1190" y="523" on="0"/>
        <pt x="1143" y="523" on="0"/>
      </contour>
      <contour>
        <pt x="329" y="631" on="1"/>
        <pt x="445" y="631" on="0"/>
        <pt x="445" y="519" on="1"/>
        <pt x="445" y="394" on="1"/>
        <pt x="369" y="394" on="1"/>
        <pt x="360" y="452" on="1"/>
        <pt x="348" y="388" on="0"/>
        <pt x="286" y="388" on="1"/>
        <pt x="197" y="388" on="0"/>
        <pt x="197" y="500" on="1"/>
        <pt x="197" y="565" on="0"/>
        <pt x="259" y="631" on="0"/>
      </contour>
      <contour>
        <pt x="324" y="466" on="1"/>
        <pt x="348" y="466" on="0"/>
        <pt x="348" y="523" on="0"/>
        <pt x="324" y="523" on="1"/>
        <pt x="303" y="523" on="0"/>
        <pt x="303" y="466" on="0"/>
      </contour>
      <contour>
        <pt x="682" y="363" on="1"/>
        <pt x="717" y="363" on="0"/>
        <pt x="760" y="304" on="0"/>
        <pt x="760" y="185" on="0"/>
        <pt x="694" y="115" on="0"/>
        <pt x="633" y="115" on="1"/>
        <pt x="635" y="100" on="0"/>
        <pt x="635" y="73" on="1"/>
        <pt x="508" y="73" on="1"/>
        <pt x="508" y="212" on="0"/>
        <pt x="516" y="322" on="1"/>
        <pt x="519" y="355" on="1"/>
        <pt x="597" y="355" on="1"/>
        <pt x="604" y="304" on="0"/>
        <pt x="604" y="280" on="1"/>
        <pt x="618" y="363" on="0"/>
      </contour>
      <contour>
        <pt x="656" y="232" on="1"/>
        <pt x="656" y="253" on="0"/>
        <pt x="637" y="253" on="1"/>
        <pt x="614" y="253" on="0"/>
        <pt x="614" y="223" on="1"/>
        <pt x="618" y="196" on="1"/>
        <pt x="632" y="196" on="0"/>
        <pt x="656" y="217" on="0"/>
      </contour>
      <contour>
        <pt x="941" y="189" on="1"/>
        <pt x="963" y="189" on="0"/>
        <pt x="982" y="204" on="1"/>
        <pt x="982" y="131" on="1"/>
        <pt x="961" y="115" on="0"/>
        <pt x="843" y="115" on="0"/>
        <pt x="777" y="180" on="0"/>
        <pt x="777" y="236" on="1"/>
        <pt x="777" y="363" on="0"/>
        <pt x="900" y="363" on="1"/>
        <pt x="952" y="363" on="0"/>
        <pt x="1012" y="302" on="0"/>
        <pt x="1012" y="249" on="1"/>
        <pt x="1007" y="213" on="1"/>
        <pt x="887" y="213" on="1"/>
        <pt x="887" y="189" on="0"/>
      </contour>
      <contour>
        <pt x="881" y="238" on="1"/>
        <pt x="920" y="238" on="1"/>
        <pt x="921" y="241" on="0"/>
        <pt x="921" y="246" on="1"/>
        <pt x="921" y="265" on="0"/>
        <pt x="903" y="265" on="1"/>
        <pt x="881" y="265" on="0"/>
      </contour>
      <contour>
        <pt x="479" y="452" on="1"/>
        <pt x="481" y="538" on="1"/>
        <pt x="458" y="538" on="1"/>
        <pt x="458" y="621" on="1"/>
        <pt x="574" y="657" on="1"/>
        <pt x="578" y="627" on="1"/>
        <pt x="750" y="627" on="1"/>
        <pt x="758" y="564" on="0"/>
        <pt x="758" y="394" on="1"/>
        <pt x="644" y="394" on="1"/>
        <pt x="644" y="504" on="0"/>
        <pt x="646" y="538" on="1"/>
        <pt x="589" y="538" on="1"/>
        <pt x="591" y="475" on="1"/>
        <pt x="593" y="473" on="0"/>
        <pt x="602" y="473" on="1"/>
        <pt x="619" y="477" on="1"/>
        <pt x="619" y="405" on="1"/>
        <pt x="612" y="388" on="0"/>
        <pt x="557" y="388" on="1"/>
        <pt x="479" y="388" on="0"/>
      </contour>
      <contour>
        <pt x="676" y="640" on="0"/>
        <pt x="642" y="675" on="0"/>
        <pt x="642" y="725" on="0"/>
        <pt x="676" y="760" on="0"/>
        <pt x="726" y="760" on="0"/>
        <pt x="760" y="725" on="0"/>
        <pt x="760" y="675" on="0"/>
        <pt x="726" y="640" on="0"/>
      </contour>
      <contour>
        <pt x="85" y="179" on="1"/>
        <pt x="87" y="261" on="1"/>
        <pt x="60" y="261" on="1"/>
        <pt x="60" y="344" on="1"/>
        <pt x="181" y="384" on="1"/>
        <pt x="185" y="355" on="1"/>
        <pt x="350" y="355" on="1"/>
        <pt x="348" y="253" on="0"/>
        <pt x="348" y="249" on="1"/>
        <pt x="348" y="223" on="0"/>
        <pt x="379" y="223" on="0"/>
        <pt x="379" y="249" on="1"/>
        <pt x="377" y="355" on="1"/>
        <pt x="483" y="355" on="1"/>
        <pt x="489" y="297" on="0"/>
        <pt x="489" y="139" on="0"/>
        <pt x="417" y="73" on="0"/>
        <pt x="278" y="73" on="0"/>
        <pt x="246" y="94" on="1"/>
        <pt x="246" y="177" on="1"/>
        <pt x="271" y="158" on="0"/>
        <pt x="347" y="158" on="0"/>
        <pt x="383" y="176" on="0"/>
        <pt x="386" y="185" on="1"/>
        <pt x="390" y="194" on="1"/>
        <pt x="379" y="179" on="0"/>
        <pt x="333" y="179" on="1"/>
        <pt x="240" y="179" on="0"/>
        <pt x="240" y="253" on="1"/>
        <pt x="240" y="261" on="1"/>
        <pt x="195" y="261" on="1"/>
        <pt x="197" y="200" on="1"/>
        <pt x="213" y="200" on="0"/>
        <pt x="225" y="206" on="1"/>
        <pt x="225" y="132" on="1"/>
        <pt x="207" y="115" on="0"/>
        <pt x="158" y="115" on="1"/>
        <pt x="85" y="115" on="0"/>
      </contour>
      <contour>
        <pt x="1089" y="327" on="1"/>
        <pt x="1089" y="318" on="0"/>
        <pt x="1081" y="315" on="1"/>
        <pt x="1089" y="302" on="1"/>
        <pt x="1080" y="302" on="1"/>
        <pt x="1073" y="313" on="1"/>
        <pt x="1066" y="313" on="1"/>
        <pt x="1066" y="302" on="1"/>
        <pt x="1058" y="302" on="1"/>
        <pt x="1058" y="339" on="1"/>
        <pt x="1074" y="339" on="1"/>
        <pt x="1089" y="339" on="0"/>
      </contour>
      <contour>
        <pt x="1081" y="320" on="0"/>
        <pt x="1081" y="332" on="0"/>
        <pt x="1074" y="332" on="1"/>
        <pt x="1066" y="332" on="1"/>
        <pt x="1066" y="320" on="1"/>
        <pt x="1074" y="320" on="1"/>
      </contour>
      <contour>
        <pt x="1035" y="305" on="0"/>
        <pt x="1035" y="335" on="0"/>
        <pt x="1057" y="357" on="0"/>
        <pt x="1087" y="357" on="0"/>
        <pt x="1109" y="335" on="0"/>
        <pt x="1109" y="305" on="0"/>
        <pt x="1087" y="283" on="0"/>
        <pt x="1057" y="283" on="0"/>
      </contour>
      <contour>
        <pt x="1042" y="332" on="0"/>
        <pt x="1042" y="308" on="0"/>
        <pt x="1060" y="290" on="0"/>
        <pt x="1084" y="290" on="0"/>
        <pt x="1102" y="308" on="0"/>
        <pt x="1102" y="332" on="0"/>
        <pt x="1084" y="350" on="0"/>
        <pt x="1060" y="350" on="0"/>
      </contour>
    </TTGlyph>
    <TTGlyph name="aring" xMin="45" yMin="-5" xMax="446" yMax="544">
      <contour>
        <pt x="158" y="-5" on="1"/>
        <pt x="106" y="-5" on="0"/>
        <pt x="45" y="48" on="0"/>
        <pt x="45" y="146" on="0"/>
        <pt x="123" y="199" on="0"/>
        <pt x="248" y="199" on="0"/>
        <pt x="334" y="176" on="1"/>
        <pt x="334" y="268" on="1"/>
        <pt x="334" y="298" on="0"/>
        <pt x="323" y="318" on="1"/>
        <pt x="299" y="362" on="0"/>
        <pt x="203" y="362" on="1"/>
        <pt x="130" y="362" on="0"/>
        <pt x="84" y="338" on="1"/>
        <pt x="84" y="253" on="1"/>
        <pt x="84" y="245" on="0"/>
        <pt x="67" y="245" on="0"/>
        <pt x="67" y="253" on="1"/>
        <pt x="67" y="343" on="1"/>
        <pt x="67" y="348" on="0"/>
        <pt x="71" y="350" on="1"/>
        <pt x="120" y="379" on="0"/>
        <pt x="276" y="379" on="0"/>
        <pt x="351" y="329" on="0"/>
        <pt x="351" y="268" on="1"/>
        <pt x="351" y="53" on="1"/>
        <pt x="351" y="17" on="0"/>
        <pt x="400" y="17" on="1"/>
        <pt x="438" y="17" on="1"/>
        <pt x="446" y="17" on="0"/>
        <pt x="446" y="0" on="0"/>
        <pt x="438" y="0" on="1"/>
        <pt x="400" y="0" on="1"/>
        <pt x="334" y="0" on="0"/>
        <pt x="334" y="53" on="1"/>
        <pt x="334" y="97" on="1"/>
        <pt x="269" y="-5" on="0"/>
      </contour>
      <contour>
        <pt x="136" y="183" on="0"/>
        <pt x="62" y="140" on="0"/>
        <pt x="62" y="56" on="0"/>
        <pt x="113" y="12" on="0"/>
        <pt x="158" y="12" on="1"/>
        <pt x="274" y="12" on="0"/>
        <pt x="334" y="127" on="1"/>
        <pt x="334" y="160" on="1"/>
        <pt x="251" y="183" on="0"/>
      </contour>
      <contour>
        <pt x="157" y="465" on="0"/>
        <pt x="157" y="513" on="0"/>
        <pt x="188" y="544" on="0"/>
        <pt x="236" y="544" on="0"/>
        <pt x="267" y="513" on="0"/>
        <pt x="267" y="465" on="0"/>
        <pt x="236" y="434" on="0"/>
        <pt x="188" y="434" on="0"/>
      </contour>
      <contour>
        <pt x="171" y="507" on="0"/>
        <pt x="171" y="471" on="0"/>
        <pt x="194" y="448" on="0"/>
        <pt x="230" y="448" on="0"/>
        <pt x="253" y="471" on="0"/>
        <pt x="253" y="507" on="0"/>
        <pt x="230" y="530" on="0"/>
        <pt x="194" y="530" on="0"/>
      </contour>
    </TTGlyph>
    <TTGlyph name="asciicircum" xMin="10" yMin="385" xMax="214" yMax="546">
      <contour>
        <pt x="21" y="389" on="1"/>
        <pt x="19" y="385" on="0"/>
        <pt x="10" y="385" on="0"/>
        <pt x="10" y="391" on="1"/>
        <pt x="10" y="393" on="0"/>
        <pt x="12" y="396" on="1"/>
        <pt x="104" y="541" on="1"/>
        <pt x="107" y="546" on="0"/>
        <pt x="117" y="546" on="0"/>
        <pt x="120" y="541" on="1"/>
        <pt x="212" y="396" on="1"/>
        <pt x="214" y="393" on="0"/>
        <pt x="214" y="391" on="1"/>
        <pt x="214" y="385" on="0"/>
        <pt x="205" y="385" on="0"/>
        <pt x="203" y="389" on="1"/>
        <pt x="112" y="524" on="1"/>
      </contour>
    </TTGlyph>
    <TTGlyph name="asciitilde" xMin="68" yMin="170" xMax="501" yMax="277">
      <contour>
        <pt x="85" y="178" on="1"/>
        <pt x="85" y="170" on="0"/>
        <pt x="68" y="170" on="0"/>
        <pt x="68" y="178" on="1"/>
        <pt x="68" y="220" on="0"/>
        <pt x="120" y="276" on="0"/>
        <pt x="164" y="276" on="1"/>
        <pt x="210" y="276" on="0"/>
        <pt x="252" y="253" on="1"/>
        <pt x="264" y="246" on="0"/>
        <pt x="312" y="216" on="0"/>
        <pt x="325" y="209" on="1"/>
        <pt x="364" y="188" on="0"/>
        <pt x="446" y="188" on="0"/>
        <pt x="484" y="235" on="0"/>
        <pt x="484" y="268" on="1"/>
        <pt x="484" y="277" on="0"/>
        <pt x="501" y="277" on="0"/>
        <pt x="501" y="268" on="1"/>
        <pt x="501" y="224" on="0"/>
        <pt x="448" y="171" on="0"/>
        <pt x="380" y="171" on="0"/>
        <pt x="331" y="186" on="0"/>
        <pt x="304" y="201" on="0"/>
        <pt x="280" y="216" on="1"/>
        <pt x="214" y="259" on="0"/>
        <pt x="124" y="259" on="0"/>
        <pt x="85" y="211" on="0"/>
      </contour>
    </TTGlyph>
    <TTGlyph name="asterisk" xMin="50" yMin="418" xMax="346" yMax="755">
      <contour>
        <pt x="341" y="512" on="1"/>
        <pt x="345" y="509" on="0"/>
        <pt x="345" y="504" on="0"/>
        <pt x="340" y="495" on="0"/>
        <pt x="333" y="499" on="1"/>
        <pt x="206" y="572" on="1"/>
        <pt x="206" y="426" on="1"/>
        <pt x="206" y="418" on="0"/>
        <pt x="189" y="418" on="0"/>
        <pt x="189" y="426" on="1"/>
        <pt x="189" y="572" on="1"/>
        <pt x="64" y="499" on="1"/>
        <pt x="57" y="495" on="0"/>
        <pt x="51" y="505" on="0"/>
        <pt x="51" y="511" on="0"/>
        <pt x="55" y="514" on="1"/>
        <pt x="181" y="586" on="1"/>
        <pt x="56" y="659" on="1"/>
        <pt x="52" y="662" on="0"/>
        <pt x="52" y="667" on="0"/>
        <pt x="53" y="670" on="1"/>
        <pt x="57" y="679" on="0"/>
        <pt x="65" y="674" on="1"/>
        <pt x="189" y="601" on="1"/>
        <pt x="189" y="747" on="1"/>
        <pt x="189" y="755" on="0"/>
        <pt x="206" y="755" on="0"/>
        <pt x="206" y="747" on="1"/>
        <pt x="206" y="600" on="1"/>
        <pt x="333" y="674" on="1"/>
        <pt x="340" y="678" on="0"/>
        <pt x="345" y="668" on="0"/>
        <pt x="345" y="663" on="0"/>
        <pt x="341" y="660" on="1"/>
        <pt x="214" y="586" on="1"/>
      </contour>
    </TTGlyph>
    <TTGlyph name="at" xMin="47" yMin="-229" xMax="860" yMax="613">
      <contour>
        <pt x="432" y="-5" on="1"/>
        <pt x="349" y="-5" on="0"/>
        <pt x="263" y="103" on="0"/>
        <pt x="263" y="274" on="0"/>
        <pt x="353" y="379" on="0"/>
        <pt x="523" y="379" on="0"/>
        <pt x="595" y="309" on="1"/>
        <pt x="595" y="370" on="1"/>
        <pt x="595" y="379" on="0"/>
        <pt x="612" y="379" on="0"/>
        <pt x="612" y="370" on="1"/>
        <pt x="612" y="53" on="1"/>
        <pt x="612" y="-6" on="0"/>
        <pt x="756" y="-6" on="0"/>
        <pt x="843" y="104" on="0"/>
        <pt x="843" y="191" on="1"/>
        <pt x="843" y="369" on="0"/>
        <pt x="624" y="596" on="0"/>
        <pt x="280" y="596" on="0"/>
        <pt x="64" y="370" on="0"/>
        <pt x="64" y="13" on="0"/>
        <pt x="280" y="-212" on="0"/>
        <pt x="451" y="-212" on="1"/>
        <pt x="588" y="-212" on="0"/>
        <pt x="687" y="-140" on="1"/>
        <pt x="694" y="-135" on="0"/>
        <pt x="704" y="-149" on="0"/>
        <pt x="697" y="-154" on="1"/>
        <pt x="594" y="-229" on="0"/>
        <pt x="451" y="-229" on="1"/>
        <pt x="269" y="-229" on="0"/>
        <pt x="47" y="8" on="0"/>
        <pt x="47" y="375" on="0"/>
        <pt x="271" y="613" on="0"/>
        <pt x="634" y="613" on="0"/>
        <pt x="860" y="371" on="0"/>
        <pt x="860" y="191" on="1"/>
        <pt x="860" y="100" on="0"/>
        <pt x="765" y="-23" on="0"/>
        <pt x="687" y="-23" on="1"/>
        <pt x="595" y="-23" on="0"/>
        <pt x="595" y="53" on="1"/>
        <pt x="595" y="96" on="1"/>
        <pt x="529" y="-5" on="0"/>
      </contour>
      <contour>
        <pt x="432" y="362" on="1"/>
        <pt x="362" y="362" on="0"/>
        <pt x="280" y="268" on="0"/>
        <pt x="280" y="106" on="0"/>
        <pt x="362" y="12" on="0"/>
        <pt x="432" y="12" on="1"/>
        <pt x="532" y="12" on="0"/>
        <pt x="595" y="127" on="1"/>
        <pt x="595" y="286" on="1"/>
        <pt x="566" y="318" on="0"/>
        <pt x="480" y="362" on="0"/>
      </contour>
    </TTGlyph>
    <TTGlyph name="atilde" xMin="45" yMin="-5" xMax="446" yMax="518">
      <contour>
        <pt x="158" y="-5" on="1"/>
        <pt x="106" y="-5" on="0"/>
        <pt x="45" y="48" on="0"/>
        <pt x="45" y="146" on="0"/>
        <pt x="123" y="199" on="0"/>
        <pt x="248" y="199" on="0"/>
        <pt x="334" y="176" on="1"/>
        <pt x="334" y="268" on="1"/>
        <pt x="334" y="329" on="0"/>
        <pt x="291" y="347" on="1"/>
        <pt x="256" y="362" on="0"/>
        <pt x="130" y="362" on="0"/>
        <pt x="84" y="338" on="1"/>
        <pt x="84" y="253" on="1"/>
        <pt x="84" y="245" on="0"/>
        <pt x="67" y="245" on="0"/>
        <pt x="67" y="253" on="1"/>
        <pt x="67" y="343" on="1"/>
        <pt x="67" y="348" on="0"/>
        <pt x="71" y="350" on="1"/>
        <pt x="120" y="379" on="0"/>
        <pt x="276" y="379" on="0"/>
        <pt x="351" y="329" on="0"/>
        <pt x="351" y="268" on="1"/>
        <pt x="351" y="53" on="1"/>
        <pt x="351" y="17" on="0"/>
        <pt x="400" y="17" on="1"/>
        <pt x="438" y="17" on="1"/>
        <pt x="446" y="17" on="0"/>
        <pt x="446" y="0" on="0"/>
        <pt x="438" y="0" on="1"/>
        <pt x="400" y="0" on="1"/>
        <pt x="334" y="0" on="0"/>
        <pt x="334" y="53" on="1"/>
        <pt x="334" y="97" on="1"/>
        <pt x="269" y="-5" on="0"/>
      </contour>
      <contour>
        <pt x="334" y="160" on="1"/>
        <pt x="251" y="183" on="0"/>
        <pt x="136" y="183" on="0"/>
        <pt x="62" y="140" on="0"/>
        <pt x="62" y="56" on="0"/>
        <pt x="113" y="12" on="0"/>
        <pt x="158" y="12" on="1"/>
        <pt x="274" y="12" on="0"/>
        <pt x="334" y="127" on="1"/>
      </contour>
      <contour>
        <pt x="128" y="502" on="0"/>
        <pt x="109" y="478" on="0"/>
        <pt x="109" y="455" on="0"/>
        <pt x="94" y="455" on="0"/>
        <pt x="94" y="462" on="1"/>
        <pt x="94" y="487" on="0"/>
        <pt x="124" y="518" on="0"/>
        <pt x="179" y="518" on="0"/>
        <pt x="253" y="470" on="0"/>
        <pt x="296" y="470" on="0"/>
        <pt x="315" y="494" on="0"/>
        <pt x="315" y="518" on="0"/>
        <pt x="330" y="518" on="0"/>
        <pt x="330" y="510" on="1"/>
        <pt x="330" y="486" on="0"/>
        <pt x="300" y="455" on="0"/>
        <pt x="249" y="455" on="0"/>
        <pt x="173" y="502" on="0"/>
      </contour>
    </TTGlyph>
    <TTGlyph name="b" xMin="-22" yMin="-5" xMax="423" yMax="750">
      <contour>
        <pt x="423" y="101" on="0"/>
        <pt x="333" y="-5" on="0"/>
        <pt x="162" y="-5" on="0"/>
        <pt x="90" y="63" on="1"/>
        <pt x="90" y="4" on="1"/>
        <pt x="90" y="-5" on="0"/>
        <pt x="73" y="-5" on="0"/>
        <pt x="73" y="4" on="1"/>
        <pt x="73" y="733" on="1"/>
        <pt x="-13" y="733" on="1"/>
        <pt x="-22" y="733" on="0"/>
        <pt x="-22" y="750" on="0"/>
        <pt x="-13" y="750" on="1"/>
        <pt x="82" y="750" on="1"/>
        <pt x="90" y="750" on="0"/>
        <pt x="90" y="741" on="1"/>
        <pt x="90" y="279" on="1"/>
        <pt x="156" y="379" on="0"/>
        <pt x="253" y="379" on="1"/>
        <pt x="334" y="379" on="0"/>
        <pt x="423" y="272" on="0"/>
      </contour>
      <contour>
        <pt x="253" y="12" on="1"/>
        <pt x="324" y="12" on="0"/>
        <pt x="406" y="106" on="0"/>
        <pt x="406" y="268" on="0"/>
        <pt x="324" y="362" on="0"/>
        <pt x="253" y="362" on="1"/>
        <pt x="153" y="362" on="0"/>
        <pt x="90" y="250" on="1"/>
        <pt x="90" y="83" on="1"/>
        <pt x="159" y="12" on="0"/>
      </contour>
    </TTGlyph>
    <TTGlyph name="backslash" xMin="32" yMin="-5" xMax="331" yMax="611">
      <contour>
        <pt x="33" y="603" on="1"/>
        <pt x="33" y="611" on="0"/>
        <pt x="48" y="611" on="0"/>
        <pt x="50" y="605" on="1"/>
        <pt x="329" y="9" on="1"/>
        <pt x="331" y="5" on="0"/>
        <pt x="331" y="2" on="1"/>
        <pt x="331" y="-5" on="0"/>
        <pt x="316" y="-5" on="0"/>
        <pt x="313" y="2" on="1"/>
        <pt x="34" y="598" on="1"/>
        <pt x="33" y="601" on="0"/>
      </contour>
    </TTGlyph>
    <TTGlyph name="bar" xMin="88" yMin="-229" xMax="105" yMax="751">
      <contour>
        <pt x="88" y="-220" on="1"/>
        <pt x="88" y="742" on="1"/>
        <pt x="88" y="751" on="0"/>
        <pt x="105" y="751" on="0"/>
        <pt x="105" y="742" on="1"/>
        <pt x="105" y="-220" on="1"/>
        <pt x="105" y="-229" on="0"/>
        <pt x="88" y="-229" on="0"/>
      </contour>
    </TTGlyph>
    <TTGlyph name="braceleft" xMin="38" yMin="-122" xMax="268" yMax="664">
      <contour>
        <pt x="259" y="-122" on="1"/>
        <pt x="224" y="-122" on="1"/>
        <pt x="153" y="-122" on="0"/>
        <pt x="64" y="-44" on="0"/>
        <pt x="64" y="22" on="1"/>
        <pt x="64" y="65" on="0"/>
        <pt x="135" y="184" on="0"/>
        <pt x="135" y="235" on="0"/>
        <pt x="84" y="262" on="0"/>
        <pt x="54" y="262" on="1"/>
        <pt x="46" y="262" on="1"/>
        <pt x="38" y="262" on="0"/>
        <pt x="38" y="279" on="0"/>
        <pt x="46" y="279" on="1"/>
        <pt x="54" y="279" on="1"/>
        <pt x="85" y="279" on="0"/>
        <pt x="135" y="307" on="0"/>
        <pt x="135" y="358" on="0"/>
        <pt x="64" y="475" on="0"/>
        <pt x="64" y="519" on="1"/>
        <pt x="64" y="587" on="0"/>
        <pt x="155" y="664" on="0"/>
        <pt x="224" y="664" on="1"/>
        <pt x="259" y="664" on="1"/>
        <pt x="268" y="664" on="0"/>
        <pt x="268" y="647" on="0"/>
        <pt x="259" y="647" on="1"/>
        <pt x="225" y="647" on="1"/>
        <pt x="159" y="647" on="0"/>
        <pt x="81" y="578" on="0"/>
        <pt x="81" y="519" on="1"/>
        <pt x="81" y="480" on="0"/>
        <pt x="152" y="364" on="0"/>
        <pt x="152" y="335" on="1"/>
        <pt x="152" y="290" on="0"/>
        <pt x="97" y="271" on="1"/>
        <pt x="121" y="263" on="0"/>
        <pt x="152" y="228" on="0"/>
        <pt x="152" y="178" on="0"/>
        <pt x="81" y="60" on="0"/>
        <pt x="81" y="22" on="1"/>
        <pt x="81" y="-36" on="0"/>
        <pt x="159" y="-105" on="0"/>
        <pt x="225" y="-105" on="1"/>
        <pt x="259" y="-105" on="1"/>
        <pt x="268" y="-105" on="0"/>
        <pt x="268" y="-122" on="0"/>
      </contour>
    </TTGlyph>
    <TTGlyph name="braceright" xMin="16" yMin="-122" xMax="246" yMax="664">
      <contour>
        <pt x="60" y="-122" on="1"/>
        <pt x="25" y="-122" on="1"/>
        <pt x="16" y="-122" on="0"/>
        <pt x="16" y="-105" on="0"/>
        <pt x="25" y="-105" on="1"/>
        <pt x="59" y="-105" on="1"/>
        <pt x="125" y="-105" on="0"/>
        <pt x="203" y="-36" on="0"/>
        <pt x="203" y="22" on="1"/>
        <pt x="203" y="60" on="0"/>
        <pt x="132" y="178" on="0"/>
        <pt x="132" y="228" on="0"/>
        <pt x="163" y="263" on="0"/>
        <pt x="187" y="271" on="1"/>
        <pt x="132" y="290" on="0"/>
        <pt x="132" y="335" on="1"/>
        <pt x="132" y="364" on="0"/>
        <pt x="203" y="480" on="0"/>
        <pt x="203" y="519" on="1"/>
        <pt x="203" y="578" on="0"/>
        <pt x="125" y="647" on="0"/>
        <pt x="59" y="647" on="1"/>
        <pt x="25" y="647" on="1"/>
        <pt x="16" y="647" on="0"/>
        <pt x="16" y="664" on="0"/>
        <pt x="25" y="664" on="1"/>
        <pt x="60" y="664" on="1"/>
        <pt x="129" y="664" on="0"/>
        <pt x="220" y="587" on="0"/>
        <pt x="220" y="519" on="1"/>
        <pt x="220" y="475" on="0"/>
        <pt x="149" y="358" on="0"/>
        <pt x="149" y="307" on="0"/>
        <pt x="199" y="279" on="0"/>
        <pt x="230" y="279" on="1"/>
        <pt x="238" y="279" on="1"/>
        <pt x="246" y="279" on="0"/>
        <pt x="246" y="262" on="0"/>
        <pt x="238" y="262" on="1"/>
        <pt x="230" y="262" on="1"/>
        <pt x="200" y="262" on="0"/>
        <pt x="149" y="235" on="0"/>
        <pt x="149" y="184" on="0"/>
        <pt x="220" y="65" on="0"/>
        <pt x="220" y="22" on="1"/>
        <pt x="220" y="-44" on="0"/>
        <pt x="131" y="-122" on="0"/>
      </contour>
    </TTGlyph>
    <TTGlyph name="bracketleft" xMin="91" yMin="-109" xMax="248" yMax="613">
      <contour>
        <pt x="91" y="-100" on="1"/>
        <pt x="91" y="604" on="1"/>
        <pt x="91" y="613" on="0"/>
        <pt x="99" y="613" on="1"/>
        <pt x="240" y="613" on="1"/>
        <pt x="248" y="613" on="0"/>
        <pt x="248" y="596" on="0"/>
        <pt x="240" y="596" on="1"/>
        <pt x="108" y="596" on="1"/>
        <pt x="108" y="-92" on="1"/>
        <pt x="240" y="-92" on="1"/>
        <pt x="248" y="-92" on="0"/>
        <pt x="248" y="-109" on="0"/>
        <pt x="240" y="-109" on="1"/>
        <pt x="99" y="-109" on="1"/>
        <pt x="91" y="-109" on="0"/>
      </contour>
    </TTGlyph>
    <TTGlyph name="bracketright" xMin="18" yMin="-109" xMax="175" yMax="613">
      <contour>
        <pt x="175" y="604" on="1"/>
        <pt x="175" y="-100" on="1"/>
        <pt x="175" y="-109" on="0"/>
        <pt x="167" y="-109" on="1"/>
        <pt x="26" y="-109" on="1"/>
        <pt x="18" y="-109" on="0"/>
        <pt x="18" y="-92" on="0"/>
        <pt x="26" y="-92" on="1"/>
        <pt x="158" y="-92" on="1"/>
        <pt x="158" y="596" on="1"/>
        <pt x="26" y="596" on="1"/>
        <pt x="18" y="596" on="0"/>
        <pt x="18" y="613" on="0"/>
        <pt x="26" y="613" on="1"/>
        <pt x="167" y="613" on="1"/>
        <pt x="175" y="613" on="0"/>
      </contour>
    </TTGlyph>
    <TTGlyph name="breve" xMin="30" yMin="454" xMax="208" yMax="552">
      <contour>
        <pt x="191" y="543" on="1"/>
        <pt x="191" y="552" on="0"/>
        <pt x="208" y="552" on="0"/>
        <pt x="208" y="543" on="1"/>
        <pt x="208" y="504" on="0"/>
        <pt x="157" y="454" on="0"/>
        <pt x="80" y="454" on="0"/>
        <pt x="30" y="504" on="0"/>
        <pt x="30" y="543" on="1"/>
        <pt x="30" y="552" on="0"/>
        <pt x="47" y="552" on="0"/>
        <pt x="47" y="543" on="1"/>
        <pt x="47" y="510" on="0"/>
        <pt x="87" y="469" on="0"/>
        <pt x="151" y="469" on="0"/>
        <pt x="191" y="510" on="0"/>
      </contour>
    </TTGlyph>
    <TTGlyph name="brokenbar" xMin="91" yMin="-189" xMax="108" yMax="711">
      <contour>
        <pt x="91" y="367" on="1"/>
        <pt x="91" y="702" on="1"/>
        <pt x="91" y="711" on="0"/>
        <pt x="108" y="711" on="0"/>
        <pt x="108" y="702" on="1"/>
        <pt x="108" y="367" on="1"/>
        <pt x="108" y="358" on="0"/>
        <pt x="91" y="358" on="0"/>
      </contour>
      <contour>
        <pt x="91" y="-180" on="1"/>
        <pt x="91" y="155" on="1"/>
        <pt x="91" y="164" on="0"/>
        <pt x="108" y="164" on="0"/>
        <pt x="108" y="155" on="1"/>
        <pt x="108" y="-180" on="1"/>
        <pt x="108" y="-189" on="0"/>
        <pt x="91" y="-189" on="0"/>
      </contour>
    </TTGlyph>
    <TTGlyph name="bullet" xMin="89" yMin="300" xMax="182" yMax="393">
      <contour>
        <pt x="89" y="326" on="0"/>
        <pt x="89" y="366" on="0"/>
        <pt x="115" y="393" on="0"/>
        <pt x="155" y="393" on="0"/>
        <pt x="182" y="366" on="0"/>
        <pt x="182" y="326" on="0"/>
        <pt x="155" y="300" on="0"/>
        <pt x="116" y="300" on="0"/>
      </contour>
    </TTGlyph>
    <TTGlyph name="c" xMin="48" yMin="-5" xMax="385" yMax="379">
      <contour>
        <pt x="227" y="-5" on="1"/>
        <pt x="146" y="-5" on="0"/>
        <pt x="48" y="106" on="0"/>
        <pt x="48" y="271" on="0"/>
        <pt x="151" y="379" on="0"/>
        <pt x="306" y="379" on="0"/>
        <pt x="363" y="342" on="1"/>
        <pt x="367" y="339" on="0"/>
        <pt x="367" y="335" on="1"/>
        <pt x="367" y="245" on="1"/>
        <pt x="367" y="237" on="0"/>
        <pt x="350" y="237" on="0"/>
        <pt x="350" y="245" on="1"/>
        <pt x="350" y="330" on="1"/>
        <pt x="298" y="362" on="0"/>
        <pt x="158" y="362" on="0"/>
        <pt x="65" y="264" on="0"/>
        <pt x="65" y="110" on="0"/>
        <pt x="156" y="12" on="0"/>
        <pt x="227" y="12" on="1"/>
        <pt x="323" y="12" on="0"/>
        <pt x="368" y="84" on="1"/>
        <pt x="373" y="91" on="0"/>
        <pt x="380" y="87" on="1"/>
        <pt x="384" y="84" on="0"/>
        <pt x="384" y="78" on="0"/>
        <pt x="383" y="75" on="1"/>
        <pt x="333" y="-5" on="0"/>
      </contour>
    </TTGlyph>
    <TTGlyph name="caron" xMin="7" yMin="452" xMax="159" yMax="546">
      <contour>
        <pt x="147" y="542" on="1"/>
        <pt x="150" y="545" on="0"/>
        <pt x="158" y="545" on="0"/>
        <pt x="158" y="540" on="1"/>
        <pt x="158" y="537" on="0"/>
        <pt x="156" y="535" on="1"/>
        <pt x="91" y="456" on="1"/>
        <pt x="87" y="452" on="0"/>
        <pt x="79" y="452" on="0"/>
        <pt x="75" y="456" on="1"/>
        <pt x="10" y="535" on="1"/>
        <pt x="8" y="537" on="0"/>
        <pt x="8" y="540" on="1"/>
        <pt x="8" y="545" on="0"/>
        <pt x="16" y="545" on="0"/>
        <pt x="19" y="542" on="1"/>
        <pt x="83" y="473" on="1"/>
      </contour>
    </TTGlyph>
    <TTGlyph name="ccedilla" xMin="48" yMin="-176" xMax="385" yMax="379">
      <contour>
        <pt x="302" y="-138" on="0"/>
        <pt x="250" y="-176" on="0"/>
        <pt x="188" y="-176" on="0"/>
        <pt x="133" y="-157" on="0"/>
        <pt x="133" y="-143" on="1"/>
        <pt x="133" y="-135" on="0"/>
        <pt x="141" y="-135" on="1"/>
        <pt x="145" y="-135" on="0"/>
        <pt x="149" y="-139" on="1"/>
        <pt x="169" y="-159" on="0"/>
        <pt x="240" y="-159" on="0"/>
        <pt x="282" y="-133" on="0"/>
        <pt x="282" y="-94" on="0"/>
        <pt x="262" y="-71" on="0"/>
        <pt x="248" y="-66" on="1"/>
        <pt x="224" y="-57" on="0"/>
        <pt x="200" y="-57" on="0"/>
        <pt x="200" y="-49" on="1"/>
        <pt x="200" y="-45" on="0"/>
        <pt x="202" y="-43" on="1"/>
        <pt x="221" y="-5" on="1"/>
        <pt x="142" y="-3" on="0"/>
        <pt x="48" y="108" on="0"/>
        <pt x="48" y="271" on="0"/>
        <pt x="151" y="379" on="0"/>
        <pt x="306" y="379" on="0"/>
        <pt x="363" y="342" on="1"/>
        <pt x="367" y="339" on="0"/>
        <pt x="367" y="335" on="1"/>
        <pt x="367" y="245" on="1"/>
        <pt x="367" y="237" on="0"/>
        <pt x="350" y="237" on="0"/>
        <pt x="350" y="245" on="1"/>
        <pt x="350" y="330" on="1"/>
        <pt x="298" y="362" on="0"/>
        <pt x="158" y="362" on="0"/>
        <pt x="65" y="264" on="0"/>
        <pt x="65" y="110" on="0"/>
        <pt x="156" y="12" on="0"/>
        <pt x="227" y="12" on="1"/>
        <pt x="323" y="12" on="0"/>
        <pt x="368" y="84" on="1"/>
        <pt x="373" y="91" on="0"/>
        <pt x="380" y="87" on="1"/>
        <pt x="384" y="84" on="0"/>
        <pt x="384" y="78" on="0"/>
        <pt x="383" y="75" on="1"/>
        <pt x="338" y="2" on="0"/>
        <pt x="241" y="-4" on="1"/>
        <pt x="223" y="-42" on="1"/>
        <pt x="259" y="-46" on="0"/>
        <pt x="302" y="-84" on="0"/>
      </contour>
    </TTGlyph>
    <TTGlyph name="cedilla" xMin="22" yMin="-176" xMax="191" yMax="7">
      <contour>
        <pt x="191" y="-138" on="0"/>
        <pt x="139" y="-176" on="0"/>
        <pt x="77" y="-176" on="0"/>
        <pt x="22" y="-157" on="0"/>
        <pt x="22" y="-143" on="1"/>
        <pt x="22" y="-135" on="0"/>
        <pt x="30" y="-135" on="1"/>
        <pt x="34" y="-135" on="0"/>
        <pt x="38" y="-139" on="1"/>
        <pt x="58" y="-159" on="0"/>
        <pt x="129" y="-159" on="0"/>
        <pt x="171" y="-133" on="0"/>
        <pt x="171" y="-94" on="0"/>
        <pt x="151" y="-71" on="0"/>
        <pt x="138" y="-66" on="1"/>
        <pt x="113" y="-57" on="0"/>
        <pt x="89" y="-57" on="0"/>
        <pt x="89" y="-49" on="1"/>
        <pt x="89" y="-45" on="0"/>
        <pt x="91" y="-43" on="1"/>
        <pt x="116" y="7" on="1"/>
        <pt x="132" y="-1" on="1"/>
        <pt x="112" y="-42" on="1"/>
        <pt x="147" y="-46" on="0"/>
        <pt x="191" y="-84" on="0"/>
      </contour>
    </TTGlyph>
    <TTGlyph name="cent" xMin="50" yMin="-128" xMax="387" yMax="502">
      <contour>
        <pt x="221" y="493" on="1"/>
        <pt x="221" y="502" on="0"/>
        <pt x="238" y="502" on="0"/>
        <pt x="238" y="493" on="1"/>
        <pt x="238" y="379" on="1"/>
        <pt x="309" y="377" on="0"/>
        <pt x="365" y="342" on="1"/>
        <pt x="369" y="339" on="0"/>
        <pt x="369" y="335" on="1"/>
        <pt x="369" y="245" on="1"/>
        <pt x="369" y="237" on="0"/>
        <pt x="352" y="237" on="0"/>
        <pt x="352" y="245" on="1"/>
        <pt x="352" y="330" on="1"/>
        <pt x="302" y="360" on="0"/>
        <pt x="238" y="362" on="1"/>
        <pt x="238" y="12" on="1"/>
        <pt x="326" y="15" on="0"/>
        <pt x="370" y="84" on="1"/>
        <pt x="375" y="91" on="0"/>
        <pt x="382" y="87" on="1"/>
        <pt x="386" y="84" on="0"/>
        <pt x="386" y="78" on="0"/>
        <pt x="385" y="75" on="1"/>
        <pt x="337" y="0" on="0"/>
        <pt x="238" y="-5" on="1"/>
        <pt x="238" y="-119" on="1"/>
        <pt x="238" y="-128" on="0"/>
        <pt x="221" y="-128" on="0"/>
        <pt x="221" y="-119" on="1"/>
        <pt x="221" y="-5" on="1"/>
        <pt x="143" y="-2" on="0"/>
        <pt x="50" y="108" on="0"/>
        <pt x="50" y="267" on="0"/>
        <pt x="145" y="373" on="0"/>
        <pt x="221" y="378" on="1"/>
      </contour>
      <contour>
        <pt x="153" y="356" on="0"/>
        <pt x="67" y="260" on="0"/>
        <pt x="67" y="112" on="0"/>
        <pt x="153" y="15" on="0"/>
        <pt x="221" y="12" on="1"/>
        <pt x="221" y="361" on="1"/>
      </contour>
    </TTGlyph>
    <TTGlyph name="circumflex" xMin="7" yMin="451" xMax="159" yMax="545">
      <contour>
        <pt x="19" y="455" on="1"/>
        <pt x="16" y="452" on="0"/>
        <pt x="8" y="452" on="0"/>
        <pt x="8" y="458" on="1"/>
        <pt x="8" y="460" on="0"/>
        <pt x="10" y="462" on="1"/>
        <pt x="75" y="541" on="1"/>
        <pt x="79" y="545" on="0"/>
        <pt x="87" y="545" on="0"/>
        <pt x="91" y="541" on="1"/>
        <pt x="156" y="462" on="1"/>
        <pt x="158" y="460" on="0"/>
        <pt x="158" y="458" on="1"/>
        <pt x="158" y="452" on="0"/>
        <pt x="150" y="452" on="0"/>
        <pt x="147" y="455" on="1"/>
        <pt x="83" y="524" on="1"/>
      </contour>
    </TTGlyph>
    <TTGlyph name="colon" xMin="66" yMin="-5" xMax="98" yMax="379">
      <contour>
        <pt x="66" y="-5" on="0"/>
        <pt x="66" y="27" on="0"/>
        <pt x="98" y="27" on="0"/>
        <pt x="98" y="-5" on="0"/>
      </contour>
      <contour>
        <pt x="66" y="347" on="0"/>
        <pt x="66" y="379" on="0"/>
        <pt x="98" y="379" on="0"/>
        <pt x="98" y="347" on="0"/>
      </contour>
    </TTGlyph>
    <TTGlyph name="comma" xMin="39" yMin="-43" xMax="87" yMax="27">
      <contour>
        <pt x="87" y="-4" on="0"/>
        <pt x="61" y="-35" on="0"/>
        <pt x="45" y="-43" on="0"/>
        <pt x="39" y="-43" on="0"/>
        <pt x="39" y="-36" on="0"/>
        <pt x="42" y="-34" on="1"/>
        <pt x="57" y="-24" on="0"/>
        <pt x="65" y="-4" on="1"/>
        <pt x="55" y="-1" on="0"/>
        <pt x="55" y="11" on="1"/>
        <pt x="55" y="27" on="0"/>
        <pt x="87" y="27" on="0"/>
      </contour>
    </TTGlyph>
    <TTGlyph name="copyright" xMin="54" yMin="-5" xMax="650" yMax="613">
      <contour>
        <pt x="281" y="138" on="0"/>
        <pt x="194" y="229" on="0"/>
        <pt x="194" y="378" on="0"/>
        <pt x="281" y="470" on="0"/>
        <pt x="410" y="470" on="0"/>
        <pt x="457" y="445" on="1"/>
        <pt x="463" y="442" on="0"/>
        <pt x="463" y="438" on="1"/>
        <pt x="463" y="390" on="1"/>
        <pt x="463" y="382" on="0"/>
        <pt x="448" y="382" on="0"/>
        <pt x="448" y="390" on="1"/>
        <pt x="448" y="433" on="1"/>
        <pt x="404" y="455" on="0"/>
        <pt x="287" y="455" on="0"/>
        <pt x="209" y="371" on="0"/>
        <pt x="209" y="237" on="0"/>
        <pt x="287" y="153" on="0"/>
        <pt x="415" y="153" on="0"/>
        <pt x="461" y="201" on="1"/>
        <pt x="466" y="206" on="0"/>
        <pt x="475" y="197" on="0"/>
        <pt x="472" y="192" on="1"/>
        <pt x="428" y="138" on="0"/>
      </contour>
      <contour>
        <pt x="54" y="168" on="0"/>
        <pt x="54" y="440" on="0"/>
        <pt x="220" y="613" on="0"/>
        <pt x="484" y="613" on="0"/>
        <pt x="650" y="440" on="0"/>
        <pt x="650" y="168" on="0"/>
        <pt x="484" y="-5" on="0"/>
        <pt x="220" y="-5" on="0"/>
      </contour>
      <contour>
        <pt x="71" y="433" on="0"/>
        <pt x="71" y="175" on="0"/>
        <pt x="227" y="12" on="0"/>
        <pt x="477" y="12" on="0"/>
        <pt x="633" y="175" on="0"/>
        <pt x="633" y="433" on="0"/>
        <pt x="477" y="596" on="0"/>
        <pt x="227" y="596" on="0"/>
      </contour>
    </TTGlyph>
    <TTGlyph name="currency" xMin="66" yMin="49" xMax="342" yMax="324">
      <contour>
        <pt x="97" y="145" on="0"/>
        <pt x="97" y="229" on="0"/>
        <pt x="120" y="258" on="1"/>
        <pt x="70" y="308" on="1"/>
        <pt x="67" y="311" on="0"/>
        <pt x="67" y="318" on="0"/>
        <pt x="73" y="323" on="0"/>
        <pt x="75" y="323" on="1"/>
        <pt x="82" y="320" on="1"/>
        <pt x="131" y="270" on="1"/>
        <pt x="161" y="297" on="0"/>
        <pt x="245" y="297" on="0"/>
        <pt x="274" y="270" on="1"/>
        <pt x="325" y="320" on="1"/>
        <pt x="329" y="323" on="0"/>
        <pt x="335" y="323" on="0"/>
        <pt x="340" y="318" on="0"/>
        <pt x="340" y="311" on="0"/>
        <pt x="337" y="308" on="1"/>
        <pt x="286" y="257" on="1"/>
        <pt x="309" y="229" on="0"/>
        <pt x="309" y="147" on="0"/>
        <pt x="286" y="116" on="1"/>
        <pt x="338" y="65" on="1"/>
        <pt x="341" y="61" on="0"/>
        <pt x="341" y="55" on="0"/>
        <pt x="336" y="50" on="0"/>
        <pt x="329" y="50" on="0"/>
        <pt x="326" y="53" on="1"/>
        <pt x="275" y="104" on="1"/>
        <pt x="245" y="76" on="0"/>
        <pt x="160" y="76" on="0"/>
        <pt x="131" y="103" on="1"/>
        <pt x="82" y="54" on="1"/>
        <pt x="79" y="51" on="0"/>
        <pt x="72" y="51" on="0"/>
        <pt x="67" y="57" on="0"/>
        <pt x="67" y="63" on="0"/>
        <pt x="70" y="66" on="1"/>
        <pt x="120" y="116" on="1"/>
      </contour>
      <contour>
        <pt x="293" y="145" on="0"/>
        <pt x="293" y="229" on="0"/>
        <pt x="243" y="282" on="0"/>
        <pt x="163" y="282" on="0"/>
        <pt x="113" y="229" on="0"/>
        <pt x="113" y="145" on="0"/>
        <pt x="163" y="91" on="0"/>
        <pt x="243" y="91" on="0"/>
      </contour>
    </TTGlyph>
    <TTGlyph name="d" xMin="49" yMin="-5" xMax="494" yMax="750">
      <contour>
        <pt x="219" y="-5" on="1"/>
        <pt x="135" y="-5" on="0"/>
        <pt x="49" y="106" on="0"/>
        <pt x="49" y="270" on="0"/>
        <pt x="137" y="379" on="0"/>
        <pt x="309" y="379" on="0"/>
        <pt x="382" y="308" on="1"/>
        <pt x="382" y="733" on="1"/>
        <pt x="296" y="733" on="1"/>
        <pt x="287" y="733" on="0"/>
        <pt x="287" y="750" on="0"/>
        <pt x="296" y="750" on="1"/>
        <pt x="391" y="750" on="1"/>
        <pt x="399" y="750" on="0"/>
        <pt x="399" y="742" on="1"/>
        <pt x="399" y="53" on="1"/>
        <pt x="399" y="17" on="0"/>
        <pt x="448" y="17" on="1"/>
        <pt x="486" y="17" on="1"/>
        <pt x="494" y="17" on="0"/>
        <pt x="494" y="0" on="0"/>
        <pt x="486" y="0" on="1"/>
        <pt x="448" y="0" on="1"/>
        <pt x="382" y="0" on="0"/>
        <pt x="382" y="53" on="1"/>
        <pt x="382" y="97" on="1"/>
        <pt x="316" y="-5" on="0"/>
      </contour>
      <contour>
        <pt x="219" y="362" on="1"/>
        <pt x="148" y="362" on="0"/>
        <pt x="66" y="268" on="0"/>
        <pt x="66" y="106" on="0"/>
        <pt x="148" y="12" on="0"/>
        <pt x="219" y="12" on="1"/>
        <pt x="319" y="12" on="0"/>
        <pt x="382" y="127" on="1"/>
        <pt x="382" y="286" on="1"/>
        <pt x="353" y="318" on="0"/>
        <pt x="267" y="362" on="0"/>
      </contour>
    </TTGlyph>
    <TTGlyph name="dagger" xMin="37" yMin="-176" xMax="314" yMax="613">
      <contour>
        <pt x="45" y="374" on="1"/>
        <pt x="166" y="374" on="1"/>
        <pt x="166" y="604" on="1"/>
        <pt x="166" y="613" on="0"/>
        <pt x="183" y="613" on="0"/>
        <pt x="183" y="604" on="1"/>
        <pt x="183" y="374" on="1"/>
        <pt x="306" y="374" on="1"/>
        <pt x="314" y="374" on="0"/>
        <pt x="314" y="357" on="0"/>
        <pt x="306" y="357" on="1"/>
        <pt x="183" y="357" on="1"/>
        <pt x="183" y="-167" on="1"/>
        <pt x="183" y="-176" on="0"/>
        <pt x="166" y="-176" on="0"/>
        <pt x="166" y="-167" on="1"/>
        <pt x="166" y="357" on="1"/>
        <pt x="45" y="357" on="1"/>
        <pt x="37" y="357" on="0"/>
        <pt x="37" y="374" on="0"/>
      </contour>
    </TTGlyph>
    <TTGlyph name="daggerdbl" xMin="40" yMin="-176" xMax="317" yMax="613">
      <contour>
        <pt x="48" y="374" on="1"/>
        <pt x="169" y="374" on="1"/>
        <pt x="169" y="604" on="1"/>
        <pt x="169" y="613" on="0"/>
        <pt x="186" y="613" on="0"/>
        <pt x="186" y="604" on="1"/>
        <pt x="186" y="374" on="1"/>
        <pt x="309" y="374" on="1"/>
        <pt x="317" y="374" on="0"/>
        <pt x="317" y="357" on="0"/>
        <pt x="309" y="357" on="1"/>
        <pt x="186" y="357" on="1"/>
        <pt x="186" y="152" on="1"/>
        <pt x="309" y="152" on="1"/>
        <pt x="317" y="152" on="0"/>
        <pt x="317" y="135" on="0"/>
        <pt x="309" y="135" on="1"/>
        <pt x="186" y="135" on="1"/>
        <pt x="186" y="-167" on="1"/>
        <pt x="186" y="-176" on="0"/>
        <pt x="169" y="-176" on="0"/>
        <pt x="169" y="-167" on="1"/>
        <pt x="169" y="135" on="1"/>
        <pt x="48" y="135" on="1"/>
        <pt x="40" y="135" on="0"/>
        <pt x="40" y="152" on="0"/>
        <pt x="48" y="152" on="1"/>
        <pt x="169" y="152" on="1"/>
        <pt x="169" y="357" on="1"/>
        <pt x="48" y="357" on="1"/>
        <pt x="40" y="357" on="0"/>
        <pt x="40" y="374" on="0"/>
      </contour>
    </TTGlyph>
    <TTGlyph name="degree" xMin="49" yMin="422" xMax="234" yMax="613">
      <contour>
        <pt x="182" y="422" on="0"/>
        <pt x="100" y="422" on="0"/>
        <pt x="49" y="475" on="0"/>
        <pt x="49" y="560" on="0"/>
        <pt x="100" y="613" on="0"/>
        <pt x="183" y="613" on="0"/>
        <pt x="234" y="559" on="0"/>
        <pt x="234" y="475" on="0"/>
      </contour>
      <contour>
        <pt x="218" y="553" on="0"/>
        <pt x="176" y="598" on="0"/>
        <pt x="107" y="598" on="0"/>
        <pt x="64" y="553" on="0"/>
        <pt x="64" y="482" on="0"/>
        <pt x="107" y="437" on="0"/>
        <pt x="176" y="437" on="0"/>
        <pt x="218" y="481" on="0"/>
      </contour>
    </TTGlyph>
    <TTGlyph name="dieresis" xMin="34" yMin="482" xMax="169" yMax="512">
      <contour>
        <pt x="34" y="491" on="0"/>
        <pt x="34" y="503" on="0"/>
        <pt x="43" y="512" on="0"/>
        <pt x="55" y="512" on="0"/>
        <pt x="64" y="503" on="0"/>
        <pt x="64" y="491" on="0"/>
        <pt x="55" y="482" on="0"/>
        <pt x="43" y="482" on="0"/>
      </contour>
      <contour>
        <pt x="139" y="491" on="0"/>
        <pt x="139" y="503" on="0"/>
        <pt x="148" y="512" on="0"/>
        <pt x="160" y="512" on="0"/>
        <pt x="169" y="503" on="0"/>
        <pt x="169" y="491" on="0"/>
        <pt x="160" y="482" on="0"/>
        <pt x="148" y="482" on="0"/>
      </contour>
    </TTGlyph>
    <TTGlyph name="divide" xMin="69" yMin="75" xMax="286" yMax="299">
      <contour>
        <pt x="278" y="195" on="1"/>
        <pt x="286" y="195" on="0"/>
        <pt x="286" y="178" on="0"/>
        <pt x="278" y="178" on="1"/>
        <pt x="77" y="178" on="1"/>
        <pt x="69" y="178" on="0"/>
        <pt x="69" y="195" on="0"/>
        <pt x="77" y="195" on="1"/>
      </contour>
      <contour>
        <pt x="161" y="75" on="0"/>
        <pt x="161" y="107" on="0"/>
        <pt x="193" y="107" on="0"/>
        <pt x="193" y="75" on="0"/>
      </contour>
      <contour>
        <pt x="161" y="267" on="0"/>
        <pt x="161" y="299" on="0"/>
        <pt x="193" y="299" on="0"/>
        <pt x="193" y="267" on="0"/>
      </contour>
    </TTGlyph>
    <TTGlyph name="dollar" xMin="42" yMin="-164" xMax="513" yMax="751">
      <contour>
        <pt x="271" y="742" on="1"/>
        <pt x="271" y="751" on="0"/>
        <pt x="288" y="751" on="0"/>
        <pt x="288" y="742" on="1"/>
        <pt x="288" y="613" on="1"/>
        <pt x="406" y="611" on="0"/>
        <pt x="486" y="568" on="1"/>
        <pt x="492" y="565" on="0"/>
        <pt x="492" y="560" on="1"/>
        <pt x="492" y="474" on="1"/>
        <pt x="492" y="465" on="0"/>
        <pt x="475" y="465" on="0"/>
        <pt x="475" y="474" on="1"/>
        <pt x="475" y="555" on="1"/>
        <pt x="403" y="594" on="0"/>
        <pt x="288" y="596" on="1"/>
        <pt x="288" y="328" on="1"/>
        <pt x="419" y="302" on="0"/>
        <pt x="466" y="261" on="1"/>
        <pt x="513" y="220" on="0"/>
        <pt x="513" y="84" on="0"/>
        <pt x="397" y="0" on="0"/>
        <pt x="288" y="-4" on="1"/>
        <pt x="288" y="-155" on="1"/>
        <pt x="288" y="-164" on="0"/>
        <pt x="271" y="-164" on="0"/>
        <pt x="271" y="-155" on="1"/>
        <pt x="271" y="-5" on="1"/>
        <pt x="211" y="-5" on="0"/>
        <pt x="80" y="20" on="0"/>
        <pt x="46" y="41" on="1"/>
        <pt x="42" y="43" on="0"/>
        <pt x="42" y="48" on="1"/>
        <pt x="42" y="134" on="1"/>
        <pt x="42" y="143" on="0"/>
        <pt x="59" y="143" on="0"/>
        <pt x="59" y="134" on="1"/>
        <pt x="59" y="53" on="1"/>
        <pt x="93" y="34" on="0"/>
        <pt x="215" y="12" on="0"/>
        <pt x="271" y="12" on="1"/>
        <pt x="271" y="314" on="1"/>
        <pt x="159" y="336" on="0"/>
        <pt x="55" y="398" on="0"/>
        <pt x="55" y="540" on="0"/>
        <pt x="161" y="611" on="0"/>
        <pt x="271" y="613" on="1"/>
      </contour>
      <contour>
        <pt x="388" y="16" on="0"/>
        <pt x="496" y="89" on="0"/>
        <pt x="496" y="224" on="0"/>
        <pt x="391" y="290" on="0"/>
        <pt x="288" y="311" on="1"/>
        <pt x="288" y="12" on="1"/>
      </contour>
      <contour>
        <pt x="72" y="466" on="1"/>
        <pt x="72" y="416" on="0"/>
        <pt x="111" y="386" on="1"/>
        <pt x="141" y="362" on="0"/>
        <pt x="210" y="346" on="1"/>
        <pt x="232" y="340" on="0"/>
        <pt x="271" y="332" on="1"/>
        <pt x="271" y="596" on="1"/>
        <pt x="168" y="594" on="0"/>
        <pt x="72" y="532" on="0"/>
      </contour>
    </TTGlyph>
    <TTGlyph name="e" xMin="48" yMin="-5" xMax="388" yMax="379">
      <contour>
        <pt x="229" y="-5" on="1"/>
        <pt x="144" y="-5" on="0"/>
        <pt x="48" y="104" on="0"/>
        <pt x="48" y="273" on="0"/>
        <pt x="148" y="379" on="0"/>
        <pt x="310" y="379" on="0"/>
        <pt x="388" y="281" on="0"/>
        <pt x="388" y="197" on="1"/>
        <pt x="388" y="188" on="0"/>
        <pt x="380" y="188" on="1"/>
        <pt x="65" y="188" on="1"/>
        <pt x="65" y="187" on="1"/>
        <pt x="65" y="107" on="0"/>
        <pt x="154" y="12" on="0"/>
        <pt x="229" y="12" on="1"/>
        <pt x="325" y="12" on="0"/>
        <pt x="370" y="84" on="1"/>
        <pt x="375" y="91" on="0"/>
        <pt x="389" y="82" on="0"/>
        <pt x="385" y="75" on="1"/>
        <pt x="335" y="-5" on="0"/>
      </contour>
      <contour>
        <pt x="371" y="205" on="1"/>
        <pt x="371" y="276" on="0"/>
        <pt x="301" y="362" on="0"/>
        <pt x="159" y="362" on="0"/>
        <pt x="71" y="276" on="0"/>
        <pt x="65" y="205" on="1"/>
      </contour>
    </TTGlyph>
    <TTGlyph name="eacute" xMin="48" yMin="-5" xMax="388" yMax="555">
      <contour>
        <pt x="229" y="-5" on="1"/>
        <pt x="144" y="-5" on="0"/>
        <pt x="48" y="104" on="0"/>
        <pt x="48" y="273" on="0"/>
        <pt x="148" y="379" on="0"/>
        <pt x="310" y="379" on="0"/>
        <pt x="388" y="281" on="0"/>
        <pt x="388" y="197" on="1"/>
        <pt x="388" y="188" on="0"/>
        <pt x="380" y="188" on="1"/>
        <pt x="65" y="188" on="1"/>
        <pt x="65" y="187" on="1"/>
        <pt x="65" y="107" on="0"/>
        <pt x="154" y="12" on="0"/>
        <pt x="229" y="12" on="1"/>
        <pt x="325" y="12" on="0"/>
        <pt x="370" y="84" on="1"/>
        <pt x="375" y="91" on="0"/>
        <pt x="389" y="82" on="0"/>
        <pt x="385" y="75" on="1"/>
        <pt x="335" y="-5" on="0"/>
      </contour>
      <contour>
        <pt x="371" y="205" on="1"/>
        <pt x="371" y="276" on="0"/>
        <pt x="301" y="362" on="0"/>
        <pt x="159" y="362" on="0"/>
        <pt x="71" y="276" on="0"/>
        <pt x="65" y="205" on="1"/>
      </contour>
      <contour>
        <pt x="193" y="454" on="1"/>
        <pt x="187" y="454" on="0"/>
        <pt x="187" y="460" on="1"/>
        <pt x="187" y="462" on="0"/>
        <pt x="190" y="465" on="1"/>
        <pt x="273" y="552" on="1"/>
        <pt x="275" y="555" on="0"/>
        <pt x="280" y="555" on="1"/>
        <pt x="289" y="555" on="0"/>
        <pt x="289" y="547" on="1"/>
        <pt x="289" y="544" on="0"/>
        <pt x="286" y="541" on="1"/>
        <pt x="198" y="457" on="1"/>
        <pt x="195" y="454" on="0"/>
      </contour>
    </TTGlyph>
    <TTGlyph name="ecircumflex" xMin="48" yMin="-5" xMax="388" yMax="545">
      <contour>
        <pt x="229" y="-5" on="1"/>
        <pt x="144" y="-5" on="0"/>
        <pt x="48" y="104" on="0"/>
        <pt x="48" y="273" on="0"/>
        <pt x="148" y="379" on="0"/>
        <pt x="310" y="379" on="0"/>
        <pt x="388" y="281" on="0"/>
        <pt x="388" y="197" on="1"/>
        <pt x="388" y="188" on="0"/>
        <pt x="380" y="188" on="1"/>
        <pt x="65" y="188" on="1"/>
        <pt x="65" y="187" on="1"/>
        <pt x="65" y="107" on="0"/>
        <pt x="154" y="12" on="0"/>
        <pt x="229" y="12" on="1"/>
        <pt x="325" y="12" on="0"/>
        <pt x="370" y="84" on="1"/>
        <pt x="375" y="91" on="0"/>
        <pt x="389" y="82" on="0"/>
        <pt x="385" y="75" on="1"/>
        <pt x="335" y="-5" on="0"/>
      </contour>
      <contour>
        <pt x="371" y="205" on="1"/>
        <pt x="371" y="276" on="0"/>
        <pt x="301" y="362" on="0"/>
        <pt x="159" y="362" on="0"/>
        <pt x="71" y="276" on="0"/>
        <pt x="65" y="205" on="1"/>
      </contour>
      <contour>
        <pt x="154" y="455" on="1"/>
        <pt x="151" y="452" on="0"/>
        <pt x="143" y="452" on="0"/>
        <pt x="143" y="458" on="1"/>
        <pt x="143" y="460" on="0"/>
        <pt x="145" y="462" on="1"/>
        <pt x="210" y="541" on="1"/>
        <pt x="214" y="545" on="0"/>
        <pt x="222" y="545" on="0"/>
        <pt x="226" y="541" on="1"/>
        <pt x="291" y="462" on="1"/>
        <pt x="293" y="460" on="0"/>
        <pt x="293" y="458" on="1"/>
        <pt x="293" y="452" on="0"/>
        <pt x="285" y="452" on="0"/>
        <pt x="282" y="455" on="1"/>
        <pt x="218" y="524" on="1"/>
      </contour>
    </TTGlyph>
    <TTGlyph name="edieresis" xMin="48" yMin="-5" xMax="388" yMax="512">
      <contour>
        <pt x="229" y="-5" on="1"/>
        <pt x="144" y="-5" on="0"/>
        <pt x="48" y="104" on="0"/>
        <pt x="48" y="273" on="0"/>
        <pt x="148" y="379" on="0"/>
        <pt x="310" y="379" on="0"/>
        <pt x="388" y="281" on="0"/>
        <pt x="388" y="197" on="1"/>
        <pt x="388" y="188" on="0"/>
        <pt x="380" y="188" on="1"/>
        <pt x="65" y="188" on="1"/>
        <pt x="65" y="187" on="1"/>
        <pt x="65" y="107" on="0"/>
        <pt x="154" y="12" on="0"/>
        <pt x="229" y="12" on="1"/>
        <pt x="325" y="12" on="0"/>
        <pt x="370" y="84" on="1"/>
        <pt x="375" y="91" on="0"/>
        <pt x="389" y="82" on="0"/>
        <pt x="385" y="75" on="1"/>
        <pt x="335" y="-5" on="0"/>
      </contour>
      <contour>
        <pt x="159" y="362" on="0"/>
        <pt x="71" y="276" on="0"/>
        <pt x="65" y="205" on="1"/>
        <pt x="371" y="205" on="1"/>
        <pt x="371" y="276" on="0"/>
        <pt x="301" y="362" on="0"/>
      </contour>
      <contour>
        <pt x="161" y="491" on="0"/>
        <pt x="161" y="503" on="0"/>
        <pt x="170" y="512" on="0"/>
        <pt x="182" y="512" on="0"/>
        <pt x="191" y="503" on="0"/>
        <pt x="191" y="491" on="0"/>
        <pt x="182" y="482" on="0"/>
        <pt x="170" y="482" on="0"/>
      </contour>
      <contour>
        <pt x="266" y="491" on="0"/>
        <pt x="266" y="503" on="0"/>
        <pt x="275" y="512" on="0"/>
        <pt x="287" y="512" on="0"/>
        <pt x="296" y="503" on="0"/>
        <pt x="296" y="491" on="0"/>
        <pt x="287" y="482" on="0"/>
        <pt x="275" y="482" on="0"/>
      </contour>
    </TTGlyph>
    <TTGlyph name="egrave" xMin="48" yMin="-5" xMax="388" yMax="557">
      <contour>
        <pt x="229" y="-5" on="1"/>
        <pt x="144" y="-5" on="0"/>
        <pt x="48" y="104" on="0"/>
        <pt x="48" y="273" on="0"/>
        <pt x="148" y="379" on="0"/>
        <pt x="310" y="379" on="0"/>
        <pt x="388" y="281" on="0"/>
        <pt x="388" y="197" on="1"/>
        <pt x="388" y="188" on="0"/>
        <pt x="380" y="188" on="1"/>
        <pt x="65" y="188" on="1"/>
        <pt x="65" y="187" on="1"/>
        <pt x="65" y="107" on="0"/>
        <pt x="154" y="12" on="0"/>
        <pt x="229" y="12" on="1"/>
        <pt x="325" y="12" on="0"/>
        <pt x="370" y="84" on="1"/>
        <pt x="375" y="91" on="0"/>
        <pt x="389" y="82" on="0"/>
        <pt x="385" y="75" on="1"/>
        <pt x="335" y="-5" on="0"/>
      </contour>
      <contour>
        <pt x="159" y="362" on="0"/>
        <pt x="71" y="276" on="0"/>
        <pt x="65" y="205" on="1"/>
        <pt x="371" y="205" on="1"/>
        <pt x="371" y="276" on="0"/>
        <pt x="301" y="362" on="0"/>
      </contour>
      <contour>
        <pt x="259" y="460" on="1"/>
        <pt x="259" y="454" on="0"/>
        <pt x="253" y="454" on="1"/>
        <pt x="251" y="454" on="0"/>
        <pt x="248" y="457" on="1"/>
        <pt x="160" y="541" on="1"/>
        <pt x="157" y="544" on="0"/>
        <pt x="157" y="550" on="0"/>
        <pt x="163" y="557" on="0"/>
        <pt x="169" y="557" on="0"/>
        <pt x="173" y="552" on="1"/>
        <pt x="256" y="465" on="1"/>
        <pt x="259" y="462" on="0"/>
      </contour>
    </TTGlyph>
    <TTGlyph name="eight" xMin="50" yMin="-5" xMax="465" yMax="755">
      <contour>
        <pt x="351" y="-5" on="0"/>
        <pt x="161" y="-5" on="0"/>
        <pt x="50" y="89" on="0"/>
        <pt x="50" y="177" on="1"/>
        <pt x="50" y="263" on="0"/>
        <pt x="111" y="314" on="1"/>
        <pt x="143" y="340" on="0"/>
        <pt x="191" y="368" on="0"/>
        <pt x="238" y="391" on="1"/>
        <pt x="153" y="432" on="0"/>
        <pt x="72" y="522" on="0"/>
        <pt x="72" y="668" on="0"/>
        <pt x="171" y="755" on="0"/>
        <pt x="344" y="755" on="0"/>
        <pt x="443" y="666" on="0"/>
        <pt x="443" y="523" on="0"/>
        <pt x="362" y="433" on="0"/>
        <pt x="277" y="391" on="1"/>
        <pt x="324" y="368" on="0"/>
        <pt x="372" y="340" on="0"/>
        <pt x="404" y="314" on="1"/>
        <pt x="465" y="263" on="0"/>
        <pt x="465" y="93" on="0"/>
      </contour>
      <contour>
        <pt x="132" y="310" on="1"/>
        <pt x="67" y="257" on="0"/>
        <pt x="67" y="98" on="0"/>
        <pt x="166" y="12" on="0"/>
        <pt x="345" y="12" on="0"/>
        <pt x="448" y="101" on="0"/>
        <pt x="448" y="177" on="1"/>
        <pt x="448" y="259" on="0"/>
        <pt x="381" y="310" on="1"/>
        <pt x="347" y="336" on="0"/>
        <pt x="300" y="363" on="0"/>
        <pt x="257" y="383" on="1"/>
        <pt x="162" y="334" on="0"/>
      </contour>
      <contour>
        <pt x="257" y="738" on="1"/>
        <pt x="141" y="738" on="0"/>
        <pt x="104" y="661" on="1"/>
        <pt x="89" y="629" on="0"/>
        <pt x="89" y="590" on="1"/>
        <pt x="89" y="522" on="0"/>
        <pt x="172" y="442" on="0"/>
        <pt x="257" y="400" on="1"/>
        <pt x="343" y="442" on="0"/>
        <pt x="426" y="522" on="0"/>
        <pt x="426" y="660" on="0"/>
        <pt x="337" y="738" on="0"/>
      </contour>
    </TTGlyph>
    <TTGlyph name="ellipsis" xMin="56" yMin="-5" xMax="272" yMax="27">
      <contour>
        <pt x="56" y="-5" on="0"/>
        <pt x="56" y="27" on="0"/>
        <pt x="88" y="27" on="0"/>
        <pt x="88" y="-5" on="0"/>
      </contour>
      <contour>
        <pt x="148" y="-5" on="0"/>
        <pt x="148" y="27" on="0"/>
        <pt x="180" y="27" on="0"/>
        <pt x="180" y="-5" on="0"/>
      </contour>
      <contour>
        <pt x="240" y="-5" on="0"/>
        <pt x="240" y="27" on="0"/>
        <pt x="272" y="27" on="0"/>
        <pt x="272" y="-5" on="0"/>
      </contour>
    </TTGlyph>
    <TTGlyph name="emdash" xMin="66" yMin="209" xMax="693" yMax="226">
      <contour>
        <pt x="74" y="226" on="1"/>
        <pt x="685" y="226" on="1"/>
        <pt x="693" y="226" on="0"/>
        <pt x="693" y="209" on="0"/>
        <pt x="685" y="209" on="1"/>
        <pt x="74" y="209" on="1"/>
        <pt x="66" y="209" on="0"/>
        <pt x="66" y="226" on="0"/>
      </contour>
    </TTGlyph>
    <TTGlyph name="endash" xMin="66" yMin="209" xMax="443" yMax="226">
      <contour>
        <pt x="74" y="226" on="1"/>
        <pt x="435" y="226" on="1"/>
        <pt x="443" y="226" on="0"/>
        <pt x="443" y="209" on="0"/>
        <pt x="435" y="209" on="1"/>
        <pt x="74" y="209" on="1"/>
        <pt x="66" y="209" on="0"/>
        <pt x="66" y="226" on="0"/>
      </contour>
    </TTGlyph>
    <TTGlyph name="equal" xMin="69" yMin="149" xMax="346" yMax="286">
      <contour>
        <pt x="77" y="286" on="1"/>
        <pt x="338" y="286" on="1"/>
        <pt x="346" y="286" on="0"/>
        <pt x="346" y="269" on="0"/>
        <pt x="338" y="269" on="1"/>
        <pt x="77" y="269" on="1"/>
        <pt x="69" y="269" on="0"/>
        <pt x="69" y="286" on="0"/>
      </contour>
      <contour>
        <pt x="77" y="166" on="1"/>
        <pt x="338" y="166" on="1"/>
        <pt x="346" y="166" on="0"/>
        <pt x="346" y="149" on="0"/>
        <pt x="338" y="149" on="1"/>
        <pt x="77" y="149" on="1"/>
        <pt x="69" y="149" on="0"/>
        <pt x="69" y="166" on="0"/>
      </contour>
    </TTGlyph>
    <TTGlyph name="eth" xMin="48" yMin="-5" xMax="419" yMax="756">
      <contour>
        <pt x="130" y="738" on="1"/>
        <pt x="123" y="738" on="0"/>
        <pt x="123" y="755" on="0"/>
        <pt x="130" y="755" on="1"/>
        <pt x="131" y="755" on="0"/>
        <pt x="133" y="755" on="1"/>
        <pt x="234" y="742" on="0"/>
        <pt x="300" y="679" on="1"/>
        <pt x="367" y="744" on="1"/>
        <pt x="374" y="749" on="0"/>
        <pt x="386" y="738" on="0"/>
        <pt x="380" y="732" on="1"/>
        <pt x="311" y="667" on="1"/>
        <pt x="419" y="548" on="0"/>
        <pt x="419" y="261" on="1"/>
        <pt x="419" y="84" on="0"/>
        <pt x="336" y="26" on="1"/>
        <pt x="292" y="-5" on="0"/>
        <pt x="235" y="-5" on="1"/>
        <pt x="152" y="-5" on="0"/>
        <pt x="48" y="103" on="0"/>
        <pt x="48" y="270" on="0"/>
        <pt x="143" y="379" on="0"/>
        <pt x="322" y="379" on="0"/>
        <pt x="402" y="283" on="1"/>
        <pt x="398" y="546" on="0"/>
        <pt x="299" y="655" on="1"/>
        <pt x="233" y="593" on="1"/>
        <pt x="228" y="588" on="0"/>
        <pt x="222" y="594" on="1"/>
        <pt x="216" y="602" on="0"/>
        <pt x="222" y="606" on="1"/>
        <pt x="287" y="667" on="1"/>
        <pt x="227" y="724" on="0"/>
      </contour>
      <contour>
        <pt x="227" y="362" on="1"/>
        <pt x="154" y="362" on="0"/>
        <pt x="65" y="265" on="0"/>
        <pt x="65" y="110" on="0"/>
        <pt x="160" y="12" on="0"/>
        <pt x="317" y="12" on="0"/>
        <pt x="402" y="138" on="0"/>
        <pt x="402" y="258" on="1"/>
        <pt x="387" y="279" on="0"/>
        <pt x="347" y="318" on="0"/>
        <pt x="267" y="362" on="0"/>
      </contour>
    </TTGlyph>
    <TTGlyph name="exclam" xMin="87" yMin="-5" xMax="117" yMax="613">
      <contour>
        <pt x="92" y="613" on="0"/>
        <pt x="110" y="613" on="0"/>
        <pt x="110" y="604" on="1"/>
        <pt x="108" y="89" on="1"/>
        <pt x="108" y="81" on="0"/>
        <pt x="94" y="81" on="0"/>
        <pt x="94" y="89" on="1"/>
        <pt x="92" y="604" on="1"/>
      </contour>
      <contour>
        <pt x="87" y="-5" on="0"/>
        <pt x="87" y="25" on="0"/>
        <pt x="117" y="25" on="0"/>
        <pt x="117" y="-5" on="0"/>
      </contour>
    </TTGlyph>
    <TTGlyph name="exclamdown" xMin="87" yMin="-5" xMax="117" yMax="613">
      <contour>
        <pt x="94" y="527" on="0"/>
        <pt x="108" y="527" on="0"/>
        <pt x="108" y="519" on="1"/>
        <pt x="110" y="4" on="1"/>
        <pt x="110" y="-5" on="0"/>
        <pt x="92" y="-5" on="0"/>
        <pt x="92" y="4" on="1"/>
        <pt x="94" y="519" on="1"/>
      </contour>
      <contour>
        <pt x="87" y="583" on="0"/>
        <pt x="87" y="613" on="0"/>
        <pt x="117" y="613" on="0"/>
        <pt x="117" y="583" on="0"/>
      </contour>
    </TTGlyph>
    <TTGlyph name="f" xMin="-12" yMin="-230" xMax="380" yMax="755">
      <contour>
        <pt x="332" y="357" on="1"/>
        <pt x="127" y="357" on="1"/>
        <pt x="127" y="-9" on="1"/>
        <pt x="127" y="-98" on="0"/>
        <pt x="76" y="-203" on="0"/>
        <pt x="7" y="-227" on="1"/>
        <pt x="-2" y="-230" on="0"/>
        <pt x="-4" y="-230" on="1"/>
        <pt x="-12" y="-230" on="0"/>
        <pt x="-12" y="-216" on="0"/>
        <pt x="-6" y="-214" on="1"/>
        <pt x="61" y="-193" on="0"/>
        <pt x="110" y="-95" on="0"/>
        <pt x="110" y="-9" on="1"/>
        <pt x="110" y="357" on="1"/>
        <pt x="30" y="357" on="1"/>
        <pt x="21" y="357" on="0"/>
        <pt x="21" y="374" on="0"/>
        <pt x="30" y="374" on="1"/>
        <pt x="110" y="374" on="1"/>
        <pt x="110" y="601" on="1"/>
        <pt x="110" y="685" on="0"/>
        <pt x="179" y="755" on="0"/>
        <pt x="324" y="755" on="0"/>
        <pt x="376" y="723" on="1"/>
        <pt x="380" y="720" on="0"/>
        <pt x="380" y="716" on="1"/>
        <pt x="380" y="626" on="1"/>
        <pt x="380" y="618" on="0"/>
        <pt x="363" y="618" on="0"/>
        <pt x="363" y="626" on="1"/>
        <pt x="363" y="711" on="1"/>
        <pt x="315" y="738" on="0"/>
        <pt x="183" y="738" on="0"/>
        <pt x="127" y="674" on="0"/>
        <pt x="127" y="600" on="1"/>
        <pt x="127" y="374" on="1"/>
        <pt x="332" y="374" on="1"/>
        <pt x="340" y="374" on="0"/>
        <pt x="340" y="357" on="0"/>
      </contour>
    </TTGlyph>
    <TTGlyph name="fi" xMin="-12" yMin="-230" xMax="416" yMax="755">
      <contour>
        <pt x="416" y="4" on="1"/>
        <pt x="416" y="-5" on="0"/>
        <pt x="399" y="-5" on="0"/>
        <pt x="399" y="4" on="1"/>
        <pt x="399" y="357" on="1"/>
        <pt x="127" y="357" on="1"/>
        <pt x="127" y="-9" on="1"/>
        <pt x="127" y="-98" on="0"/>
        <pt x="76" y="-203" on="0"/>
        <pt x="7" y="-227" on="1"/>
        <pt x="-2" y="-230" on="0"/>
        <pt x="-4" y="-230" on="1"/>
        <pt x="-12" y="-230" on="0"/>
        <pt x="-12" y="-216" on="0"/>
        <pt x="-6" y="-214" on="1"/>
        <pt x="61" y="-193" on="0"/>
        <pt x="110" y="-95" on="0"/>
        <pt x="110" y="-9" on="1"/>
        <pt x="110" y="357" on="1"/>
        <pt x="30" y="357" on="1"/>
        <pt x="21" y="357" on="0"/>
        <pt x="21" y="374" on="0"/>
        <pt x="30" y="374" on="1"/>
        <pt x="110" y="374" on="1"/>
        <pt x="110" y="601" on="1"/>
        <pt x="110" y="685" on="0"/>
        <pt x="189" y="755" on="0"/>
        <pt x="351" y="755" on="0"/>
        <pt x="406" y="723" on="1"/>
        <pt x="410" y="720" on="0"/>
        <pt x="410" y="716" on="1"/>
        <pt x="410" y="548" on="1"/>
        <pt x="410" y="540" on="0"/>
        <pt x="393" y="540" on="0"/>
        <pt x="393" y="548" on="1"/>
        <pt x="393" y="711" on="1"/>
        <pt x="342" y="738" on="0"/>
        <pt x="192" y="738" on="0"/>
        <pt x="127" y="674" on="0"/>
        <pt x="127" y="600" on="1"/>
        <pt x="127" y="374" on="1"/>
        <pt x="407" y="374" on="1"/>
        <pt x="416" y="374" on="0"/>
        <pt x="416" y="365" on="1"/>
      </contour>
    </TTGlyph>
    <TTGlyph name="five" xMin="53" yMin="-229" xMax="421" yMax="379">
      <contour>
        <pt x="94" y="134" on="1"/>
        <pt x="80" y="131" on="1"/>
        <pt x="73" y="131" on="0"/>
        <pt x="73" y="137" on="1"/>
        <pt x="73" y="371" on="1"/>
        <pt x="73" y="379" on="0"/>
        <pt x="82" y="379" on="1"/>
        <pt x="386" y="379" on="1"/>
        <pt x="394" y="379" on="0"/>
        <pt x="394" y="362" on="0"/>
        <pt x="386" y="362" on="1"/>
        <pt x="90" y="362" on="1"/>
        <pt x="90" y="150" on="1"/>
        <pt x="162" y="169" on="0"/>
        <pt x="220" y="169" on="1"/>
        <pt x="318" y="169" on="0"/>
        <pt x="421" y="63" on="0"/>
        <pt x="421" y="-121" on="0"/>
        <pt x="314" y="-229" on="0"/>
        <pt x="128" y="-229" on="0"/>
        <pt x="59" y="-175" on="1"/>
        <pt x="53" y="-170" on="0"/>
        <pt x="53" y="-165" on="1"/>
        <pt x="53" y="-68" on="1"/>
        <pt x="53" y="-59" on="0"/>
        <pt x="70" y="-59" on="0"/>
        <pt x="70" y="-68" on="1"/>
        <pt x="70" y="-162" on="1"/>
        <pt x="97" y="-184" on="0"/>
        <pt x="186" y="-212" on="0"/>
        <pt x="229" y="-212" on="1"/>
        <pt x="313" y="-212" on="0"/>
        <pt x="404" y="-107" on="0"/>
        <pt x="404" y="-38" on="1"/>
        <pt x="404" y="152" on="0"/>
        <pt x="222" y="152" on="1"/>
        <pt x="169" y="152" on="0"/>
      </contour>
    </TTGlyph>
    <TTGlyph name="fl" xMin="-12" yMin="-230" xMax="505" yMax="755">
      <contour>
        <pt x="332" y="357" on="1"/>
        <pt x="127" y="357" on="1"/>
        <pt x="127" y="-9" on="1"/>
        <pt x="127" y="-98" on="0"/>
        <pt x="76" y="-203" on="0"/>
        <pt x="7" y="-227" on="1"/>
        <pt x="-2" y="-230" on="0"/>
        <pt x="-4" y="-230" on="1"/>
        <pt x="-12" y="-230" on="0"/>
        <pt x="-12" y="-216" on="0"/>
        <pt x="-6" y="-214" on="1"/>
        <pt x="61" y="-193" on="0"/>
        <pt x="110" y="-95" on="0"/>
        <pt x="110" y="-9" on="1"/>
        <pt x="110" y="357" on="1"/>
        <pt x="30" y="357" on="1"/>
        <pt x="21" y="357" on="0"/>
        <pt x="21" y="374" on="0"/>
        <pt x="30" y="374" on="1"/>
        <pt x="110" y="374" on="1"/>
        <pt x="110" y="601" on="1"/>
        <pt x="110" y="685" on="0"/>
        <pt x="189" y="755" on="0"/>
        <pt x="351" y="755" on="0"/>
        <pt x="406" y="723" on="1"/>
        <pt x="410" y="720" on="0"/>
        <pt x="410" y="716" on="1"/>
        <pt x="410" y="53" on="1"/>
        <pt x="410" y="17" on="0"/>
        <pt x="459" y="17" on="1"/>
        <pt x="496" y="17" on="1"/>
        <pt x="505" y="17" on="0"/>
        <pt x="505" y="0" on="0"/>
        <pt x="496" y="0" on="1"/>
        <pt x="459" y="0" on="1"/>
        <pt x="393" y="0" on="0"/>
        <pt x="393" y="53" on="1"/>
        <pt x="393" y="711" on="1"/>
        <pt x="342" y="738" on="0"/>
        <pt x="192" y="738" on="0"/>
        <pt x="127" y="674" on="0"/>
        <pt x="127" y="600" on="1"/>
        <pt x="127" y="374" on="1"/>
        <pt x="332" y="374" on="1"/>
        <pt x="340" y="374" on="0"/>
        <pt x="340" y="357" on="0"/>
      </contour>
    </TTGlyph>
    <TTGlyph name="florin" xMin="25" yMin="-230" xMax="495" yMax="755">
      <contour>
        <pt x="417" y="362" on="1"/>
        <pt x="212" y="362" on="1"/>
        <pt x="181" y="-9" on="1"/>
        <pt x="173" y="-98" on="0"/>
        <pt x="113" y="-203" on="0"/>
        <pt x="43" y="-227" on="1"/>
        <pt x="34" y="-230" on="0"/>
        <pt x="32" y="-230" on="1"/>
        <pt x="25" y="-230" on="0"/>
        <pt x="25" y="-215" on="0"/>
        <pt x="32" y="-214" on="1"/>
        <pt x="100" y="-193" on="0"/>
        <pt x="157" y="-95" on="0"/>
        <pt x="164" y="-9" on="1"/>
        <pt x="195" y="362" on="1"/>
        <pt x="115" y="362" on="1"/>
        <pt x="105" y="362" on="0"/>
        <pt x="107" y="370" on="1"/>
        <pt x="107" y="379" on="0"/>
        <pt x="116" y="379" on="1"/>
        <pt x="196" y="379" on="1"/>
        <pt x="215" y="601" on="1"/>
        <pt x="222" y="685" on="0"/>
        <pt x="296" y="755" on="0"/>
        <pt x="442" y="755" on="0"/>
        <pt x="491" y="723" on="1"/>
        <pt x="495" y="720" on="0"/>
        <pt x="495" y="716" on="1"/>
        <pt x="487" y="626" on="1"/>
        <pt x="487" y="618" on="0"/>
        <pt x="470" y="618" on="0"/>
        <pt x="470" y="626" on="1"/>
        <pt x="477" y="711" on="1"/>
        <pt x="433" y="738" on="0"/>
        <pt x="301" y="738" on="0"/>
        <pt x="238" y="673" on="0"/>
        <pt x="232" y="600" on="1"/>
        <pt x="213" y="379" on="1"/>
        <pt x="418" y="379" on="1"/>
        <pt x="426" y="379" on="0"/>
        <pt x="426" y="370" on="1"/>
        <pt x="424" y="362" on="0"/>
      </contour>
    </TTGlyph>
    <TTGlyph name="four" xMin="18" yMin="-229" xMax="407" yMax="380">
      <contour>
        <pt x="28" y="0" on="1"/>
        <pt x="18" y="0" on="0"/>
        <pt x="18" y="8" on="1"/>
        <pt x="18" y="11" on="0"/>
        <pt x="20" y="13" on="1"/>
        <pt x="227" y="375" on="1"/>
        <pt x="230" y="379" on="0"/>
        <pt x="236" y="379" on="0"/>
        <pt x="246" y="374" on="0"/>
        <pt x="242" y="366" on="1"/>
        <pt x="42" y="17" on="1"/>
        <pt x="295" y="17" on="1"/>
        <pt x="295" y="101" on="1"/>
        <pt x="295" y="110" on="0"/>
        <pt x="312" y="110" on="0"/>
        <pt x="312" y="101" on="1"/>
        <pt x="312" y="17" on="1"/>
        <pt x="398" y="17" on="1"/>
        <pt x="407" y="17" on="0"/>
        <pt x="407" y="0" on="0"/>
        <pt x="398" y="0" on="1"/>
        <pt x="312" y="0" on="1"/>
        <pt x="312" y="-220" on="1"/>
        <pt x="312" y="-229" on="0"/>
        <pt x="295" y="-229" on="0"/>
        <pt x="295" y="-220" on="1"/>
        <pt x="295" y="0" on="1"/>
      </contour>
    </TTGlyph>
    <TTGlyph name="fraction" xMin="6" yMin="-3" xMax="441" yMax="612">
      <contour>
        <pt x="15" y="-3" on="1"/>
        <pt x="6" y="0" on="0"/>
        <pt x="6" y="8" on="0"/>
        <pt x="9" y="12" on="1"/>
        <pt x="423" y="607" on="1"/>
        <pt x="427" y="611" on="0"/>
        <pt x="430" y="611" on="1"/>
        <pt x="440" y="611" on="0"/>
        <pt x="440" y="603" on="1"/>
        <pt x="440" y="601" on="0"/>
        <pt x="438" y="598" on="1"/>
        <pt x="24" y="3" on="1"/>
        <pt x="20" y="-3" on="0"/>
      </contour>
    </TTGlyph>
    <TTGlyph name="g" xMin="16" yMin="-230" xMax="413" yMax="513">
      <contour>
        <pt x="340" y="-207" on="0"/>
        <pt x="245" y="-230" on="0"/>
        <pt x="122" y="-230" on="0"/>
        <pt x="16" y="-164" on="0"/>
        <pt x="16" y="-43" on="0"/>
        <pt x="78" y="-4" on="1"/>
        <pt x="48" y="11" on="0"/>
        <pt x="48" y="41" on="1"/>
        <pt x="48" y="84" on="0"/>
        <pt x="137" y="116" on="1"/>
        <pt x="59" y="154" on="0"/>
        <pt x="59" y="241" on="1"/>
        <pt x="59" y="302" on="0"/>
        <pt x="142" y="379" on="0"/>
        <pt x="262" y="379" on="0"/>
        <pt x="303" y="349" on="1"/>
        <pt x="353" y="387" on="0"/>
        <pt x="353" y="444" on="1"/>
        <pt x="353" y="470" on="0"/>
        <pt x="341" y="501" on="1"/>
        <pt x="337" y="508" on="0"/>
        <pt x="347" y="513" on="0"/>
        <pt x="349" y="513" on="1"/>
        <pt x="354" y="513" on="0"/>
        <pt x="356" y="507" on="1"/>
        <pt x="370" y="472" on="0"/>
        <pt x="370" y="444" on="1"/>
        <pt x="370" y="382" on="0"/>
        <pt x="315" y="339" on="1"/>
        <pt x="357" y="300" on="0"/>
        <pt x="357" y="177" on="0"/>
        <pt x="270" y="102" on="0"/>
        <pt x="207" y="102" on="1"/>
        <pt x="180" y="102" on="0"/>
        <pt x="160" y="108" on="1"/>
        <pt x="65" y="80" on="0"/>
        <pt x="65" y="41" on="1"/>
        <pt x="65" y="7" on="0"/>
        <pt x="135" y="-4" on="1"/>
        <pt x="170" y="-9" on="0"/>
        <pt x="289" y="-23" on="0"/>
        <pt x="304" y="-25" on="1"/>
        <pt x="355" y="-32" on="0"/>
        <pt x="413" y="-70" on="0"/>
        <pt x="413" y="-150" on="0"/>
      </contour>
      <contour>
        <pt x="94" y="-11" on="1"/>
        <pt x="33" y="-47" on="0"/>
        <pt x="33" y="-152" on="0"/>
        <pt x="122" y="-213" on="0"/>
        <pt x="275" y="-213" on="0"/>
        <pt x="395" y="-157" on="0"/>
        <pt x="395" y="-110" on="1"/>
        <pt x="395" y="-53" on="0"/>
        <pt x="302" y="-41" on="1"/>
        <pt x="157" y="-24" on="0"/>
        <pt x="116" y="-18" on="0"/>
      </contour>
      <contour>
        <pt x="340" y="294" on="0"/>
        <pt x="266" y="362" on="0"/>
        <pt x="149" y="362" on="0"/>
        <pt x="76" y="294" on="0"/>
        <pt x="76" y="187" on="0"/>
        <pt x="149" y="119" on="0"/>
        <pt x="266" y="119" on="0"/>
        <pt x="340" y="187" on="0"/>
      </contour>
    </TTGlyph>
    <TTGlyph name="germandbls" xMin="73" yMin="-5" xMax="502" yMax="755">
      <contour>
        <pt x="90" y="4" on="1"/>
        <pt x="90" y="-5" on="0"/>
        <pt x="73" y="-5" on="0"/>
        <pt x="73" y="4" on="1"/>
        <pt x="73" y="600" on="1"/>
        <pt x="73" y="755" on="0"/>
        <pt x="219" y="755" on="1"/>
        <pt x="294" y="755" on="0"/>
        <pt x="404" y="690" on="0"/>
        <pt x="404" y="624" on="1"/>
        <pt x="404" y="567" on="0"/>
        <pt x="340" y="528" on="1"/>
        <pt x="314" y="511" on="0"/>
        <pt x="288" y="496" on="1"/>
        <pt x="225" y="458" on="0"/>
        <pt x="225" y="415" on="1"/>
        <pt x="225" y="356" on="0"/>
        <pt x="323" y="315" on="1"/>
        <pt x="364" y="298" on="0"/>
        <pt x="445" y="260" on="0"/>
        <pt x="502" y="189" on="0"/>
        <pt x="502" y="71" on="0"/>
        <pt x="420" y="-5" on="0"/>
        <pt x="344" y="-5" on="1"/>
        <pt x="308" y="-5" on="0"/>
        <pt x="225" y="18" on="0"/>
        <pt x="203" y="37" on="1"/>
        <pt x="197" y="43" on="0"/>
        <pt x="208" y="56" on="0"/>
        <pt x="214" y="50" on="1"/>
        <pt x="233" y="34" on="0"/>
        <pt x="311" y="12" on="0"/>
        <pt x="344" y="12" on="1"/>
        <pt x="412" y="12" on="0"/>
        <pt x="485" y="78" on="0"/>
        <pt x="485" y="186" on="0"/>
        <pt x="428" y="251" on="0"/>
        <pt x="346" y="287" on="0"/>
        <pt x="265" y="321" on="0"/>
        <pt x="208" y="376" on="0"/>
        <pt x="208" y="449" on="0"/>
        <pt x="264" y="504" on="0"/>
        <pt x="331" y="537" on="0"/>
        <pt x="387" y="591" on="0"/>
        <pt x="387" y="665" on="0"/>
        <pt x="358" y="692" on="1"/>
        <pt x="310" y="739" on="0"/>
        <pt x="219" y="739" on="1"/>
        <pt x="151" y="739" on="0"/>
        <pt x="90" y="669" on="0"/>
        <pt x="90" y="600" on="1"/>
      </contour>
    </TTGlyph>
    <TTGlyph name="grave" xMin="25" yMin="454" xMax="127" yMax="557">
      <contour>
        <pt x="127" y="460" on="1"/>
        <pt x="127" y="454" on="0"/>
        <pt x="121" y="454" on="1"/>
        <pt x="119" y="454" on="0"/>
        <pt x="116" y="457" on="1"/>
        <pt x="28" y="541" on="1"/>
        <pt x="25" y="544" on="0"/>
        <pt x="25" y="550" on="0"/>
        <pt x="31" y="557" on="0"/>
        <pt x="37" y="557" on="0"/>
        <pt x="41" y="552" on="1"/>
        <pt x="124" y="465" on="1"/>
        <pt x="127" y="462" on="0"/>
      </contour>
    </TTGlyph>
    <TTGlyph name="greater" xMin="68" yMin="28" xMax="396" yMax="439">
      <contour>
        <pt x="68" y="439" on="0"/>
        <pt x="80" y="439" on="0"/>
        <pt x="83" y="437" on="1"/>
        <pt x="392" y="242" on="1"/>
        <pt x="396" y="239" on="0"/>
        <pt x="396" y="229" on="0"/>
        <pt x="392" y="226" on="1"/>
        <pt x="83" y="31" on="1"/>
        <pt x="80" y="29" on="0"/>
        <pt x="74" y="29" on="0"/>
        <pt x="69" y="35" on="0"/>
        <pt x="69" y="42" on="0"/>
        <pt x="74" y="45" on="1"/>
        <pt x="375" y="234" on="1"/>
        <pt x="74" y="423" on="1"/>
        <pt x="68" y="426" on="0"/>
      </contour>
    </TTGlyph>
    <TTGlyph name="guillemotleft" xMin="41" yMin="27" xMax="422" yMax="350">
      <contour>
        <pt x="46" y="180" on="1"/>
        <pt x="41" y="184" on="0"/>
        <pt x="41" y="193" on="0"/>
        <pt x="46" y="197" on="1"/>
        <pt x="255" y="347" on="1"/>
        <pt x="258" y="349" on="0"/>
        <pt x="264" y="349" on="0"/>
        <pt x="272" y="338" on="0"/>
        <pt x="265" y="333" on="1"/>
        <pt x="63" y="188" on="1"/>
        <pt x="265" y="44" on="1"/>
        <pt x="272" y="39" on="0"/>
        <pt x="264" y="28" on="0"/>
        <pt x="258" y="28" on="0"/>
        <pt x="255" y="30" on="1"/>
      </contour>
      <contour>
        <pt x="198" y="180" on="1"/>
        <pt x="193" y="184" on="0"/>
        <pt x="193" y="193" on="0"/>
        <pt x="198" y="197" on="1"/>
        <pt x="407" y="347" on="1"/>
        <pt x="410" y="349" on="0"/>
        <pt x="416" y="349" on="0"/>
        <pt x="421" y="342" on="0"/>
        <pt x="421" y="336" on="0"/>
        <pt x="417" y="333" on="1"/>
        <pt x="215" y="188" on="1"/>
        <pt x="417" y="44" on="1"/>
        <pt x="421" y="41" on="0"/>
        <pt x="421" y="35" on="0"/>
        <pt x="416" y="28" on="0"/>
        <pt x="410" y="28" on="0"/>
        <pt x="407" y="30" on="1"/>
      </contour>
    </TTGlyph>
    <TTGlyph name="guillemotright" xMin="49" yMin="27" xMax="430" yMax="350">
      <contour>
        <pt x="216" y="30" on="1"/>
        <pt x="213" y="28" on="0"/>
        <pt x="207" y="28" on="0"/>
        <pt x="199" y="39" on="0"/>
        <pt x="206" y="44" on="1"/>
        <pt x="408" y="188" on="1"/>
        <pt x="206" y="333" on="1"/>
        <pt x="199" y="338" on="0"/>
        <pt x="207" y="349" on="0"/>
        <pt x="213" y="349" on="0"/>
        <pt x="216" y="347" on="1"/>
        <pt x="425" y="197" on="1"/>
        <pt x="430" y="193" on="0"/>
        <pt x="430" y="184" on="0"/>
        <pt x="425" y="180" on="1"/>
      </contour>
      <contour>
        <pt x="64" y="30" on="1"/>
        <pt x="61" y="28" on="0"/>
        <pt x="55" y="28" on="0"/>
        <pt x="50" y="35" on="0"/>
        <pt x="50" y="41" on="0"/>
        <pt x="54" y="44" on="1"/>
        <pt x="256" y="188" on="1"/>
        <pt x="54" y="333" on="1"/>
        <pt x="50" y="336" on="0"/>
        <pt x="50" y="342" on="0"/>
        <pt x="55" y="349" on="0"/>
        <pt x="61" y="349" on="0"/>
        <pt x="64" y="347" on="1"/>
        <pt x="273" y="197" on="1"/>
        <pt x="278" y="193" on="0"/>
        <pt x="278" y="184" on="0"/>
        <pt x="273" y="180" on="1"/>
      </contour>
    </TTGlyph>
    <TTGlyph name="guilsinglleft" xMin="41" yMin="27" xMax="270" yMax="350">
      <contour>
        <pt x="46" y="180" on="1"/>
        <pt x="41" y="184" on="0"/>
        <pt x="41" y="193" on="0"/>
        <pt x="46" y="197" on="1"/>
        <pt x="255" y="347" on="1"/>
        <pt x="258" y="349" on="0"/>
        <pt x="264" y="349" on="0"/>
        <pt x="269" y="342" on="0"/>
        <pt x="269" y="336" on="0"/>
        <pt x="265" y="333" on="1"/>
        <pt x="63" y="188" on="1"/>
        <pt x="265" y="44" on="1"/>
        <pt x="269" y="41" on="0"/>
        <pt x="269" y="35" on="0"/>
        <pt x="264" y="28" on="0"/>
        <pt x="258" y="28" on="0"/>
        <pt x="255" y="30" on="1"/>
      </contour>
    </TTGlyph>
    <TTGlyph name="guilsinglright" xMin="49" yMin="27" xMax="278" yMax="350">
      <contour>
        <pt x="64" y="30" on="1"/>
        <pt x="61" y="28" on="0"/>
        <pt x="55" y="28" on="0"/>
        <pt x="50" y="35" on="0"/>
        <pt x="50" y="41" on="0"/>
        <pt x="54" y="44" on="1"/>
        <pt x="256" y="188" on="1"/>
        <pt x="54" y="333" on="1"/>
        <pt x="50" y="336" on="0"/>
        <pt x="50" y="342" on="0"/>
        <pt x="55" y="349" on="0"/>
        <pt x="61" y="349" on="0"/>
        <pt x="64" y="347" on="1"/>
        <pt x="273" y="197" on="1"/>
        <pt x="278" y="193" on="0"/>
        <pt x="278" y="184" on="0"/>
        <pt x="273" y="180" on="1"/>
      </contour>
    </TTGlyph>
    <TTGlyph name="h" xMin="-22" yMin="-5" xMax="472" yMax="750">
      <contour>
        <pt x="464" y="0" on="1"/>
        <pt x="426" y="0" on="1"/>
        <pt x="360" y="0" on="0"/>
        <pt x="360" y="53" on="1"/>
        <pt x="360" y="280" on="1"/>
        <pt x="360" y="319" on="0"/>
        <pt x="311" y="362" on="0"/>
        <pt x="266" y="362" on="1"/>
        <pt x="153" y="362" on="0"/>
        <pt x="90" y="246" on="1"/>
        <pt x="90" y="4" on="1"/>
        <pt x="90" y="-5" on="0"/>
        <pt x="73" y="-5" on="0"/>
        <pt x="73" y="4" on="1"/>
        <pt x="73" y="733" on="1"/>
        <pt x="-13" y="733" on="1"/>
        <pt x="-22" y="733" on="0"/>
        <pt x="-22" y="750" on="0"/>
        <pt x="-13" y="750" on="1"/>
        <pt x="82" y="750" on="1"/>
        <pt x="90" y="750" on="0"/>
        <pt x="90" y="741" on="1"/>
        <pt x="90" y="276" on="1"/>
        <pt x="155" y="379" on="0"/>
        <pt x="266" y="379" on="1"/>
        <pt x="317" y="379" on="0"/>
        <pt x="377" y="327" on="0"/>
        <pt x="377" y="280" on="1"/>
        <pt x="377" y="53" on="1"/>
        <pt x="377" y="17" on="0"/>
        <pt x="426" y="17" on="1"/>
        <pt x="464" y="17" on="1"/>
        <pt x="472" y="17" on="0"/>
        <pt x="472" y="0" on="0"/>
      </contour>
    </TTGlyph>
    <TTGlyph name="hungarumlaut" xMin="30" yMin="454" xMax="237" yMax="555">
      <contour>
        <pt x="36" y="454" on="1"/>
        <pt x="30" y="454" on="0"/>
        <pt x="30" y="460" on="1"/>
        <pt x="30" y="462" on="0"/>
        <pt x="33" y="465" on="1"/>
        <pt x="116" y="552" on="1"/>
        <pt x="118" y="555" on="0"/>
        <pt x="127" y="555" on="0"/>
        <pt x="135" y="547" on="0"/>
        <pt x="129" y="541" on="1"/>
        <pt x="41" y="457" on="1"/>
        <pt x="38" y="454" on="0"/>
      </contour>
      <contour>
        <pt x="141" y="454" on="1"/>
        <pt x="135" y="454" on="0"/>
        <pt x="135" y="460" on="1"/>
        <pt x="135" y="462" on="0"/>
        <pt x="138" y="465" on="1"/>
        <pt x="221" y="552" on="1"/>
        <pt x="223" y="555" on="0"/>
        <pt x="228" y="555" on="1"/>
        <pt x="237" y="555" on="0"/>
        <pt x="237" y="547" on="1"/>
        <pt x="237" y="544" on="0"/>
        <pt x="234" y="541" on="1"/>
        <pt x="146" y="457" on="1"/>
        <pt x="143" y="454" on="0"/>
      </contour>
    </TTGlyph>
    <TTGlyph name="hyphen" xMin="66" yMin="209" xMax="323" yMax="226">
      <contour>
        <pt x="74" y="226" on="1"/>
        <pt x="315" y="226" on="1"/>
        <pt x="323" y="226" on="0"/>
        <pt x="323" y="209" on="0"/>
        <pt x="315" y="209" on="1"/>
        <pt x="74" y="209" on="1"/>
        <pt x="66" y="209" on="0"/>
        <pt x="66" y="226" on="0"/>
      </contour>
    </TTGlyph>
    <TTGlyph name="i" xMin="1" yMin="-5" xMax="116" yMax="571">
      <contour>
        <pt x="96" y="4" on="1"/>
        <pt x="96" y="357" on="1"/>
        <pt x="9" y="357" on="1"/>
        <pt x="1" y="357" on="0"/>
        <pt x="1" y="374" on="0"/>
        <pt x="9" y="374" on="1"/>
        <pt x="104" y="374" on="1"/>
        <pt x="113" y="374" on="0"/>
        <pt x="113" y="365" on="1"/>
        <pt x="113" y="4" on="1"/>
        <pt x="113" y="-5" on="0"/>
        <pt x="96" y="-5" on="0"/>
      </contour>
      <contour>
        <pt x="86" y="550" on="0"/>
        <pt x="86" y="562" on="0"/>
        <pt x="95" y="571" on="0"/>
        <pt x="107" y="571" on="0"/>
        <pt x="116" y="562" on="0"/>
        <pt x="116" y="550" on="0"/>
        <pt x="107" y="541" on="0"/>
        <pt x="95" y="541" on="0"/>
      </contour>
    </TTGlyph>
    <TTGlyph name="iacute" xMin="1" yMin="-5" xMax="139" yMax="555">
      <contour>
        <pt x="113" y="4" on="1"/>
        <pt x="113" y="-5" on="0"/>
        <pt x="96" y="-5" on="0"/>
        <pt x="96" y="4" on="1"/>
        <pt x="96" y="357" on="1"/>
        <pt x="9" y="357" on="1"/>
        <pt x="1" y="357" on="0"/>
        <pt x="1" y="374" on="0"/>
        <pt x="9" y="374" on="1"/>
        <pt x="104" y="374" on="1"/>
        <pt x="113" y="374" on="0"/>
        <pt x="113" y="365" on="1"/>
      </contour>
      <contour>
        <pt x="43" y="454" on="1"/>
        <pt x="37" y="454" on="0"/>
        <pt x="37" y="460" on="1"/>
        <pt x="37" y="462" on="0"/>
        <pt x="40" y="465" on="1"/>
        <pt x="123" y="552" on="1"/>
        <pt x="125" y="555" on="0"/>
        <pt x="130" y="555" on="1"/>
        <pt x="139" y="555" on="0"/>
        <pt x="139" y="547" on="1"/>
        <pt x="139" y="544" on="0"/>
        <pt x="136" y="541" on="1"/>
        <pt x="48" y="457" on="1"/>
        <pt x="45" y="454" on="0"/>
      </contour>
    </TTGlyph>
    <TTGlyph name="icircumflex" xMin="1" yMin="-5" xMax="175" yMax="545">
      <contour>
        <pt x="113" y="4" on="1"/>
        <pt x="113" y="-5" on="0"/>
        <pt x="96" y="-5" on="0"/>
        <pt x="96" y="4" on="1"/>
        <pt x="96" y="357" on="1"/>
        <pt x="9" y="357" on="1"/>
        <pt x="1" y="357" on="0"/>
        <pt x="1" y="374" on="0"/>
        <pt x="9" y="374" on="1"/>
        <pt x="104" y="374" on="1"/>
        <pt x="113" y="374" on="0"/>
        <pt x="113" y="365" on="1"/>
      </contour>
      <contour>
        <pt x="35" y="455" on="1"/>
        <pt x="32" y="452" on="0"/>
        <pt x="24" y="452" on="0"/>
        <pt x="24" y="458" on="1"/>
        <pt x="24" y="460" on="0"/>
        <pt x="26" y="462" on="1"/>
        <pt x="91" y="541" on="1"/>
        <pt x="95" y="545" on="0"/>
        <pt x="103" y="545" on="0"/>
        <pt x="107" y="541" on="1"/>
        <pt x="172" y="462" on="1"/>
        <pt x="174" y="460" on="0"/>
        <pt x="174" y="458" on="1"/>
        <pt x="174" y="452" on="0"/>
        <pt x="166" y="452" on="0"/>
        <pt x="163" y="455" on="1"/>
        <pt x="99" y="524" on="1"/>
      </contour>
    </TTGlyph>
    <TTGlyph name="idieresis" xMin="1" yMin="-5" xMax="164" yMax="512">
      <contour>
        <pt x="96" y="4" on="1"/>
        <pt x="96" y="357" on="1"/>
        <pt x="9" y="357" on="1"/>
        <pt x="1" y="357" on="0"/>
        <pt x="1" y="374" on="0"/>
        <pt x="9" y="374" on="1"/>
        <pt x="104" y="374" on="1"/>
        <pt x="113" y="374" on="0"/>
        <pt x="113" y="365" on="1"/>
        <pt x="113" y="4" on="1"/>
        <pt x="113" y="-5" on="0"/>
        <pt x="96" y="-5" on="0"/>
      </contour>
      <contour>
        <pt x="29" y="491" on="0"/>
        <pt x="29" y="503" on="0"/>
        <pt x="38" y="512" on="0"/>
        <pt x="50" y="512" on="0"/>
        <pt x="59" y="503" on="0"/>
        <pt x="59" y="491" on="0"/>
        <pt x="50" y="482" on="0"/>
        <pt x="38" y="482" on="0"/>
      </contour>
      <contour>
        <pt x="134" y="491" on="0"/>
        <pt x="134" y="503" on="0"/>
        <pt x="143" y="512" on="0"/>
        <pt x="155" y="512" on="0"/>
        <pt x="164" y="503" on="0"/>
        <pt x="164" y="491" on="0"/>
        <pt x="155" y="482" on="0"/>
        <pt x="143" y="482" on="0"/>
      </contour>
    </TTGlyph>
    <TTGlyph name="igrave" xMin="1" yMin="-5" xMax="113" yMax="557">
      <contour>
        <pt x="14" y="541" on="1"/>
        <pt x="8" y="547" on="0"/>
        <pt x="17" y="557" on="0"/>
        <pt x="23" y="557" on="0"/>
        <pt x="27" y="552" on="1"/>
        <pt x="110" y="465" on="1"/>
        <pt x="115" y="460" on="0"/>
        <pt x="107" y="452" on="0"/>
        <pt x="102" y="457" on="1"/>
      </contour>
      <contour>
        <pt x="96" y="4" on="1"/>
        <pt x="96" y="357" on="1"/>
        <pt x="9" y="357" on="1"/>
        <pt x="1" y="357" on="0"/>
        <pt x="1" y="374" on="0"/>
        <pt x="9" y="374" on="1"/>
        <pt x="104" y="374" on="1"/>
        <pt x="113" y="374" on="0"/>
        <pt x="113" y="365" on="1"/>
        <pt x="113" y="4" on="1"/>
        <pt x="113" y="-5" on="0"/>
        <pt x="96" y="-5" on="0"/>
      </contour>
    </TTGlyph>
</ttFont>
